<svg id="Capa_1" data-name="Capa 1" xmlns="http://www.w3.org/2000/svg" viewBox="0 0 727 314"><defs><style>.cls-1{fill:#bc2110;}.cls-2{fill:#00426a;}</style></defs><path class="cls-1" d="M167.93,271.88a3.59,3.59,0,0,1,1.22,4.9,33.54,33.54,0,0,1-8.39,10.84A51.28,51.28,0,0,1,149.21,295a68.41,68.41,0,0,1-26.06,6.13,85.81,85.81,0,0,1-13.29-.7,96.41,96.41,0,0,1-13.11-2.8l-6.3-2.1-3.15-1.4-1.57-.52-1.4-.7a29.91,29.91,0,0,1-3-1.58l-3-1.57a4.64,4.64,0,0,0-1.57-.7l-1.4-.88-2.8-1.75a99,99,0,0,1-10.49-8l-2.45-2.1L57.22,274l-4.37-4.2q-.7-.7-2.1-2a17.89,17.89,0,0,0-1.92-1.66l-2.1-1.93-1-.87a5.68,5.68,0,0,0-.7-.53l-.35-.35-2.1-1.57a11.28,11.28,0,0,1-2.27-1.75c-.35-.23-1.11-.76-2.28-1.57s-2-1.28-2.1-1.4a43.84,43.84,0,0,0-6.12-3.5,7.32,7.32,0,0,0-1,1.58,11.23,11.23,0,0,1-1,1.66,8.44,8.44,0,0,0-.87,1.48,17.5,17.5,0,0,0-.79,1.75c-.18.47-.35,1-.53,1.66s-.32,1.26-.43,1.84-.24,1.22-.35,1.92q-.18,3-2.28,2.1a6.5,6.5,0,0,0-.87-.35A14.5,14.5,0,0,1,14.29,259a16.19,16.19,0,0,1-.88-10,52.64,52.64,0,0,1,3.24-10.23,55.54,55.54,0,0,1,5.07-9.18,98.44,98.44,0,0,1,10.14-12.42c.58-.58,1.28-1.23,2.1-1.93q26.76-25.35,65.76-52.11c.35-.23.81-.53,1.4-.88s1.72-1.07,3.41-2.18,3.29-2.22,4.81-3.33,3.2-2.38,5.07-3.84a45.89,45.89,0,0,0,4.81-4.29,27.92,27.92,0,0,0,3.41-4.28,7.1,7.1,0,0,0,1.31-4.11,4.45,4.45,0,0,0-1.84-3.33q-4-3.5-12-4.8a62.67,62.67,0,0,0-13.73-1l-6,.53A110.38,110.38,0,0,0,78,134.07a169.11,169.11,0,0,0-17.84,5.77q-5.23,2.1-9.26,4.2-10,4.71-14.35,9.26a16.73,16.73,0,0,0-3.67,5.95,11.62,11.62,0,0,0,0,6.3c.93,3.49.64,5.54-.87,6.12a7.74,7.74,0,0,1-3.85.17,18.06,18.06,0,0,1-3.67-.7A16.3,16.3,0,0,1,18.05,167a15.54,15.54,0,0,1-4.38-8.57,15.71,15.71,0,0,1-.17-5.25,19.45,19.45,0,0,1,1.4-4.72A28.56,28.56,0,0,1,24,136.69a6.71,6.71,0,0,1,1.05-.87,37.8,37.8,0,0,1,3.85-2.8q2.79-1.76,5.07-3a116.42,116.42,0,0,1,20.46-7.52,147.6,147.6,0,0,1,20.64-4.19,168.34,168.34,0,0,1,21-1.4,43.45,43.45,0,0,1,5.59,0,84.51,84.51,0,0,1,15.92,1.75,47.23,47.23,0,0,1,11,3.67q8.56,4.37,11.54,11.54,3.84,8.93-.35,19.59c-.47,1.17-1,2.33-1.58,3.5a25.29,25.29,0,0,1-3.32,4.54,14.89,14.89,0,0,1-1.4,1.58l-.7.7-.7.52a16.34,16.34,0,0,1-2.27,2.28c-1.17,1-4.43,3.73-9.79,8a16.91,16.91,0,0,0-1.93,1.22q-1.22.88-5.33,3.76t-8.22,5.86q-4.11,3-10.06,7.35T83,201.31q-5.52,4.11-11.72,9.1t-11.63,9.44q-5.43,4.46-10.58,9.09t-8.83,8.49l-.35.35c1.75.81,3.43,1.63,5.07,2.44a89.67,89.67,0,0,1,11.19,7.17,23.1,23.1,0,0,1,2.63,1.93l2.62,2.1,2.45,2.1c1.16,1,2,1.8,2.45,2.27l4.37,4.2,1.92,1.92q.35.34,1.14,1c.52.46.84.76,1,.87q3.32,3,8.57,6.82,6.47,4.2,9.27,5.6l1.22.7,1.23.53,2.27,1.22q4.73,1.92,5.07,2.1a50.87,50.87,0,0,1,5.07,1.75,2.74,2.74,0,0,1,.7.08l.62.18a5.55,5.55,0,0,0,.7.17,1.2,1.2,0,0,1,.61.27l2.62.52q1.4.35,5.42,1.05l2.63.35c.35,0,.84,0,1.48.09l1.14.09a58.06,58.06,0,0,0,21.34-2.1q11.72-3.33,17.83-10.5l.18-.17a4.59,4.59,0,0,1,2.53-1.31A3.43,3.43,0,0,1,167.93,271.88Z"/><path class="cls-1" d="M206.93,197.11a4,4,0,0,1,3,.27,3.45,3.45,0,0,1,1.84,2.18,4.32,4.32,0,0,1-.27,3.06q-1.58,3-2.62,5.07-3,5.43-4.9,8.57a184.54,184.54,0,0,1-10.49,16.62,117.62,117.62,0,0,1-12.77,15.39,56.05,56.05,0,0,1-8.57,7.17,28.18,28.18,0,0,1-5.07,2.45,5.25,5.25,0,0,1-2.62.7q-4,.53-11.54-4a2.31,2.31,0,0,1-.7-.52q-3.85-2.44-4-5.6v-.17a6.41,6.41,0,0,1,.18-1.58q-5.78,7.35-12.77,10.15h-.17a.71.71,0,0,1-.53.17q-11.72,4-19.41-7.52a29.1,29.1,0,0,1-2.45-5.07,37.21,37.21,0,0,1-1.92-9.79,61.65,61.65,0,0,1,.35-9.45,61.45,61.45,0,0,1,5.07-17,63.84,63.84,0,0,1,8.92-14.52c.81-1,1.69-2.1,2.62-3.14q1.23-1.23,3.06-3a73.69,73.69,0,0,1,6-4.89,37.48,37.48,0,0,1,9.27-5.08,22.77,22.77,0,0,1,9.79-1.57,15.85,15.85,0,0,1,9.62,4,19.76,19.76,0,0,1,5.07,7.7l1.4-3.68c.81-1.51,1.57-3,2.27-4.54q2.28-3.49,7-1.23a26.13,26.13,0,0,1,5.33,3.33,13.56,13.56,0,0,1,3.67,4.54,5.41,5.41,0,0,1,.27,4.9,15.33,15.33,0,0,0-.88,2.1q-1.05,2.44-3.84,8.57l-7.87,17.14q-5.08,11.37-7.52,16.79-1.57,3.84-2.45,6.12a48.9,48.9,0,0,0,4.37-2.8,61.26,61.26,0,0,0,6.64-5.77,82.5,82.5,0,0,0,6.3-6.65A176.13,176.13,0,0,0,204.65,199,3.51,3.51,0,0,1,206.93,197.11Zm-42,2.54q.7-5.6-1-8.39-3.84-7-14.51,2.09a17.32,17.32,0,0,0-2.1,2.1A81.69,81.69,0,0,0,133.82,217,97.83,97.83,0,0,0,129.45,229a49.11,49.11,0,0,0-1.57,8.4q-.18,5.41,3,7.17a3,3,0,0,1,.87.17,12.15,12.15,0,0,0,6.65-.52q5.59-2.1,11-9.1a48,48,0,0,0,4-5.94,98.86,98.86,0,0,0,6.82-14Q164.25,204.91,165,199.65Z"/><path class="cls-1" d="M284.49,197.9a3.36,3.36,0,0,1,2.88.26,4.09,4.09,0,0,1,1.93,2.36,3.75,3.75,0,0,1-.18,3c-1.16,2.1-2.1,3.84-2.8,5.24q-3,5.43-4.72,8.57-5.6,9.45-10.67,16.79a122.49,122.49,0,0,1-13.11,15.74,63.33,63.33,0,0,1-8.57,7,27.84,27.84,0,0,1-5.25,2.62,5.17,5.17,0,0,1-2.62.7q-4,.52-11.72-4a5.68,5.68,0,0,0-.7-.53q-3.68-2.45-3.85-5.77v-.17a2.41,2.41,0,0,1,.18-1.58,19,19,0,0,1,1.92-6.12L245.4,195.1q.87-2.1,0-2.1l-.7.35a126.41,126.41,0,0,0-19.06,21.34q-7.53,10.67-16.44,33.75a20.2,20.2,0,0,0-1.4,7.61,14.52,14.52,0,0,0,2.1,7.61q1.57,2.1-2.28,2.8a16.15,16.15,0,0,1-12.24-3.5q-6.65-4.9-5.77-14,.7-17,22.91-67.86c.47-1.05.93-2.15,1.4-3.32l.79-.79a8,8,0,0,1,1.83-1.14,6.87,6.87,0,0,1,3.06-.69,9.26,9.26,0,0,1,4.2,1.39,21.86,21.86,0,0,1,5.16,4.2c0,.12.09.24.26.35a4,4,0,0,1,.79,1,6.47,6.47,0,0,1,.79,1.66A6.82,6.82,0,0,1,231,186a8.86,8.86,0,0,1-.78,3q-3.67,8.22-6.65,15.57A136.22,136.22,0,0,1,238.93,188q8-7.26,14.17-9.18a1.32,1.32,0,0,0,.52-.18,4.17,4.17,0,0,1,1.49-.17,6.35,6.35,0,0,1,2.27.44,9.57,9.57,0,0,1,2.71,1.83,16.47,16.47,0,0,1,3,3.67q4.9,7.88,2.63,12.95c-.59,1.28-1.34,3-2.28,5.24l-8,17.32q-5.25,11.53-7.52,17.14c-1,2.44-1.87,4.49-2.45,6.12a33.23,33.23,0,0,0,4.2-2.8,46.84,46.84,0,0,0,6.82-6,69.75,69.75,0,0,0,6.47-6.64,170.26,170.26,0,0,0,19.24-28.16A4.8,4.8,0,0,1,284.49,197.9Z"/><path class="cls-1" d="M364.67,197.11a4,4,0,0,1,3,.27,3.41,3.41,0,0,1,1.83,2.18,4.32,4.32,0,0,1-.26,3.06q-1.58,3-2.62,5.07-3,5.43-4.9,8.57a186.81,186.81,0,0,1-10.49,16.62,118.42,118.42,0,0,1-12.77,15.39,56.05,56.05,0,0,1-8.57,7.17,28.51,28.51,0,0,1-5.07,2.45,5.27,5.27,0,0,1-2.62.7c-2.69.35-6.53-1-11.55-4a2.41,2.41,0,0,1-.69-.52q-3.85-2.44-4-5.6v-.17a6.41,6.41,0,0,1,.18-1.58q-5.77,7.35-12.77,10.15h-.17a.72.72,0,0,1-.53.17q-11.72,4-19.41-7.52a29.1,29.1,0,0,1-2.45-5.07,37.21,37.21,0,0,1-1.92-9.79,33,33,0,0,1,0-4.9,31.41,31.41,0,0,1,.35-4.55,61.11,61.11,0,0,1,5.07-17,63.84,63.84,0,0,1,8.92-14.52c.81-1,1.69-2.1,2.62-3.14.81-.82,1.84-1.81,3.06-3a73.13,73.13,0,0,1,6-4.89,37.84,37.84,0,0,1,9.27-5.08A22.82,22.82,0,0,1,314,176a15.85,15.85,0,0,1,9.62,4,19.87,19.87,0,0,1,5.07,7.7l1.4-3.68c.81-1.51,1.57-3,2.27-4.54q2.26-3.49,7-1.23a26.13,26.13,0,0,1,5.33,3.33,13.68,13.68,0,0,1,3.67,4.54,5.41,5.41,0,0,1,.26,4.9,16,16,0,0,0-.87,2.1q-1.05,2.44-3.85,8.57L336,218.89q-5.07,11.37-7.52,16.79c-1.05,2.56-1.86,4.6-2.45,6.12a47.73,47.73,0,0,0,4.38-2.8,62.22,62.22,0,0,0,6.64-5.77,84.3,84.3,0,0,0,6.3-6.65A176.13,176.13,0,0,0,362.4,199,3.49,3.49,0,0,1,364.67,197.11Zm-42,2.54q.71-5.6-1.05-8.39-3.84-7-14.51,2.09a17.32,17.32,0,0,0-2.1,2.1A81.18,81.18,0,0,0,291.57,217,97.83,97.83,0,0,0,287.2,229a49.11,49.11,0,0,0-1.57,8.4q-.18,5.41,3,7.17a3.06,3.06,0,0,1,.87.17,12.15,12.15,0,0,0,6.65-.52q5.6-2.1,11-9.1a49.16,49.16,0,0,0,4-5.94,98.86,98.86,0,0,0,6.82-14Q322,204.91,322.7,199.65Z"/><path class="cls-1" d="M442.59,197.9a3.36,3.36,0,0,1,2.88.26,4.13,4.13,0,0,1,1.93,2.36,3.75,3.75,0,0,1-.18,3c-1.17,2.1-2.1,3.84-2.8,5.24q-3,5.43-4.72,8.57-5.59,9.45-10.67,16.79a122.49,122.49,0,0,1-13.11,15.74,63.33,63.33,0,0,1-8.57,7,27.84,27.84,0,0,1-5.25,2.62,5.17,5.17,0,0,1-2.62.7q-4,.52-11.72-4a5.68,5.68,0,0,0-.7-.53q-3.68-2.45-3.85-5.77v-.17a2.34,2.34,0,0,1,.18-1.58,19,19,0,0,1,1.92-6.12L403.5,195.1q.87-2.1,0-2.1l-.7.35a126.41,126.41,0,0,0-19.06,21.34q-7.53,10.67-16.44,33.75a20.2,20.2,0,0,0-1.4,7.61,14.52,14.52,0,0,0,2.1,7.61q1.58,2.1-2.28,2.8a16.15,16.15,0,0,1-12.24-3.5q-6.64-4.9-5.77-14,.71-17,22.91-67.86,10.67-24.3,23.79-51.07,3.13-4.36,8-1.57a24.41,24.41,0,0,1,4.9,3.32,11.82,11.82,0,0,1,2.62,3.15,8.71,8.71,0,0,1,.87,2.8,6.58,6.58,0,0,1,0,2.19,3.82,3.82,0,0,1-.52,1.31v.35q-11.71,24-21.16,45.64-4.2,9.11-7.52,17.32A134.65,134.65,0,0,1,397,188q8-7.26,14.16-9.18a1.35,1.35,0,0,0,.53-.18,4.17,4.17,0,0,1,1.49-.17,6.35,6.35,0,0,1,2.27.44,9.57,9.57,0,0,1,2.71,1.83,16.47,16.47,0,0,1,3,3.67q4.9,7.88,2.63,12.95-.89,1.92-2.28,5.24l-8,17.32q-5.09,11.53-7.52,17.14c-1.05,2.44-1.87,4.49-2.45,6.12a33.23,33.23,0,0,0,4.2-2.8,46.84,46.84,0,0,0,6.82-6,71,71,0,0,0,6.47-6.64,170.26,170.26,0,0,0,19.24-28.16A4.76,4.76,0,0,1,442.59,197.9Z"/><path class="cls-1" d="M533.09,196.68a3.5,3.5,0,0,1,1.49,2.71,3.68,3.68,0,0,1-1.14,2.88l-.7.7-3.67,3.68q-2.62,2.79-7.35,7a120.54,120.54,0,0,1-16.09,12.42,66.84,66.84,0,0,1-9.27,5.07c-1.28,2.22-2.51,4.14-3.67,5.77s-2.1,3-3.15,4.37c-1.28,1.52-2.51,2.92-3.67,4.2A51.29,51.29,0,0,1,477.3,253a39.18,39.18,0,0,1-10.84,5.42,35.85,35.85,0,0,1-13.12,1.4,30.22,30.22,0,0,1-6.47-1.4,28.53,28.53,0,0,1-6.65-3.15,25.62,25.62,0,0,1-5.77-5.42,24.6,24.6,0,0,1-3.67-7.17,29.41,29.41,0,0,1-1.22-7.17,40.33,40.33,0,0,1,.17-6.47,71.3,71.3,0,0,1,6.82-21.69q2.1-4.54,4.9-9.44c1.05-1.75,2-3.26,2.8-4.55l.52-.7q2.44-3.84,6.12-1.39l.18.17a32.41,32.41,0,0,1,5.59-7.52,33.74,33.74,0,0,1,22.74-10.67,37.91,37.91,0,0,1,6.3.18,28.94,28.94,0,0,1,3.14.52c1.05.24,2.16.53,3.33.88a20.69,20.69,0,0,1,6.29,3.49,17.92,17.92,0,0,1,4.55,5.6,26.27,26.27,0,0,1,2.45,6.12,25.58,25.58,0,0,1,.7,6.12,41,41,0,0,1-.88,11.19,53.9,53.9,0,0,1-2.8,10.15,96.15,96.15,0,0,0,14.17-9.8q3-2.44,7.17-6.47,1-1.22,4-4.19a3.64,3.64,0,0,1,2.63-1.32A3.31,3.31,0,0,1,533.09,196.68Zm-57,38.82c.11,0,.35-.17.7-.52a28.76,28.76,0,0,1-3.15-.53,25,25,0,0,1-5.95-1.75l-3-1.22a20.11,20.11,0,0,1-2.63-1.4,34.38,34.38,0,0,1-5.42-3.32,26.82,26.82,0,0,1-4.72-4.9v-.17c-.35.81-.64,1.57-.87,2.27a35.05,35.05,0,0,0-2.1,7.52,14.86,14.86,0,0,0-.18,6,9.63,9.63,0,0,0,.53,1.74,7.07,7.07,0,0,0,1.05,1.4,12.29,12.29,0,0,0,2.27,1.4,16.18,16.18,0,0,0,3.15,1.05,15,15,0,0,0,6.47,0Q469.09,241.81,476.08,235.5Zm17.84-30.43a36.85,36.85,0,0,0,.69-8.39,19,19,0,0,0-.69-3.68,7.67,7.67,0,0,0-1.23-2.79,7.49,7.49,0,0,0-1.92-1.93,11.86,11.86,0,0,0-2.45-.87,6.36,6.36,0,0,1-1.58-.18,8.57,8.57,0,0,0-1.74.18,12.07,12.07,0,0,0-3.5.52,20.17,20.17,0,0,0-11.37,7.87c-.7,1-1.28,2-1.75,2.8a12.37,12.37,0,0,0-1.22,3,15.16,15.16,0,0,0-.7,3,23.78,23.78,0,0,0-.18,2.62,39.36,39.36,0,0,0,1.05,5.42,16.7,16.7,0,0,0,3.32,5.95,5.91,5.91,0,0,0,1.4,1.57l.35.35.35.18a2.1,2.1,0,0,0,.7.7,9.9,9.9,0,0,0,3.15,1.57,17.38,17.38,0,0,0,7.7.87,11.36,11.36,0,0,0,1.92-.17q.52-.87,1-1.92A52,52,0,0,0,493.92,205.07Z"/><path class="cls-1" d="M591.85,197.9a3.54,3.54,0,0,1,3,.26,3.78,3.78,0,0,1,1.84,2.36,4.08,4.08,0,0,1-.26,3l-2.63,5.24q-3,5.43-4.89,8.57-5.43,9.45-10.67,16.79a114.27,114.27,0,0,1-12.94,15.74,64,64,0,0,1-8.57,7,27.84,27.84,0,0,1-5.25,2.62,5.17,5.17,0,0,1-2.62.7q-4,.52-11.72-4a2.54,2.54,0,0,1-.7-.53q-3.85-2.45-4-5.77v-.17a6.43,6.43,0,0,1,.17-1.58,22.46,22.46,0,0,1,2.1-6.12l8.57-22.21h-.18a26.7,26.7,0,0,1-4.54-1.22,24.37,24.37,0,0,1-4.72-2.1,25,25,0,0,1-4.55-3.32,23.51,23.51,0,0,1-3.5-4.9,18.76,18.76,0,0,1-1.92-5.6,28.44,28.44,0,0,1-.53-5.59,34.25,34.25,0,0,1,1.58-9.8,78.86,78.86,0,0,1,3.14-8.74q1.41-3,3-6.12a6.71,6.71,0,0,1,.87-1.05c.35-.35,1.25-.41,2.71-.18s3.12,1.29,5,3.15l.7.7c2.91,3,4.57,5,5,5.77s.15,2-.79,3.5c-.58.82-1.05,1.52-1.4,2.1q-4.37,6.64-5.42,11.72a11.57,11.57,0,0,0,.18,4.54.75.75,0,0,0,.17.53q2.44,5.41,15,6.47a8.72,8.72,0,0,0,1.75.17,17,17,0,0,1,7.87,2.45c1.87,1.29,2.16,3.32.88,6.12l-.7,1.58q-5.25,11.53-7.52,17.14c-1,2.44-1.87,4.49-2.45,6.12,1.51-.93,2.91-1.87,4.2-2.8a47.37,47.37,0,0,0,6.82-6,85.82,85.82,0,0,0,6.29-6.64,178.39,178.39,0,0,0,19.42-28.16A3.91,3.91,0,0,1,591.85,197.9Z"/><path class="cls-1" d="M628.31,196a3.54,3.54,0,0,1,3,.26,3.73,3.73,0,0,1,1.93,2.36,4.05,4.05,0,0,1-.26,3c-1.05,2.1-2,3.85-2.8,5.25q-2.8,5.43-4.72,8.57-5.43,9.45-10.67,16.79a124,124,0,0,1-13.12,15.74,51.18,51.18,0,0,1-8.57,7,23.24,23.24,0,0,1-5.07,2.63,6,6,0,0,1-2.62.7q-4,.52-11.72-4a2.69,2.69,0,0,0-.7-.53q-3.86-2.44-4-5.77v-.18a6.87,6.87,0,0,1,.17-1.57,14.68,14.68,0,0,0,.61-2.19,15,15,0,0,1,1-2.88c.12-.35.24-.7.35-1a34.11,34.11,0,0,0,1.58-4.2q.87-1.92,2.18-5.42t1.84-4.72q1.23-3.15,3.59-9.36t3.58-9.27q1.23-3.06,3.5-8.83l3.15-8c.35-.82.84-2,1.48-3.68s1.08-2.85,1.32-3.67l2.44-4.55q2.28-3.67,7-1.22a23.44,23.44,0,0,1,7.78,5.86q3.06,3.59,1.66,6.91l-.35.7a3.7,3.7,0,0,0-.26.7,3.88,3.88,0,0,1-.26.69q-1.05,2.46-4,8.75L599.37,218q-5.25,11.55-7.52,17.14l-2.63,6.12a49.16,49.16,0,0,0,4.38-2.79,47.37,47.37,0,0,0,6.82-5.95,84.18,84.18,0,0,0,6.29-6.65,177.59,177.59,0,0,0,19.41-28.15A3.91,3.91,0,0,1,628.31,196Zm-4.63-32.71q.35,1.93-2.54,5.07a15.42,15.42,0,0,1-6.65,4.38c-2.5.81-5,.17-7.6-1.93-2.1-2.33-3-4.63-2.71-6.91a10.87,10.87,0,0,1,2.53-5.85l2.1-2.28Q620.71,147.53,623.68,163.27Z"/><path class="cls-1" d="M709,197.11a4,4,0,0,1,3,.27,3.41,3.41,0,0,1,1.83,2.18,4.32,4.32,0,0,1-.26,3.06q-1.58,3-2.62,5.07-3,5.43-4.9,8.57a186.81,186.81,0,0,1-10.49,16.62,118.42,118.42,0,0,1-12.77,15.39,56.53,56.53,0,0,1-8.57,7.17,28.51,28.51,0,0,1-5.07,2.45,5.27,5.27,0,0,1-2.62.7q-4,.53-11.55-4a2.58,2.58,0,0,1-.7-.52q-3.84-2.44-4-5.6v-.17a6.41,6.41,0,0,1,.18-1.58q-5.78,7.35-12.77,10.15h-.18a.68.68,0,0,1-.52.17q-11.72,4-19.41-7.52a29.1,29.1,0,0,1-2.45-5.07,37.21,37.21,0,0,1-1.92-9.79,63.45,63.45,0,0,1,.34-9.45,61.48,61.48,0,0,1,5.08-17,63.84,63.84,0,0,1,8.92-14.52c.81-1,1.68-2.1,2.62-3.14.81-.82,1.84-1.81,3.06-3a73.13,73.13,0,0,1,6-4.89,37.84,37.84,0,0,1,9.27-5.08,22.82,22.82,0,0,1,9.8-1.57,15.85,15.85,0,0,1,9.62,4,20,20,0,0,1,5.07,7.7l1.4-3.68c.81-1.51,1.57-3,2.27-4.54q2.26-3.49,7-1.23a26.13,26.13,0,0,1,5.33,3.33,13.68,13.68,0,0,1,3.67,4.54,5.41,5.41,0,0,1,.26,4.9,16,16,0,0,0-.87,2.1q-1,2.44-3.85,8.57l-7.87,17.14q-5.07,11.37-7.52,16.79c-1.05,2.56-1.86,4.6-2.45,6.12a49.14,49.14,0,0,0,4.38-2.8,62.22,62.22,0,0,0,6.64-5.77,84.3,84.3,0,0,0,6.3-6.65A176.81,176.81,0,0,0,706.75,199,3.49,3.49,0,0,1,709,197.11Zm-42,2.54c.46-3.73.12-6.53-1-8.39q-3.84-7-14.51,2.09a17.32,17.32,0,0,0-2.1,2.1A81.18,81.18,0,0,0,635.92,217,96.21,96.21,0,0,0,631.55,229a50.18,50.18,0,0,0-1.58,8.4q-.16,5.41,3,7.17a3.06,3.06,0,0,1,.87.17,12.15,12.15,0,0,0,6.65-.52q5.6-2.1,11-9.1a49.16,49.16,0,0,0,4-5.94,100,100,0,0,0,6.82-14Q666.35,204.91,667.05,199.65Z"/><path class="cls-2" d="M154.84,100.74a31.72,31.72,0,0,1-12.05-13.17A37.93,37.93,0,0,1,139,69.24a39,39,0,0,1,4.59-18.37A34,34,0,0,1,156.12,37.6a34.82,34.82,0,0,1,18.48-4.91,30.81,30.81,0,0,1,16.64,4.45,31.18,31.18,0,0,1,11,11.43,30.39,30.39,0,0,1,4,14.45h-14.5a19.59,19.59,0,0,0-2.5-8.63,15.65,15.65,0,0,0-6-6,18.17,18.17,0,0,0-9-2.15,17.44,17.44,0,0,0-10.31,3.17,21.26,21.26,0,0,0-7,8.42,28.08,28.08,0,0,0-2.7,11.28,27.19,27.19,0,0,0,2.09,12,17.9,17.9,0,0,0,6.74,8A18.87,18.87,0,0,0,173.47,92,17.94,17.94,0,0,0,182,90a17.13,17.13,0,0,0,6.33-5.72,19.53,19.53,0,0,0,3.06-8.47h14.8a32.2,32.2,0,0,1-4.79,14.14A33.5,33.5,0,0,1,190,101.2a31.38,31.38,0,0,1-16.69,4.39A34.6,34.6,0,0,1,154.84,100.74Z"/><path class="cls-2" d="M231.87,32.69h20.32l24.2,71H260.46l-4.9-14.6H228.5l-4.59,14.6H207.27Zm19.91,44.72-10.11-29.2-9.8,29.2Z"/><path class="cls-2" d="M298.75,69.35v34.3H283.53v-71h15.22v32l31.54-32H350l-34.41,33.9,36.65,37.06H331.93Z"/><path class="cls-2" d="M350.91,32.69h49.21L400,45H366V62.3h29.81V74.76H366V91.09h35.22v12.56H350.81Z"/><path class="cls-2" d="M447.19,32.69h15.42v71H447.19Zm5.82,0h21.44a29.6,29.6,0,0,1,16.9,4.91,32,32,0,0,1,11.18,13,40.39,40.39,0,0,1,3.88,17.61,39.64,39.64,0,0,1-3.88,17.16A32.93,32.93,0,0,1,491.3,98.6a29.55,29.55,0,0,1-17.16,5.05h-24.5ZM473.12,91.2A16,16,0,0,0,482.87,88a20.15,20.15,0,0,0,6.64-8.83A29.25,29.25,0,0,0,491.6,67q-.3-10.41-5.26-16.23T473,45H456.79l1,46.25Z"/><path class="cls-2" d="M514.88,32.69h49.21L564,45H530V62.3H559.8V74.76H530V91.09h35.22v12.56H514.78Z"/><path class="cls-2" d="M644.17,38.14a9.87,9.87,0,0,1-7.33,15.25,9.46,9.46,0,0,1-2.6-.11c-5.35-.91-10.16-8.11-9.3-13.85a9.73,9.73,0,0,1,10.77-8.26C639.56,31.55,642,33.58,644.17,38.14Z"/><path class="cls-2" d="M610.27,59.36c2.59,5.51,2,9.63-1.92,12.79a9.52,9.52,0,0,1-13.78-1.36c-4-4.75-4.51-10.63-1.42-14.81a9.63,9.63,0,0,1,16.1,1.23C609.62,57.92,609.93,58.65,610.27,59.36Z"/><path class="cls-2" d="M596.77,93.48c1.63,4,.9,7.51-2,9.78a7.52,7.52,0,0,1-9.09,0c-2.65-2-4.35-6.85-3.48-9.95a7.12,7.12,0,0,1,6.2-5.35C592,87.51,595.17,89.63,596.77,93.48Z"/><path class="cls-2" d="M604.55,97C602,93,604,88,608,86c3.72-1.86,8.45.24,10.43,4.43,2.1,4.45.75,8.75-3.35,10.69C610.78,103.18,606.73,101.57,604.55,97Z"/><path class="cls-2" d="M586.65,72.58c1.43,3,.6,5.84-2.12,7.14-2.55,1.21-5.57-.14-6.88-3.09s-.35-5.81,2.17-7A5,5,0,0,1,586.65,72.58Z"/><path class="cls-2" d="M635.1,65.88c1.51,3.23.83,5.86-1.86,7.16s-5.29,0-6.75-3.08-.76-5.9,1.92-7.13S633.62,62.71,635.1,65.88Z"/><path class="cls-2" d="M613.26,32.28c1.46,3.09.61,5.8-2.22,7.08-2.58,1.16-5.24,0-6.66-2.94-1.31-2.7-.42-5.91,2-7.11C608.92,28,611.86,29.29,613.26,32.28Z"/><path class="cls-2" d="M82.41,25.51a9.87,9.87,0,0,0,.85,16.9,9.47,9.47,0,0,0,2.45.9c5.28,1.23,12.5-3.55,13.92-9.17A9.73,9.73,0,0,0,92.9,22.35C89.2,21.21,86.15,22.13,82.41,25.51Z"/><path class="cls-2" d="M105.45,58.19c-4.52,4.07-5.54,8.11-3.18,12.53a9.53,9.53,0,0,0,13.24,4.08c5.47-2.85,8.27-8,7-13.1a9.64,9.64,0,0,0-15.33-5.1C106.61,57.11,106,57.66,105.45,58.19Z"/><path class="cls-2" d="M104.7,94.88c-3,3-3.73,6.57-1.93,9.79a7.52,7.52,0,0,0,8.39,3.5c3.2-.8,6.66-4.63,7.06-7.83A7.12,7.12,0,0,0,114.57,93C111.42,91.23,107.66,91.94,104.7,94.88Z"/><path class="cls-2" d="M96.19,95.07c3.87-2.68,4-8,1-11.41-2.71-3.16-7.88-3.06-11.33,0-3.66,3.29-4.08,7.78-1.05,11.16C88,98.4,92.39,98.48,96.19,95.07Z"/><path class="cls-2" d="M122.12,79.52c-2.5,2.25-2.82,5.15-.81,7.4s5.19,2,7.54-.18,2.57-5.23.73-7.34A5,5,0,0,0,122.12,79.52Z"/><path class="cls-2" d="M80,54.6c-2.64,2.39-3,5.08-1,7.32s4.86,2.08,7.42-.23,3-5.15,1-7.32S82.62,52.24,80,54.6Z"/><path class="cls-2" d="M113.17,32.06c-2.54,2.29-2.81,5.11-.69,7.38,1.93,2.08,4.84,2,7.28-.12,2.26-2,2.68-5.29.93-7.32S115.62,29.85,113.17,32.06Z"/></svg>