<svg id="Capa_1" data-name="Capa 1" xmlns="http://www.w3.org/2000/svg" viewBox="0 0 943 357"><defs><style>.cls-1{fill:#00426a;}.cls-2{fill:#c52110;}</style></defs><path class="cls-1" d="M79,59H93.2V125.3H79Z"/><path class="cls-1" d="M116.44,122.58a29.56,29.56,0,0,1-11.26-12.32,35.28,35.28,0,0,1-3.58-17.13,36.55,36.55,0,0,1,4.29-17.19,31.89,31.89,0,0,1,11.74-12.4A32.58,32.58,0,0,1,134.91,59,28.9,28.9,0,0,1,160.78,73.8a28.26,28.26,0,0,1,3.72,13.51H151a18.25,18.25,0,0,0-2.34-8.07A14.68,14.68,0,0,0,143,73.65a17.11,17.11,0,0,0-8.45-2,16.33,16.33,0,0,0-9.64,3,19.89,19.89,0,0,0-6.54,7.87A26.43,26.43,0,0,0,115.82,93a25.27,25.27,0,0,0,2,11.22,16.77,16.77,0,0,0,6.3,7.49,17.68,17.68,0,0,0,9.78,2.68,16.79,16.79,0,0,0,7.92-1.91,15.94,15.94,0,0,0,5.92-5.35,18.29,18.29,0,0,0,2.87-7.92h13.84a30.16,30.16,0,0,1-4.49,13.22A31.41,31.41,0,0,1,149.28,123a29.44,29.44,0,0,1-15.61,4.1A32.31,32.31,0,0,1,116.44,122.58Z"/><path class="cls-1" d="M171.57,59h46l-.1,11.46H185.69V86.64h27.88V98.28H185.69v15.28h32.94V125.3H171.47Z"/><path class="cls-1" d="M266.26,70.5H243.64V59h59.47V70.5H280.48v54.8H266.26Z"/><path class="cls-1" d="M306.35,59h46l-.09,11.46H320.48V86.64h27.88V98.28H320.48v15.28h32.94V125.3H306.26Z"/><path class="cls-1" d="M384.63,59H399V125.3H384.63Zm5.44,0h20.05a27.67,27.67,0,0,1,15.8,4.59,29.94,29.94,0,0,1,10.45,12.17A37.63,37.63,0,0,1,440,92.17a36.92,36.92,0,0,1-3.63,16,30.75,30.75,0,0,1-10.5,12.36,27.62,27.62,0,0,1-16,4.73H386.92Zm18.81,54.7a14.88,14.88,0,0,0,9.11-3,18.88,18.88,0,0,0,6.21-8.25A27.4,27.4,0,0,0,426.15,91q-.28-9.73-4.91-15.18t-12.46-5.44H393.6l1,43.24Z"/><path class="cls-1" d="M447.92,59h46l-.1,11.46H462V86.64h27.88V98.28H462v15.28H495V125.3H447.82Z"/><path class="cls-1" d="M525.05,59h45.44V71.08H539.37V91.51h28.06l-.09,12h-28V125.3H525.05Z"/><path class="cls-1" d="M576.31,59h14.32V125.3H576.31Zm9.16,35.51L585.19,59h14.7a30.37,30.37,0,0,1,14,2.87,21.73,21.73,0,0,1,9.07,7.92,21,21,0,0,1,3.2,11,19.58,19.58,0,0,1-5.06,13.51q-5,5.38-14,6.73l23.57,24.34H613.25Zm13.46-2.19q6,0,9.45-3A9.9,9.9,0,0,0,611.63,81c-.19-3.43-1.4-6-3.63-7.63s-5.22-2.48-9-2.48H588.24l.1,21.38Z"/><path class="cls-1" d="M640.6,119.09q-8.26-8-8.26-24.63V59h14.13V94q0,10.68,4.49,15.32t12.69,4.63q8.31,0,12.84-4.92T681,94V59h14.51v35.9q0,10.22-3.77,17.42a25.73,25.73,0,0,1-11,11q-7.21,3.83-17.42,3.82Q648.85,127.11,640.6,119.09Z"/><path class="cls-1" d="M720.93,70.5H698.3V59h59.47V70.5H735.15v54.8H720.93Z"/><path class="cls-1" d="M771.23,122.62a29.58,29.58,0,0,1-11.59-12.17,35.5,35.5,0,0,1-3.77-17.32,36.28,36.28,0,0,1,4.48-17,32.74,32.74,0,0,1,12.08-12.51,37.22,37.22,0,0,1,35.79-.19,29.87,29.87,0,0,1,11.6,12.27,35.73,35.73,0,0,1,3.82,17.42A35.39,35.39,0,0,1,819,110.36a32.71,32.71,0,0,1-12.31,12.26,37.17,37.17,0,0,1-35.42,0Zm28.45-11a19.79,19.79,0,0,0,7-7.83,25.32,25.32,0,0,0,.52-21.57,17.92,17.92,0,0,0-6.63-7.78A18.8,18.8,0,0,0,790,71.55a17.94,17.94,0,0,0-10.21,3,20.31,20.31,0,0,0-7,8,25.3,25.3,0,0,0-2.68,10.6,24.34,24.34,0,0,0,2.06,11.07,17,17,0,0,0,6.63,7.59,19.2,19.2,0,0,0,10.31,2.72A18.86,18.86,0,0,0,799.68,111.6Z"/><path class="cls-1" d="M842.64,124a26.32,26.32,0,0,1-10.84-8.54,22.44,22.44,0,0,1-4.25-12h13.94a13.48,13.48,0,0,0,5.11,8.49q4.15,3.25,11.12,3.44,7.35.19,11.69-2.24t4.54-6.54c.06-2.48-1.16-4.41-3.68-5.78s-6.67-2.27-12.46-2.72q-13.37-1.34-20.19-6.3a15.65,15.65,0,0,1-6.73-13.55,16.22,16.22,0,0,1,3.82-10,23.69,23.69,0,0,1,9.79-6.82,39.52,39.52,0,0,1,28.68.52A26.57,26.57,0,0,1,883.68,70a24.86,24.86,0,0,1,4.87,11.64l-14-.09a12.64,12.64,0,0,0-5.3-7.69q-4.25-3-11-3a20.46,20.46,0,0,0-7,1.09,10.51,10.51,0,0,0-4.58,3A6.34,6.34,0,0,0,845,79.1,5.84,5.84,0,0,0,847.74,84q2.63,1.77,8.64,2.44l2,.19q16,1.42,23.05,6.44a15.82,15.82,0,0,1,7.11,13.32,17.21,17.21,0,0,1-3.48,10.45,23.26,23.26,0,0,1-10.31,7.49,42.56,42.56,0,0,1-16.09,2.77A38.54,38.54,0,0,1,842.64,124Z"/><path class="cls-2" d="M460.11,281.33a8.76,8.76,0,0,1,1.88-1.72,3.87,3.87,0,0,1,1.55-.65,2.52,2.52,0,0,1,1.15.08,1.46,1.46,0,0,1,.73.49,7.92,7.92,0,0,1,.49.74,4.12,4.12,0,0,1,.41.9,21.12,21.12,0,0,1-2.7,9.65,28.83,28.83,0,0,1-4.66,6.62,40.57,40.57,0,0,1-4.41,3.68l-1,.65c-.88.55-1.8,1.09-2.78,1.64A65.28,65.28,0,0,1,438.36,309c-2,.54-3.11.87-3.43,1l-3.44.82c-.65.1-1.8.27-3.43.49-.11,0-1.31.1-3.6.32a23.5,23.5,0,0,1-3.6.17h-1.8l-1.79-.17-1.8-.16-1.8-.16-1.8-.17a4.67,4.67,0,0,0-1.15-.32h-.49q-3.11-.66-7-1.8c-1.63-.55-2.72-.93-3.27-1.15-2.07-.87-3.16-1.31-3.27-1.31a69.49,69.49,0,0,1-12.1-6.86,89,89,0,0,1-10.46-8.51c-1.31-1.09-3-2.61-4.91-4.58l-2.13-2.45c-.21-.22-.46-.46-.73-.73s-.55-.58-.82-.9-.52-.6-.73-.82a104.86,104.86,0,0,1-8-10.14l-2-2.62-1.8-2.61q-2.13-3.44-3.43-5.56-2.94-4.74-6.22-11-1.8-3.59-3.76-7.52-3.91,9.31-7.27,18.07a145.65,145.65,0,0,0-5.81,19.38q-2.44,10.62-.16,14.06a5.65,5.65,0,0,0,.82,1.63q1.62,2.3-2.29,2.78-6.37.82-12.27-3.59-6.71-5.4-5.56-14.56.33-6.21,3.44-16L318,243.4q.81-2.13,1.8-4.42a52.56,52.56,0,0,1-5.89,0,29.92,29.92,0,0,1-9.24-1.31c-2-.76-2.92-1.72-2.7-2.86a7.32,7.32,0,0,1,1.72-3.35,20.89,20.89,0,0,1,4-3.44,23.7,23.7,0,0,1,11.44-4.25l7.69-1q1.14-2.78,2.62-5.89l2.45-5.23c1-2.07,2-4.19,2.94-6.38q8.5-17.82,18.64-37.6a1.73,1.73,0,0,0,.33-.58,12.05,12.05,0,0,1,.82-1.47,12.73,12.73,0,0,1,1.39-1.88,11,11,0,0,1,2.12-1.72,10.34,10.34,0,0,1,3-1.3,12,12,0,0,1,3.84-.25,15.67,15.67,0,0,1,4.74,1.15q6,5.24,3.76,10.46l-.16.16v.17Q361,195.82,351,217.23q6.38-2,12.43-4.41a146.16,146.16,0,0,0,17.66-8.34,148.55,148.55,0,0,0,14.8-9.32q6.29-4.57,12.1-9.65t9.56-9.08q3.77-4,7-8.09,1.63-2,3.11-3.93a22.2,22.2,0,0,0,3-6.78,9.06,9.06,0,0,0-1.8-8.83,9.87,9.87,0,0,0-2.7-2.45c-.88-.49-1.75-1-2.62-1.39a48,48,0,0,0-8.5-2.29,115.68,115.68,0,0,0-20.44-1.31q-5.24.16-10.14.65-5.07.66-10,1.47a128.25,128.25,0,0,0-19.46,5.4,132.32,132.32,0,0,0-18.32,7.85q-5.24,2.78-8.66,4.91a92.62,92.62,0,0,0-8.34,5.39q-4.1,2.79-7.85,5.89-3.93,3.27-7.36,6.7a82.78,82.78,0,0,0-12.26,14.88,52,52,0,0,0-3.93,7.85,18.89,18.89,0,0,0-1.06,3.68,10.32,10.32,0,0,0-.08,2.86,3.63,3.63,0,0,0,.49,1.31,1.06,1.06,0,0,0,.49.49,1.88,1.88,0,0,1,.49.33l.16.16h.33l.33.17a21.27,21.27,0,0,0,8.17.81,36,36,0,0,0,4.58-.65c1.53-.33,3.11-.71,4.74-1.15,1.09-.32,2.62-.87,4.58-1.63.87-.33,1.69-.66,2.45-1l2.13-1,.16-.17a3.34,3.34,0,0,1,2.7-.16,3.68,3.68,0,0,1,2.05,1.63c1,1.86.7,3.38-.82,4.58a22.39,22.39,0,0,1-2.29,1.8c-.76.55-1.58,1.09-2.45,1.64a49.35,49.35,0,0,1-4.91,2.94,46.56,46.56,0,0,1-11.12,4.25,31.43,31.43,0,0,1-13.08.49l-.82-.16-.49-.16-.49-.17a7.16,7.16,0,0,1-2-.65,14.39,14.39,0,0,1-3.93-2.29,17.83,17.83,0,0,1-2.2-2.29,14.19,14.19,0,0,1-1.72-2.62,21,21,0,0,1-1.14-2.78,20.31,20.31,0,0,1-.82-7.85,36.5,36.5,0,0,1,1-6.7,53.47,53.47,0,0,1,4.58-11.61,88.67,88.67,0,0,1,13.73-19,114.28,114.28,0,0,1,8.18-8q4.25-3.76,9-7.2,4.26-3.1,9.49-6.37,5.71-3.27,10.13-5.24c.22-.1.58-.29,1.07-.57s1.55-.76,3.19-1.47,3.35-1.39,5.15-2,4.14-1.45,7-2.37,5.78-1.72,8.67-2.38,6.32-1.33,10.3-2a110.37,110.37,0,0,1,11.93-1.47q6-.41,13.25-.57a107.45,107.45,0,0,1,14.47.65,84.11,84.11,0,0,1,12,1.72,66.71,66.71,0,0,1,9.07,2.61,37.41,37.41,0,0,1,6.55,3.27,38,38,0,0,1,4.49,3.27,17.46,17.46,0,0,1,2.7,3c.76,1.09,1.23,1.77,1.39,2a5.26,5.26,0,0,1,.41.9,17.24,17.24,0,0,1,1.55,6.14,23.67,23.67,0,0,1-.49,6.78,46.92,46.92,0,0,1-2,6.71,45.07,45.07,0,0,1-3.11,6.54c-1.25,2.18-2.4,4.08-3.43,5.72s-2.16,3.27-3.35,4.9a146,146,0,0,1-18.32,19.71,129.32,129.32,0,0,1-20.36,15A170.73,170.73,0,0,1,371,227.12,156.67,156.67,0,0,1,351,234.07q2.77,4.59,5.07,8.18,7,10.47,13.9,19.13,3.92,4.74,7.68,8.67a91.36,91.36,0,0,0,8.18,7.85q4.41,3.75,8.83,6.87A88.86,88.86,0,0,0,404,290a53.43,53.43,0,0,0,20,4.74,46.9,46.9,0,0,0,10.46-.82,13.07,13.07,0,0,0,2.78-.49l2.62-.65a3.06,3.06,0,0,1,.82-.25,7,7,0,0,0,1-.24,6.3,6.3,0,0,0,.82-.33l2.61-.82,3.11-1.14A34.82,34.82,0,0,0,460.11,281.33Z"/><path class="cls-2" d="M514.4,206.28a3.28,3.28,0,0,1,1.39,2.53,3.44,3.44,0,0,1-1.07,2.7l-.65.65-3.44,3.44q-2.44,2.61-6.86,6.54a113.15,113.15,0,0,1-15,11.61,63.86,63.86,0,0,1-8.66,4.74q-1.8,3.1-3.44,5.4c-1,1.41-2,2.78-2.94,4.08-1.2,1.42-2.35,2.73-3.43,3.93a48.18,48.18,0,0,1-8,7A36.76,36.76,0,0,1,452.09,264a33.56,33.56,0,0,1-12.26,1.31,28.88,28.88,0,0,1-6.05-1.31,27,27,0,0,1-6.21-2.94,23.89,23.89,0,0,1-5.4-5.07,22.8,22.8,0,0,1-3.43-6.71,27.58,27.58,0,0,1-1.15-6.7,38.54,38.54,0,0,1,.16-6.05,66.59,66.59,0,0,1,6.38-20.28q2-4.25,4.58-8.83,1.47-2.44,2.62-4.25l.49-.65q2.28-3.6,5.72-1.31l.17.16a30,30,0,0,1,5.23-7,31.49,31.49,0,0,1,21.25-10,36.21,36.21,0,0,1,5.89.17A27.31,27.31,0,0,1,473,185c1,.22,2,.49,3.11.82a19.4,19.4,0,0,1,5.89,3.27,16.61,16.61,0,0,1,4.25,5.23,24.34,24.34,0,0,1,2.29,5.72,24,24,0,0,1,.65,5.73,38.38,38.38,0,0,1-.81,10.46,51.58,51.58,0,0,1-2.62,9.48A89.37,89.37,0,0,0,499,216.58q2.79-2.29,6.71-6.05,1-1.14,3.76-3.93a3.34,3.34,0,0,1,2.45-1.22A3.06,3.06,0,0,1,514.4,206.28Zm-53.31,36.3c.11,0,.33-.17.65-.49a27.31,27.31,0,0,1-2.94-.49,23.22,23.22,0,0,1-5.56-1.64l-2.78-1.14a19.27,19.27,0,0,1-2.45-1.31,30.49,30.49,0,0,1-5.07-3.11,24.4,24.4,0,0,1-4.42-4.58v-.16c-.32.76-.6,1.47-.81,2.12a32.61,32.61,0,0,0-2,7,14,14,0,0,0-.16,5.56,9.18,9.18,0,0,0,.49,1.63,6.75,6.75,0,0,0,1,1.31,11.65,11.65,0,0,0,2.13,1.31,16.1,16.1,0,0,0,2.94,1,14,14,0,0,0,6.05,0Q454.55,248.47,461.09,242.58Zm16.68-28.46a34.73,34.73,0,0,0,.65-7.84,18.05,18.05,0,0,0-.65-3.44,7,7,0,0,0-1.15-2.61,6.69,6.69,0,0,0-1.8-1.8,10.89,10.89,0,0,0-2.29-.82,6.08,6.08,0,0,1-1.47-.16,8.19,8.19,0,0,0-1.63.16,11.23,11.23,0,0,0-3.27.49,18.82,18.82,0,0,0-10.63,7.36c-.66,1-1.2,1.85-1.64,2.61a12,12,0,0,0-1.14,2.78,14.61,14.61,0,0,0-.66,2.78,22.71,22.71,0,0,0-.16,2.46,37.87,37.87,0,0,0,1,5.07,15.66,15.66,0,0,0,3.11,5.56,5.64,5.64,0,0,0,1.31,1.47l.32.32.33.17a1.9,1.9,0,0,0,.65.65,9.17,9.17,0,0,0,2.95,1.47,16.24,16.24,0,0,0,7.19.82,10.8,10.8,0,0,0,1.8-.16c.33-.55.66-1.15,1-1.8A48.34,48.34,0,0,0,477.77,214.12Z"/><path class="cls-2" d="M548.32,206a3.6,3.6,0,0,1,2.78.33,3.44,3.44,0,0,1,1.8,2.12,3.62,3.62,0,0,1-.24,2.7c-.11.22-.33.6-.66,1.15a3.4,3.4,0,0,0-.49,1c-.11.22-.27.52-.49.9s-.38.68-.49.9l-1.64,2.94v.16h-.16q-2,3.6-3.43,6a.48.48,0,0,1-.17.33,105.08,105.08,0,0,1-22.72,26.49q-10.63,9-21.26,11.77l-.17.33q-5.22,9.81-10,17.5a155.24,155.24,0,0,1-11.94,16.84q-3.44,4.25-6.87,7.85a55.37,55.37,0,0,1-7.84,7.36,47,47,0,0,1-9.32,5.88q-9.5,4.09-16-2.61c-3.7-3.82-5.4-7.52-5.07-11.12a16.69,16.69,0,0,1,.49-2.29,23.41,23.41,0,0,1,2.62-5.89,41.34,41.34,0,0,1,3.43-4.58,53.32,53.32,0,0,1,7.52-7.35q3.6-3,8.18-6.22,7.68-5.4,22.4-14.72,3.93-4.24,9-13.65t9.56-19.7q4.5-10.3,8.42-20t6.22-16.11l2.45-6.21.16-.66.33-.65q2-3.6,8.18.82,8.65,6.38,6.37,12.42l-3.6,9.16q-4.89,11.94-7.68,18.15-3.11,7.37-6.38,14.39l-4.41,9.16a50,50,0,0,0,14.06-9.65q3.11-2.94,5.89-6.05A152.13,152.13,0,0,0,542,214.78l2.12-3.43,2-3.6A3.81,3.81,0,0,1,548.32,206Zm-84,80q1.47-1.8,2.94-3.92c-2.18,1.52-4,2.89-5.4,4.09q-4.08,3.27-7.19,6.05a61.57,61.57,0,0,0-6,6.54q-2.94,3.75-3.27,6.54v1.14q.81-.64,1.47-1.14a63.63,63.63,0,0,0,5.89-5.56c1.85-2,3.81-4.15,5.88-6.54S462.5,288.58,464.36,286.07Zm74.89-111c.32,1.2-.41,2.78-2.21,4.75a14.4,14.4,0,0,1-6.21,4.08q-3.52,1.15-7.12-1.8c-2-2.17-2.8-4.33-2.53-6.45a10.18,10.18,0,0,1,2.37-5.48l2-2.13Q536.63,160.33,539.25,175Z"/><path class="cls-2" d="M632.45,206.28a3.25,3.25,0,0,1,1.39,2.53,3.44,3.44,0,0,1-1.06,2.7l-.66.65-3.43,3.44q-2.45,2.61-6.87,6.54a113.12,113.12,0,0,1-15,11.61,63.34,63.34,0,0,1-8.67,4.74q-1.8,3.1-3.43,5.4c-1,1.41-2,2.78-2.94,4.08-1.21,1.42-2.35,2.73-3.44,3.93a48.53,48.53,0,0,1-8,7A36.76,36.76,0,0,1,570.15,264a33.56,33.56,0,0,1-12.26,1.31,28.74,28.74,0,0,1-6-1.31,27,27,0,0,1-6.22-2.94,23.84,23.84,0,0,1-5.39-5.07,23.08,23.08,0,0,1-3.44-6.71,28.06,28.06,0,0,1-1.14-6.7,37.36,37.36,0,0,1,.16-6.05,66.59,66.59,0,0,1,6.38-20.28q2-4.25,4.58-8.83,1.47-2.44,2.61-4.25l.49-.65q2.29-3.6,5.73-1.31l.16.16a30.27,30.27,0,0,1,5.23-7,31.51,31.51,0,0,1,21.26-10,36.24,36.24,0,0,1,5.89.17,27.31,27.31,0,0,1,2.94.49c1,.22,2,.49,3.11.82a19.23,19.23,0,0,1,5.88,3.27,16.51,16.51,0,0,1,4.26,5.23,24.34,24.34,0,0,1,2.29,5.72,24,24,0,0,1,.65,5.73,38.39,38.39,0,0,1-.82,10.46,51.53,51.53,0,0,1-2.61,9.48,89.89,89.89,0,0,0,13.24-9.15q2.77-2.29,6.71-6.05,1-1.14,3.76-3.93a3.34,3.34,0,0,1,2.45-1.22A3,3,0,0,1,632.45,206.28Zm-53.31,36.3c.11,0,.33-.17.66-.49a27.91,27.91,0,0,1-2.95-.49,23.35,23.35,0,0,1-5.56-1.64l-2.77-1.14a19.93,19.93,0,0,1-2.46-1.31A31.34,31.34,0,0,1,561,234.4a24.65,24.65,0,0,1-4.41-4.58v-.16c-.33.76-.6,1.47-.82,2.12a33.12,33.12,0,0,0-2,7,14,14,0,0,0-.17,5.56,9.23,9.23,0,0,0,.5,1.63,6.37,6.37,0,0,0,1,1.31,11.88,11.88,0,0,0,2.12,1.31,16,16,0,0,0,2.95,1,14,14,0,0,0,6.05,0Q572.61,248.47,579.14,242.58Zm16.68-28.46a34.79,34.79,0,0,0,.66-7.84,17.31,17.31,0,0,0-.66-3.44,7.16,7.16,0,0,0-1.14-2.61,7,7,0,0,0-1.8-1.8,11.1,11.1,0,0,0-2.29-.82,6,6,0,0,1-1.47-.16,8.29,8.29,0,0,0-1.64.16,11.23,11.23,0,0,0-3.27.49,18.85,18.85,0,0,0-10.63,7.36c-.65,1-1.2,1.85-1.63,2.61a11.65,11.65,0,0,0-1.15,2.78,15.34,15.34,0,0,0-.65,2.78,22.71,22.71,0,0,0-.16,2.46,36.35,36.35,0,0,0,1,5.07,15.51,15.51,0,0,0,3.11,5.56,5.6,5.6,0,0,0,1.3,1.47l.33.32.33.17a1.73,1.73,0,0,0,.65.65,9,9,0,0,0,2.94,1.47,16.28,16.28,0,0,0,7.2.82,11,11,0,0,0,1.8-.16c.33-.55.65-1.15,1-1.8A48.31,48.31,0,0,0,595.82,214.12Z"/><path class="cls-2" d="M687.15,207.42a3.14,3.14,0,0,1,2.7.25,3.78,3.78,0,0,1,1.79,2.2,3.48,3.48,0,0,1-.16,2.78c-1.09,2-2,3.6-2.61,4.91q-2.79,5.07-4.42,8-5.24,8.84-10,15.7-14.9,19.29-33.2,23.38a47.49,47.49,0,0,1-9.32.9,30.88,30.88,0,0,1-6.05-.57l-2.29-.65a20.2,20.2,0,0,1-2-.66,22.44,22.44,0,0,1-5.07-3.27,20.71,20.71,0,0,1-5.56-9.32,33.46,33.46,0,0,1-1.47-9.48,3.17,3.17,0,0,1,.9-2.7,3.45,3.45,0,0,1,2.53-1.06,4.16,4.16,0,0,1,1.72.32,3.85,3.85,0,0,1,1.31,1,3.1,3.1,0,0,1,.73,1.47v.17A28.16,28.16,0,0,0,619,248a11.7,11.7,0,0,0,3.93,4.58,8.23,8.23,0,0,0,5.07,1.31,13.3,13.3,0,0,0,2.69-.65,14,14,0,0,0,2.7-1.31,13.56,13.56,0,0,0,3.6-3.11,12,12,0,0,0,2.37-5.72,13.46,13.46,0,0,0-.57-6,35.73,35.73,0,0,0-2.05-5,30.86,30.86,0,0,0-2.37-3.84c-.32-.44-.71-.93-1.14-1.47a38.53,38.53,0,0,1-4.25-7.36,16.07,16.07,0,0,1-1-2.46,7.36,7.36,0,0,1-.5-1.3l-.32-1.31c-.11-.55-.33-1.47-.66-2.78-.11-1.2-.22-2.18-.32-2.95a25.55,25.55,0,0,1,.32-5.88,22,22,0,0,1,1.8-5.89,19.26,19.26,0,0,1,7.85-9,14.71,14.71,0,0,1,12.1-2.13,13.73,13.73,0,0,1,5.56,3,21.17,21.17,0,0,1,3.6,4.41c.11.22.27.55.49,1l2-3.43,3.27-4.91c.55-.54,1.25-.54,2.13,0q0,.17.9.66a13.61,13.61,0,0,1,1.47.9c.38.27.92.68,1.63,1.22a11.35,11.35,0,0,1,1.56,1.39l1.22,1.47a1.71,1.71,0,0,1,.49,1.64c-.16.49-.35,1-.57,1.55-.54.88-1.47,2.18-2.78,3.93s-2.45,3.24-3.43,4.49A49,49,0,0,0,663,207a16.72,16.72,0,0,0-1.88,3.76,2.9,2.9,0,0,0,0,2.37l1.31,2.29c-.12.44-.66.66-1.64.66a8,8,0,0,1-2.78-.49,8.32,8.32,0,0,1-3.68-3,7.8,7.8,0,0,1-1.39-4.5,25.34,25.34,0,0,1,.82-4.41l-.17-.65a6.42,6.42,0,0,0-.32-.82,11.4,11.4,0,0,0-.82-1.64,16.43,16.43,0,0,0-1.8-3.1,7.08,7.08,0,0,0-2.12-2,4.44,4.44,0,0,0-2.13-.65h-1c-.33.11-.71.22-1.15.33a10.39,10.39,0,0,0-2,1.3,6.31,6.31,0,0,0-2.12,4.42,10.12,10.12,0,0,0,.81,5.23,23.91,23.91,0,0,0,3.11,5.24,57.7,57.7,0,0,0,4.25,5.23l1.15,1.31c1,1.2,1.58,2,1.8,2.29a27.39,27.39,0,0,1,3.1,4.74,28.06,28.06,0,0,1,3.27,11.77,26.41,26.41,0,0,1-1.31,9.16,42,42,0,0,0,4.58-4.25,65.6,65.6,0,0,0,6.05-6.22,158.9,158.9,0,0,0,18-26.32A4.42,4.42,0,0,1,687.15,207.42Z"/><path class="cls-1" d="M720.21,183.49a61.46,61.46,0,0,1,8.54-.34c4.45.32,7.44,3,9.19,7.1,2.31,5.33.21,10.19-5.54,12.33a14.09,14.09,0,0,1-6,.92,53.74,53.74,0,0,1-19.59-5.23c-3.07-1.53-3.49-3.25-1.05-5.58A39.08,39.08,0,0,1,720.21,183.49Z"/><path class="cls-1" d="M716.52,162.64a8.16,8.16,0,0,1-1,7.79,42.94,42.94,0,0,1-6.07,6.91c-2.82,2.61-5.94,4.88-8.93,7.3-1.66,1.34-2.63,1.12-2.75-1a34.32,34.32,0,0,1,.33-8.54A116,116,0,0,1,701.61,162a7.83,7.83,0,0,1,5-5C710.53,155.64,715,158.18,716.52,162.64Z"/><path class="cls-1" d="M51,52a61.46,61.46,0,0,0-8.54-.34c-4.45.32-7.44,3-9.19,7.1-2.31,5.34-.21,10.19,5.54,12.34a14.26,14.26,0,0,0,6,.91,53.68,53.68,0,0,0,19.58-5.23c3.07-1.53,3.5-3.25,1-5.58A39.08,39.08,0,0,0,51,52Z"/><path class="cls-1" d="M54.66,31.12a8.19,8.19,0,0,0,1,7.8,42.88,42.88,0,0,0,6.08,6.9c2.81,2.61,5.93,4.88,8.92,7.3,1.66,1.35,2.63,1.12,2.76-1a34.32,34.32,0,0,0-.34-8.54,116,116,0,0,0-3.48-13.07,7.83,7.83,0,0,0-5-5C60.66,24.12,56.18,26.66,54.66,31.12Z"/></svg>