<svg id="Capa_1" data-name="Capa 1" xmlns="http://www.w3.org/2000/svg" viewBox="0 0 766 238"><defs><style>.cls-1{fill:#2f6a56;stroke:#658370;stroke-miterlimit:10;}.cls-2{fill:#f2d66d;}.cls-3{fill:#00b2e2;}.cls-4,.cls-5,.cls-7,.cls-8{fill:#fff;}.cls-4,.cls-7{stroke:#2f6a56;stroke-linecap:round;stroke-linejoin:round;stroke-width:0.25px;}.cls-6{fill:#00426a;}.cls-7,.cls-8{fill-rule:evenodd;}.cls-9{fill:none;}</style></defs><circle class="cls-1" cx="135.5" cy="120" r="106.41"/><circle class="cls-2" cx="135.5" cy="120" r="106.41"/><ellipse class="cls-3" cx="135.5" cy="120.05" rx="95.11" ry="95.83" transform="translate(12.99 253.33) rotate(-88.95)"/><path class="cls-4" d="M183.53,77.34a28.83,28.83,0,0,0-10-5.94c1.59-6.3-.2-14-5-21.08a48.52,48.52,0,0,0-21.92-17.69,2.59,2.59,0,0,0-2.79.54A2.64,2.64,0,0,0,143.2,36c1.21,3.52.87,7-.92,9.45-3.22,4.33-10,4.34-16,4.36h-.65c-10.17,0-17.84,2.08-23.45,6.25a20.83,20.83,0,0,0-8.48,16.4,15.22,15.22,0,0,0-5.5,2.16,18.08,18.08,0,0,0-6.59,8.19C77,93.4,81.22,107.18,91,113.47a26.78,26.78,0,0,0,7.78,3.37l6.1,27a5.84,5.84,0,0,0,5.79,4.57h50.58a5.85,5.85,0,0,0,5.79-4.57l5.41-24,.34-.07a25,25,0,0,0,10.77-42.43Zm-19.95,65.71a2.36,2.36,0,0,1-2.36,1.83H110.64a2.36,2.36,0,0,1-2.36-1.83l-5.76-25.5a41.28,41.28,0,0,0,10.18,0l3,17.2,3.46-.59-3-17.11c1.17-.22,2.31-.47,3.39-.73l.23-.06,1.11-.28c2.26-.61,4.5-1.32,6.71-2.08l1.19,20.66,3.51-.2-1.25-21.67,2.34-.85c2.91-1.06,5.88-2.13,8.88-3.07l-.76,25.64,3.51.1.79-26.76c1-.27,2-.52,3.05-.74a28.23,28.23,0,0,1,10.06-.62l-4.83,27.77,3.45.6,4.78-27.47.21.08c3.62,1.49,7.19,5.39,6.7,9.71l-.13,1.13h0l.07,0Zm23.71-42.17a22.09,22.09,0,0,1-14.49,15.24s0,0,0-.06a9.08,9.08,0,0,0,0-.91s0-.07,0-.11c0-.3-.08-.6-.13-.89l0-.11c-.06-.29-.13-.58-.21-.86l0-.11c-.09-.28-.19-.56-.29-.84a.36.36,0,0,1,0-.09c-.11-.28-.23-.56-.36-.83a.56.56,0,0,1,0-.08c-.13-.27-.27-.54-.42-.8l0-.07a9.06,9.06,0,0,0-.49-.77.43.43,0,0,1,0-.07c-.18-.25-.36-.49-.55-.73l-.05-.06c-.19-.24-.39-.47-.6-.7l0,0c-.21-.23-.43-.45-.65-.67l0,0-.69-.62,0,0-.73-.58,0,0c-.25-.19-.5-.37-.76-.54l0,0c-.26-.17-.53-.33-.79-.48l0,0-.82-.43h0c-.28-.14-.56-.27-.84-.38s-.57-.23-.86-.33l-.29-.09-.59-.2-.35-.09c-.19-.05-.37-.11-.56-.15l-.38-.09-.55-.11-.4-.08-.56-.09-.4,0-.59-.07-.41,0-.62,0-.39,0h-2l-.34,0-.65,0-.38,0-.63.06-.4,0-.65.08-.41,0-.68.1-.4.06-.76.14-.34.06c-.37.07-.75.14-1.13.23a119.81,119.81,0,0,0-15.93,5c-3.49,1.27-7.07,2.57-10.67,3.61l-1.55.44-1.27.32-.09,0-1.27.29h0a39.65,39.65,0,0,1-16.71.42l-.45-.1a23.5,23.5,0,0,1-7.28-3c-8.37-5.4-12-17.23-8-26.37a14.87,14.87,0,0,1,5.27-6.63,12.21,12.21,0,0,1,5.62-1.86l1.8-.17-.22-1.79c-.64-5.22,2.23-11.34,7-14.87,5-3.71,12-5.53,21.36-5.56h.64c6.46,0,14.5,0,18.78-5.77A13.28,13.28,0,0,0,147,36.6a45,45,0,0,1,18.65,15.68c4.58,6.77,6.09,14.11,4,19.62l-.64,1.74,1.77.55a26.25,26.25,0,0,1,10.29,5.72A22,22,0,0,1,187.29,100.88Z"/><path class="cls-5" d="M83.09,158.24c.16-1.3.31-2.6.46-3.92a26.29,26.29,0,0,1,2.84-.25c.45,0,.51.28.3,1.79l-1.75,13.43c-.28,2.09-.37,3.08-.43,3.75a22.57,22.57,0,0,1-2.87.18c-.36,0-.51-.15-.45-.54Z"/><path class="cls-5" d="M90.31,173.4c-1.84,0-3-1.63-3-4.5,0-4.86,3-9.51,8.1-9.51a4.47,4.47,0,0,1,2.26.63c.21-1.42.85-5.83.94-7.09a18.07,18.07,0,0,1,2.8-.43c.28,0,.4.25.31.91-.79,4.86-1.94,13.32-2.21,15.7A24.49,24.49,0,0,0,99.4,173a9.29,9.29,0,0,1-2.87.45c-.21,0-.33-1.57-.21-3.29,0-.39.12-1,.12-1.09-1.72,2.9-3.62,4.38-6.1,4.38Zm1.54-2.6c1.78,0,4.59-3.44,5.32-7.76.06-.36.12-.6.18-.93a2.66,2.66,0,0,0-1.84-.64c-3.33,0-4.93,3.9-4.93,7,0,1.27.46,2.29,1.24,2.29Z"/><path class="cls-5" d="M109.25,159.39c2.42,0,3.2,1.54,3.2,2.75,0,3.44-4.35,5-7.37,5.28a5.86,5.86,0,0,0,0,.73c0,1.84.7,2.8,2.18,2.8a5.77,5.77,0,0,0,4-2,1.43,1.43,0,0,1,.46,1,2.38,2.38,0,0,1-.46,1.42,6.47,6.47,0,0,1-5,2c-3.05,0-4.35-2.11-4.35-5,0-4.35,2.63-9,7.31-9Zm-.72,1.78c-1.39,0-2.87,1.75-3.3,4.2,2.15-.21,4.44-1.3,4.44-3a1.08,1.08,0,0,0-1.12-1.21Z"/><path class="cls-5" d="M113.18,169.14a11.1,11.1,0,0,1,2.84-7.31,8.39,8.39,0,0,1,6.1-2.44,26,26,0,0,1,4.25.66c-.3,1.21-1,6.07-1.33,9.06a25.66,25.66,0,0,0-.21,3.78,8.54,8.54,0,0,1-2.74.54c-.25,0-.34-1.39-.16-3.05,0-.33.13-1.12.13-1.27-1.39,2.57-3.84,4.29-6.16,4.29-1.7,0-2.72-1.42-2.72-4.23Zm4.26,1.72c1.93,0,4.77-3.5,5.55-8.18a6.37,6.37,0,0,1,.18-.91,4,4,0,0,0-1.39-.27,4.46,4.46,0,0,0-3.71,1.94,9.2,9.2,0,0,0-1.72,5.4c0,1.18.33,2,1.06,2Z"/><path class="cls-5" d="M130.69,171.77c-.09.63-.27.91-.54,1a9.14,9.14,0,0,1-2.9.48c.42-2.9,1.93-13.23,2.27-15.88a43,43,0,0,0,.51-4.5,13.61,13.61,0,0,1,2.87-.4c.33,0,.45.25.36.94C132.81,157.24,131.21,168.36,130.69,171.77Z"/><path class="cls-5" d="M144.35,163.31c1.45-2.2,3.53-3.92,5.7-3.92,2.51,0,3.29,2.41,3.29,4.44,0,4.68-2.62,9.57-7.63,9.57a4.05,4.05,0,0,1-2.87-1c-.28,1.66-.67,4.14-.82,5.32-.12.81-.27,1.24-.72,1.36a10.05,10.05,0,0,1-2.6.39c.78-4.8,1.57-9.87,2.29-15,.25-1.6.55-4,.64-4.65a6.53,6.53,0,0,1,3.29-.84c-.06.66-.51,3.41-.63,4.31Zm4.37-1.23c-1.93,0-4.62,3.14-5.28,7.33a5.61,5.61,0,0,1-.15.73,2.81,2.81,0,0,0,2.05.87c3,0,4.71-3.35,4.71-6.79,0-1.24-.42-2.14-1.3-2.14Z"/><path class="cls-5" d="M154.46,169.14a11.15,11.15,0,0,1,2.84-7.31,8.41,8.41,0,0,1,6.1-2.44,26.16,26.16,0,0,1,4.26.66c-.3,1.21-1,6.07-1.33,9.06a25.66,25.66,0,0,0-.21,3.78,8.54,8.54,0,0,1-2.75.54c-.24,0-.33-1.39-.15-3.05,0-.33.12-1.12.12-1.27-1.39,2.57-3.83,4.29-6.16,4.29-1.69,0-2.72-1.42-2.72-4.23Zm4.26,1.72c1.94,0,4.77-3.5,5.56-8.18a6.37,6.37,0,0,1,.18-.91,4.09,4.09,0,0,0-1.39-.27,4.45,4.45,0,0,0-3.71,1.94,9.21,9.21,0,0,0-1.73,5.4c0,1.18.34,2,1.06,2Z"/><path class="cls-5" d="M172.86,164c1.69-3.78,3.65-4.65,4.71-4.65a1.42,1.42,0,0,1,1.12.48,6.74,6.74,0,0,1-1.21,3.17,3.38,3.38,0,0,0-1.09-.24c-1.06,0-3.32,1.78-4.59,9.09a1.32,1.32,0,0,1-.42.91,11.48,11.48,0,0,1-3,.48c.45-2.36,1.24-7.61,1.54-10.36a11.54,11.54,0,0,0,.06-2.84,8.79,8.79,0,0,1,2.72-.69c.33,0,.66,1,.09,4.65Z"/><path class="cls-5" d="M177.6,169.14a11.1,11.1,0,0,1,2.84-7.31,8.39,8.39,0,0,1,6.1-2.44,26.16,26.16,0,0,1,4.26.66c-.31,1.21-1,6.07-1.33,9.06a25.66,25.66,0,0,0-.21,3.78,8.64,8.64,0,0,1-2.75.54c-.24,0-.33-1.39-.15-3.05,0-.33.12-1.12.12-1.27-1.39,2.57-3.84,4.29-6.16,4.29-1.69,0-2.72-1.42-2.72-4.23Zm4.26,1.72c1.93,0,4.77-3.5,5.55-8.18a5.18,5.18,0,0,1,.19-.91,4.14,4.14,0,0,0-1.39-.27,4.48,4.48,0,0,0-3.72,1.94,9.2,9.2,0,0,0-1.72,5.4c0,1.18.33,2,1.06,2Z"/><path class="cls-5" d="M87.11,184.17c1.69-3.77,3.66-4.65,4.71-4.65a1.39,1.39,0,0,1,1.12.49,6.71,6.71,0,0,1-1.21,3.17,3.32,3.32,0,0,0-1.09-.24c-1,0-3.32,1.78-4.59,9.09a1.29,1.29,0,0,1-.42.9,11.4,11.4,0,0,1-3,.48c.45-2.35,1.24-7.6,1.54-10.35a11.55,11.55,0,0,0,.06-2.84,9,9,0,0,1,2.72-.7c.33,0,.66,1,.09,4.65Z"/><path class="cls-5" d="M99.43,179.52c2.42,0,3.2,1.54,3.2,2.75,0,3.44-4.34,4.95-7.36,5.29a5.78,5.78,0,0,0,0,.72c0,1.84.69,2.81,2.17,2.81a5.85,5.85,0,0,0,4-2,1.42,1.42,0,0,1,.45,1,2.4,2.4,0,0,1-.45,1.42,6.48,6.48,0,0,1-5,2c-3,0-4.34-2.12-4.34-5,0-4.35,2.62-9,7.3-9Zm-.72,1.79c-1.39,0-2.87,1.75-3.29,4.19,2.14-.21,4.44-1.3,4.44-3a1.08,1.08,0,0,0-1.12-1.2Z"/><path class="cls-5" d="M107.89,183.45c1.45-2.2,3.53-3.93,5.71-3.93,2.5,0,3.29,2.42,3.29,4.44,0,4.68-2.63,9.58-7.64,9.58a4.12,4.12,0,0,1-2.87-1c-.27,1.66-.66,4.14-.81,5.31-.12.82-.28,1.24-.73,1.36a10.42,10.42,0,0,1-2.6.4c.79-4.81,1.57-9.88,2.3-15,.24-1.6.54-4,.63-4.65a6.56,6.56,0,0,1,3.29-.85c-.06.67-.51,3.41-.63,4.32Zm4.38-1.24c-1.93,0-4.62,3.14-5.28,7.34-.1.42-.07.45-.16.72a2.8,2.8,0,0,0,2.06.88c3,0,4.71-3.35,4.71-6.79,0-1.24-.42-2.15-1.3-2.15Z"/><path class="cls-5" d="M125.47,179.52c3.59,0,4.95,2.45,4.95,5.35,0,5-3.11,8.67-7.52,8.67-3,0-4.86-1.48-4.86-5.14,0-4.59,2.6-8.88,7.4-8.88Zm-.3,1.91c-2.15,0-3.75,3.56-3.75,7.36,0,1.7.64,2.81,1.84,2.81,2.09,0,3.78-3.35,3.78-7.49,0-1.2-.39-2.68-1.84-2.68Z"/><path class="cls-5" d="M137.1,179.52a3.8,3.8,0,0,1,2.78,1c0,.79-.73,1.78-1.42,1.54a4.71,4.71,0,0,0-1.57-.36c-1,0-1.85.48-1.85,1.51,0,.81.64,1.24,2.66,2.78a3.61,3.61,0,0,1,1.78,3.17c0,1.93-1.9,4.41-5.28,4.41A4.09,4.09,0,0,1,131,192.3c-.36-.67-.15-2.27.36-2.06a7,7,0,0,0,3.11,1c1.18,0,1.9-.6,1.9-1.45,0-.57-.39-1.09-2.35-2.54-1.36-1-2-2-2-3.23a4.72,4.72,0,0,1,5-4.5Z"/><path class="cls-5" d="M147.91,189.46a2.86,2.86,0,0,1-.45,2.32,5.11,5.11,0,0,1-4,1.76c-1.87,0-2.54-1.6-2.08-4.69.33-2.26.81-5.13,1-6.64h-1.9c0-.57.39-2.08,1.09-2.08h1.18c.36-2.33,1-3.11,1.42-3.38a6.39,6.39,0,0,1,2.35-.58c-.24,1.33-.45,2.6-.72,4,1.57,0,3,0,3.47-.06a2.44,2.44,0,0,1-1,1.87,6.92,6.92,0,0,1-2.87.27c-.39,2.18-.81,5.74-1,7s0,1.9.57,1.9c.73,0,1.69-.6,2.84-1.72Z"/><path class="cls-5" d="M156.34,179.52c2.41,0,3.2,1.54,3.2,2.75,0,3.44-4.35,4.95-7.37,5.29a5.78,5.78,0,0,0,0,.72c0,1.84.69,2.81,2.17,2.81a5.85,5.85,0,0,0,4.05-2,1.42,1.42,0,0,1,.45,1,2.4,2.4,0,0,1-.45,1.42,6.48,6.48,0,0,1-5,2c-3,0-4.35-2.12-4.35-5,0-4.35,2.62-9,7.31-9Zm-.73,1.79c-1.39,0-2.87,1.75-3.29,4.19,2.14-.21,4.44-1.3,4.44-3a1.08,1.08,0,0,0-1.12-1.2Z"/><path class="cls-5" d="M164.46,184.17c1.69-3.77,3.66-4.65,4.71-4.65a1.39,1.39,0,0,1,1.12.49,6.71,6.71,0,0,1-1.21,3.17,3.32,3.32,0,0,0-1.09-.24c-1.05,0-3.32,1.78-4.59,9.09a1.29,1.29,0,0,1-.42.9,11.4,11.4,0,0,1-3,.48c.45-2.35,1.24-7.6,1.54-10.35a11.55,11.55,0,0,0,.06-2.84,9,9,0,0,1,2.72-.7c.33,0,.66,1,.09,4.65Z"/><path class="cls-5" d="M174.25,179.52c.33,0,.39.16.3.85-.55,4.17-1.3,9.63-1.54,11.53-.09.61-.27.88-.45,1a8.25,8.25,0,0,1-3,.51c.27-2,.84-5.16,1.17-7.88.43-3.26.64-4.86.61-5.37a16.85,16.85,0,0,1,2.87-.64Zm-.64-6.13c.58,0,1.51.16,1.57,1.67a1.93,1.93,0,0,1-1.78,2.14,1.51,1.51,0,0,1-1.57-1.66,1.89,1.89,0,0,1,1.75-2.15Z"/><path class="cls-5" d="M175.61,189.28a11.1,11.1,0,0,1,2.84-7.31,8.41,8.41,0,0,1,6.1-2.45,26.07,26.07,0,0,1,4.25.67c-.3,1.21-1,6.07-1.33,9.06a25.52,25.52,0,0,0-.21,3.77,8.59,8.59,0,0,1-2.74.55c-.25,0-.34-1.39-.16-3,0-.34.13-1.12.13-1.27-1.39,2.56-3.84,4.29-6.16,4.29-1.7,0-2.72-1.42-2.72-4.23Zm4.26,1.72c1.93,0,4.77-3.5,5.55-8.18a5.85,5.85,0,0,1,.18-.91,4,4,0,0,0-1.39-.27,4.45,4.45,0,0,0-3.71,1.93,9.2,9.2,0,0,0-1.72,5.41c0,1.17.33,2,1.05,2Z"/><circle class="cls-2" cx="383" cy="120" r="106.41"/><ellipse class="cls-6" cx="383" cy="120" rx="95.11" ry="95.83" transform="translate(256.01 500.74) rotate(-88.95)"/><path class="cls-5" d="M411.89,130.93a.86.86,0,0,1-.09-.39.9.9,0,0,1,.92-.88l2.53.05a.9.9,0,0,1,0,1.8l-2.53,0A.89.89,0,0,1,411.89,130.93Z"/><path class="cls-5" d="M409.48,179l.07-2.82,1.79,0,0,1h.12l0,1.8Zm.1-4.39.06-2.92,1.8,0-.06,2.92Zm.1-4.49.06-2.93,1.8,0-.06,2.92Zm.1-4.5.06-2.92,1.8,0-.07,2.92Zm.09-4.5.07-2.92,1.8,0-.07,2.92Zm.1-4.49.06-2.93,1.8,0-.06,2.93Zm.1-4.5.06-2.92,1.8,0-.06,2.92Zm.1-4.49.06-2.93,1.8,0-.06,2.92Zm.09-4.5.07-2.92,1.8,0-.07,2.92Zm.1-4.5.07-2.92,1.79,0-.06,2.92Zm.1-4.49.06-2.93,1.8,0-.06,2.93Z"/><path class="cls-5" d="M410.56,178.52a1,1,0,0,1-.08-.39.89.89,0,0,1,.91-.89l1.92,0,1-46.68a.9.9,0,1,1,1.8,0l-1,47.57a.89.89,0,0,1-.91.88l-2.82,0A.9.9,0,0,1,410.56,178.52Z"/><path class="cls-5" d="M401.94,139.92l0,0-1.68-4a.91.91,0,0,1,.47-1.17l9.64-4.28a.9.9,0,0,1,1.18.44v0a.9.9,0,0,1-.46,1.18L402.24,136l1.35,3.24a.9.9,0,0,1-1.65.73Z"/><path class="cls-5" d="M399.45,173.07a.88.88,0,0,1,0-.76l1.85-4a.9.9,0,1,1,1.63.76l-1.48,3.18,8.66,4.31a.9.9,0,0,1-.8,1.61l-9.45-4.7A.88.88,0,0,1,399.45,173.07Z"/><path class="cls-5" d="M403.36,143.12a.91.91,0,0,1,.44-1.19.89.89,0,0,1,1.19.43l.41.85h0a.9.9,0,0,1-1.63.76l-.4-.85Z"/><path class="cls-5" d="M351.09,129.7a.74.74,0,0,1-.08-.39.9.9,0,0,1,.92-.88l2.52,0a.9.9,0,0,1,0,1.8l-2.52-.06A.89.89,0,0,1,351.09,129.7Z"/><path class="cls-5" d="M353.61,177.88l.05-1.8h.12l0-1,1.8,0-.06,2.82Zm.23-4.37.06-2.92,1.8,0-.07,2.92Zm.09-4.5.07-2.92,1.8,0-.07,2.92Zm.1-4.49.06-2.92,1.8,0-.06,2.92Zm.1-4.5.06-2.92,1.8,0-.06,2.92Zm.1-4.49.06-2.93,1.8,0-.06,2.93Zm.09-4.5.07-2.92,1.8,0-.07,2.92Zm.1-4.5.07-2.92,1.79,0-.06,2.92Zm.1-4.49.06-2.92,1.8,0-.06,2.92Zm.1-4.5.06-2.92,1.8,0-.06,2.92Zm.1-4.49.06-2.93,1.8,0-.07,2.93Z"/><path class="cls-5" d="M350.05,177.27a1,1,0,0,1-.08-.39l1-47.57a.9.9,0,1,1,1.8,0l-1,46.67,1.92.06a.9.9,0,0,1,0,1.8l-2.82-.08A.91.91,0,0,1,350.05,177.27Z"/><path class="cls-5" d="M355.64,130.49a.86.86,0,0,1,0-.78.9.9,0,0,1,1.2-.4l9.45,4.7a.89.89,0,0,1,.41,1.18l-1.85,4a.9.9,0,0,1-1.2.43.89.89,0,0,1-.43-1.19l1.48-3.18-8.66-4.31A.9.9,0,0,1,355.64,130.49Z"/><path class="cls-5" d="M354.63,176.67h0a.91.91,0,0,1,.46-1.19l8.84-3.92-1.34-3.25a.89.89,0,0,1,.48-1.17.91.91,0,0,1,1.18.49l1.68,4a.91.91,0,0,1-.47,1.17l-9.64,4.28A.9.9,0,0,1,354.63,176.67Z"/><path class="cls-5" d="M361.22,143.14a.94.94,0,0,1,0-.8l.44-.83a.9.9,0,0,1,1.59.84l-.44.83a.9.9,0,0,1-1.61,0Z"/><path class="cls-5" d="M403.09,165.65a.87.87,0,0,1,0-.8l.43-.83a.9.9,0,1,1,1.6.84l-.44.83a.91.91,0,0,1-1.22.38A.93.93,0,0,1,403.09,165.65Z"/><path class="cls-5" d="M365.56,135.55v0a.89.89,0,0,1,.47-1.18l2.91-1.26a.89.89,0,0,1,.36-.07l27.61.29.23,0,3.32.91A.9.9,0,1,1,400,136l-3.21-.89-27.29-.29L366.73,136A.9.9,0,0,1,365.56,135.55Z"/><path class="cls-5" d="M364.76,172.08a.87.87,0,0,1,0-.77.88.88,0,0,1,1.19-.42l2.68,1.28,27.31.29,3.25-.72a.91.91,0,0,1,1.07.69.9.9,0,0,1-.68,1.07l-3.36.74a.65.65,0,0,1-.2,0L368.42,174a1.24,1.24,0,0,1-.38-.09l-2.85-1.37A.9.9,0,0,1,364.76,172.08Z"/><path class="cls-5" d="M367.18,161.2a18.15,18.15,0,0,1-1-2.7.9.9,0,0,1,.62-1.1.89.89,0,0,1,1.11.62,16.81,16.81,0,0,0,1.36,3.35.9.9,0,0,1-.36,1.22.91.91,0,0,1-1.22-.36C367.52,161.89,367.34,161.54,367.18,161.2Zm2.39,3.76a.9.9,0,0,1,1.5-1,16.32,16.32,0,0,0,2.62,2.5.9.9,0,0,1-1.09,1.43,18.63,18.63,0,0,1-2.91-2.77A1.06,1.06,0,0,1,369.57,165Zm-3.92-9.64a1,1,0,0,1-.08-.3,18,18,0,0,1,.14-4,.9.9,0,1,1,1.78.27,15.56,15.56,0,0,0-.12,3.61.91.91,0,0,1-.83,1A.89.89,0,0,1,365.65,155.32Zm9.54,14a.93.93,0,0,1,0-.78.9.9,0,0,1,1.2-.41,15.91,15.91,0,0,0,3.41,1.21.9.9,0,0,1,.67,1.08.89.89,0,0,1-1.08.67,17.62,17.62,0,0,1-3.79-1.34A1,1,0,0,1,375.19,169.36Zm-8.58-21.11a.91.91,0,0,1,0-.69,18,18,0,0,1,1.77-3.6.9.9,0,0,1,1.25-.27.89.89,0,0,1,.27,1.24,16.54,16.54,0,0,0-1.6,3.24.89.89,0,0,1-1.15.54A.86.86,0,0,1,366.61,148.25Zm15.51,22.82a1.06,1.06,0,0,1-.08-.4.9.9,0,0,1,.93-.87,16.78,16.78,0,0,0,3.6-.3.9.9,0,0,1,.34,1.77,18.52,18.52,0,0,1-4,.32A.9.9,0,0,1,382.12,171.07Zm-11.74-28.89a.89.89,0,0,1,.17-1,17.6,17.6,0,0,1,3.09-2.56.9.9,0,0,1,1,1.5,15.8,15.8,0,0,0-2.78,2.31.9.9,0,0,1-1.28,0A1,1,0,0,1,370.38,142.18Zm18.08,27.88,0-.07a.89.89,0,0,1,.54-1.15c.44-.16.88-.34,1.3-.54a15.84,15.84,0,0,0,1.94-1.06.9.9,0,1,1,1,1.51,18.69,18.69,0,0,1-2.15,1.19c-.47.21-1,.41-1.45.59A.9.9,0,0,1,388.46,170.06ZM376.3,138.19l0,0a.9.9,0,0,1,.5-1.17,18.23,18.23,0,0,1,3.26-1l.61-.11a.9.9,0,0,1,.29,1.78l-.56.1a15.64,15.64,0,0,0-2.93.86A.9.9,0,0,1,376.3,138.19Zm18.22,28.09a.88.88,0,0,1,.19-1,16.65,16.65,0,0,0,2.3-2.79.9.9,0,1,1,1.5,1,17.68,17.68,0,0,1-2.55,3.1.89.89,0,0,1-1.27,0A.7.7,0,0,1,394.52,166.28ZM383.34,137a.85.85,0,0,1-.08-.42.89.89,0,0,1,.93-.86,17.74,17.74,0,0,1,4,.61.9.9,0,1,1-.47,1.73,16,16,0,0,0-3.57-.54A.92.92,0,0,1,383.34,137Zm15.16,23.37a.87.87,0,0,1,0-.71,16.18,16.18,0,0,0,1-3.48.9.9,0,0,1,1.78.28,18.08,18.08,0,0,1-1.07,3.87.9.9,0,0,1-1.65,0Zm-8.24-21.6a.89.89,0,0,1,1.21-1.18,18.22,18.22,0,0,1,3.38,2.18.9.9,0,0,1-1.14,1.39,16.77,16.77,0,0,0-3-2A.9.9,0,0,1,390.26,138.75Zm9.44,14.56a.74.74,0,0,1-.08-.34,16.64,16.64,0,0,0-.29-2.42c-.07-.38-.16-.77-.27-1.15a.9.9,0,0,1,1.74-.47c.11.42.21.85.3,1.28a18.63,18.63,0,0,1,.32,2.69.9.9,0,0,1-1.72.41Zm-3.86-10.11a.91.91,0,0,1,.25-1.07.89.89,0,0,1,1.26.12,17.7,17.7,0,0,1,2.19,3.37.9.9,0,1,1-1.61.8,16.36,16.36,0,0,0-2-3A1.27,1.27,0,0,1,395.84,143.2Z"/><path class="cls-5" d="M372.17,147.2a3.15,3.15,0,0,1,1.91.61c0,.28-.19.7-.53.71a3.39,3.39,0,0,0-1.47-.37,1.4,1.4,0,0,0-1.56,1.36c0,.88.55,1.27,1.87,2,1.56.85,2.18,1.44,2.19,2.74,0,1.68-1.37,2.68-3.07,2.71a3.52,3.52,0,0,1-2.07-.55.48.48,0,0,1-.27-.4,1.29,1.29,0,0,1,.23-.7,3.86,3.86,0,0,0,2.12.67c1.05,0,1.76-.56,1.74-1.47s-.55-1.31-2-2.1c-1.77-.94-2-1.84-2-2.7s.61-2.48,2.91-2.51Z"/><path class="cls-5" d="M379,155.58a.79.79,0,0,1-.23.83,2.28,2.28,0,0,1-1.39.42,1.71,1.71,0,0,1-1.87-1.93c0-.63,0-2-.06-3.85-.5,0-.71-.16-.71-.3a7.94,7.94,0,0,1,1.27-1.37,1.49,1.49,0,0,1,.75-.39c0,.48,0,.85,0,1.16l2.36,0c-.14.75-.46.81-.73.83a15.2,15.2,0,0,1-1.63.07,32.09,32.09,0,0,0,.05,3.75c.09.9.58,1.11,1.08,1.1a2.06,2.06,0,0,0,1.12-.32Z"/><path class="cls-5" d="M384.21,155.4a1.24,1.24,0,0,1-.55,1,3.53,3.53,0,0,1-1.45.34c-2.07,0-3.21-1.19-3.24-3.26,0-1.88,1.08-3.56,3-3.58a2.36,2.36,0,0,1,2.49,2.43,2.19,2.19,0,0,1,0,.46c0,.25-.75.44-1.26.54a29.42,29.42,0,0,1-2.95.07,2.16,2.16,0,0,0,2.27,2.34,4.15,4.15,0,0,0,1.66-.39Zm-2.37-4.71c-.74,0-1.46.69-1.56,1.94,1.07,0,2.41,0,2.67,0a.3.3,0,0,0,.31-.31c0-.91-.47-1.6-1.4-1.59Z"/><path class="cls-5" d="M385.48,149.87c.14,0,.23.1.32.3.31.79,1.22,3.14,1.82,4.88.49-1.4,1.45-3.93,1.88-5.24a1.81,1.81,0,0,1,.79.18c.22.1.18.31,0,.89-.57,1.48-1.13,2.87-2,5.19-.12.27-.21.41-.38.47a3.46,3.46,0,0,1-.79.16c-.32-.92-.78-2-1.71-4.35-.49-1.23-.72-1.73-.92-2.14a2.65,2.65,0,0,1,1.05-.34Z"/><path class="cls-5" d="M391.58,146.76a.68.68,0,0,1,.68.72.74.74,0,0,1-.71.77.67.67,0,0,1-.72-.72.75.75,0,0,1,.73-.77Zm.72,9.33c0,.27-.08.34-.31.37a6.14,6.14,0,0,1-1,.09c0-.61,0-1.47,0-2.33l0-2.53c0-.9-.05-1.36-.08-1.68a4.79,4.79,0,0,1,1.1-.16c.15,0,.2.07.22.92Z"/><path class="cls-5" d="M398.67,155.61a.84.84,0,0,1-.94.94,1,1,0,0,1-1.05-.92,2.71,2.71,0,0,1-1.89,1,1.67,1.67,0,0,1-1.75-1.66c0-1.59,2-2.05,2.85-2.25.27-.06.55-.13.75-.16v-.44a1.27,1.27,0,0,0-1.31-1.36,2.86,2.86,0,0,0-1.51.58c-.4.16-.6-.17-.63-.55a4,4,0,0,1,2.42-1c1.5,0,2.23,1,2.25,2.45,0,.64,0,2.06,0,3a.45.45,0,0,0,.51.47,1,1,0,0,0,.29,0Zm-4.38-.87a.91.91,0,0,0,1,.88,1.6,1.6,0,0,0,1.27-.72.94.94,0,0,0,.1-.49l0-1.16c-1.21.21-2.35.64-2.34,1.47Z"/><path class="cls-5" d="M400.84,104.7v7.69h-32V104.7Zm0,12.53v7.69h-32v-7.69Z"/><path class="cls-5" d="M366.06,49.37a7.31,7.31,0,0,1,.75-1.31c4.84-4.73,6.27-7,6.27-9.19A2.1,2.1,0,0,0,371,36.53a4.89,4.89,0,0,0-3.35,1.64h-.05a1.32,1.32,0,0,1-.38-1.69,6,6,0,0,1,4.58-2.06,3.9,3.9,0,0,1,4.16,4.2A7.28,7.28,0,0,1,374,43.23a34.57,34.57,0,0,1-4.46,4.35c1.46.13,4.46.05,6.22,0a2.3,2.3,0,0,1-1,1.84,7.61,7.61,0,0,1-2.67.28,40.38,40.38,0,0,1-6-.23Z"/><path class="cls-5" d="M378.59,46.58a1.36,1.36,0,0,1,1.31,1.53,1.62,1.62,0,0,1-1.66,1.74,1.35,1.35,0,0,1-1.41-1.46,1.64,1.64,0,0,1,1.74-1.81Z"/><path class="cls-5" d="M382.17,42c.42-1.92,1.58-6.07,2-7.18,1.11-.2,5.51-.4,6.75-.4l.07.1a3.88,3.88,0,0,1-.47,1.48,1.15,1.15,0,0,1-.94.61c-1,.1-3,.12-4,.2a26.84,26.84,0,0,0-1,3.52,23.51,23.51,0,0,1,3.25,1c2.06.83,3,1.86,3,4,0,3.25-2.8,5-6,5a4.58,4.58,0,0,1-3.08-.88,2.34,2.34,0,0,1-.4-1.64s0,0,.05,0a8.39,8.39,0,0,0,3.22.78c2.85,0,3.53-1.59,3.53-2.92,0-1.49-1-2.24-3.22-2.87a24.08,24.08,0,0,0-2.67-.56Z"/><path class="cls-5" d="M330.29,54.68a2.82,2.82,0,0,1,2,.65c0,.63-.47,1.49-.83,1.44a3.52,3.52,0,0,0-1.36-.28c-2.14,0-3.77,2.17-3.77,5.39,0,1.59.63,2.39,1.73,2.39a5,5,0,0,0,3.23-1.53,1.1,1.1,0,0,1,.35.85,1.59,1.59,0,0,1-.53,1.26,5.18,5.18,0,0,1-3.88,1.51c-2.09,0-3.65-1.21-3.65-4.1,0-3.8,2.44-7.58,6.65-7.58Z"/><path class="cls-5" d="M339.86,63.06c-1.13,1.89-2.59,3.3-4.73,3.3s-2.32-2-2-4c.23-1.49.48-2.75.66-3.8.35-2.27.4-2.92.45-3.33a13.44,13.44,0,0,1,2.49-.55c.2,0,.3.23.18.9-.25,1.57-.76,4.59-1.14,6.88-.22,1.51.18,1.71.71,1.71,1.06,0,3.52-2.17,4.41-8.08.1-.68.22-.91.55-1a7,7,0,0,1,2.27-.38c-.51,2-1,6.07-1.26,8.11a23.17,23.17,0,0,0-.18,3.14,7.07,7.07,0,0,1-2.34.43c-.15,0-.23-.75,0-3.27Z"/><path class="cls-5" d="M351.26,54.68a2.84,2.84,0,0,1,2,.65c0,.63-.48,1.49-.83,1.44a3.56,3.56,0,0,0-1.36-.28c-2.14,0-3.78,2.17-3.78,5.39,0,1.59.63,2.39,1.74,2.39a5,5,0,0,0,3.22-1.53,1.1,1.1,0,0,1,.35.85,1.61,1.61,0,0,1-.52,1.26,5.18,5.18,0,0,1-3.88,1.51c-2.09,0-3.65-1.21-3.65-4.1,0-3.8,2.44-7.58,6.64-7.58Z"/><path class="cls-5" d="M362.23,54.68c1.82,0,2.3,1.79,1.94,4-.25,1.38-.35,2.14-.68,4.13-.12.9-.3,2.41-.3,3.14a7.82,7.82,0,0,1-2.49.43c-.25,0-.23-1.18.07-3.07.28-1.69.51-3,.86-5.09.13-.88-.08-1.36-.6-1.36-1.54,0-3.83,2.62-4.74,8.21-.1.56-.17.66-.33.76a6.06,6.06,0,0,1-2.51.45c.48-2.44,1.68-11,1.94-13.22.32-2.82.35-3.3.37-3.75a10.31,10.31,0,0,1,2.5-.35c.27,0,.22.55.15,1.11-.23,1.56-.56,4.1-1.16,8.36,1.41-2.55,3.17-3.73,5-3.73Z"/><path class="cls-5" d="M365.45,62.81a9.24,9.24,0,0,1,2.37-6.09,7,7,0,0,1,5.09-2,22,22,0,0,1,3.55.55c-.26,1-.86,5.06-1.11,7.56a21.23,21.23,0,0,0-.18,3.14,7.07,7.07,0,0,1-2.29.46c-.2,0-.28-1.16-.13-2.55,0-.27.11-.93.11-1.05a6.32,6.32,0,0,1-5.14,3.57c-1.41,0-2.27-1.18-2.27-3.52ZM369,64.25c1.61,0,4-2.92,4.64-6.83a4.51,4.51,0,0,1,.15-.75,3.33,3.33,0,0,0-1.16-.23,3.73,3.73,0,0,0-3.1,1.61,7.72,7.72,0,0,0-1.43,4.51c0,1,.27,1.69.88,1.69Z"/><path class="cls-5" d="M380.78,58.56c1.41-3.15,3.05-3.88,3.93-3.88a1.16,1.16,0,0,1,.93.4,5.55,5.55,0,0,1-1,2.64,2.74,2.74,0,0,0-.9-.2c-.88,0-2.77,1.49-3.83,7.58a1.05,1.05,0,0,1-.35.76,10,10,0,0,1-2.49.4c.37-2,1-6.34,1.28-8.64a9.1,9.1,0,0,0,.05-2.36,7.38,7.38,0,0,1,2.27-.58c.27,0,.55.8.07,3.88Z"/><path class="cls-5" d="M384.73,62.81a9.24,9.24,0,0,1,2.37-6.09,7,7,0,0,1,5.09-2,22,22,0,0,1,3.55.55c-.26,1-.86,5.06-1.11,7.56a21.23,21.23,0,0,0-.18,3.14,7.07,7.07,0,0,1-2.29.46c-.2,0-.28-1.16-.12-2.55,0-.27.1-.93.1-1.05A6.32,6.32,0,0,1,387,66.36c-1.41,0-2.27-1.18-2.27-3.52Zm3.55,1.44c1.61,0,4-2.92,4.64-6.83a4.51,4.51,0,0,1,.15-.75,3.33,3.33,0,0,0-1.16-.23,3.73,3.73,0,0,0-3.1,1.61,7.72,7.72,0,0,0-1.43,4.51c0,1,.27,1.69.88,1.69Z"/><path class="cls-5" d="M398.88,66.36c-1.54,0-2.49-1.36-2.49-3.75,0-4,2.51-7.93,6.74-7.93a3.71,3.71,0,0,1,1.89.53c.18-1.19.71-4.86.78-5.92a15.94,15.94,0,0,1,2.34-.35c.23,0,.33.2.26.75-.66,4.06-1.61,11.11-1.84,13.1a19.69,19.69,0,0,0-.1,3.19,7.54,7.54,0,0,1-2.39.38c-.18,0-.28-1.31-.18-2.74,0-.33.1-.81.1-.91-1.44,2.42-3,3.65-5.09,3.65Zm1.28-2.16c1.49,0,3.83-2.87,4.43-6.48.05-.3.11-.5.16-.78a2.26,2.26,0,0,0-1.54-.52c-2.77,0-4.1,3.24-4.1,5.86,0,1.06.37,1.92,1,1.92Z"/><path class="cls-5" d="M412.45,54.68c.27,0,.32.12.25.7-.45,3.48-1.08,8-1.29,9.62a1.13,1.13,0,0,1-.37.83,6.84,6.84,0,0,1-2.5.43c.23-1.66.71-4.3,1-6.57.35-2.72.52-4,.5-4.48a14.08,14.08,0,0,1,2.39-.53Zm-.53-5.11c.48,0,1.26.12,1.31,1.38a1.61,1.61,0,0,1-1.49,1.79,1.26,1.26,0,0,1-1.31-1.38,1.57,1.57,0,0,1,1.46-1.79Z"/><path class="cls-5" d="M419.8,63a2.39,2.39,0,0,1-.38,1.94,4.24,4.24,0,0,1-3.35,1.46c-1.56,0-2.11-1.33-1.74-3.9.28-1.89.68-4.28.86-5.54H413.6c0-.48.33-1.74.91-1.74h1c.3-1.94.81-2.59,1.18-2.82a5.59,5.59,0,0,1,2-.48c-.2,1.11-.38,2.17-.61,3.3,1.31,0,2.5,0,2.9,0a2,2,0,0,1-.81,1.56,5.73,5.73,0,0,1-2.39.23c-.33,1.81-.68,4.78-.83,5.87s0,1.58.48,1.58a4.12,4.12,0,0,0,2.37-1.43Z"/><path class="cls-5" d="M420.47,62.81a9.24,9.24,0,0,1,2.37-6.09,7,7,0,0,1,5.09-2,22,22,0,0,1,3.55.55c-.26,1-.86,5.06-1.11,7.56a21.23,21.23,0,0,0-.18,3.14,7.07,7.07,0,0,1-2.29.46c-.2,0-.28-1.16-.12-2.55,0-.27.1-.93.1-1.05a6.32,6.32,0,0,1-5.14,3.57c-1.41,0-2.27-1.18-2.27-3.52ZM424,64.25c1.61,0,4-2.92,4.64-6.83a4.51,4.51,0,0,1,.15-.75,3.33,3.33,0,0,0-1.16-.23,3.73,3.73,0,0,0-3.1,1.61,7.72,7.72,0,0,0-1.43,4.51c0,1,.27,1.69.88,1.69Z"/><path class="cls-5" d="M437,54.68a3.16,3.16,0,0,1,2.32.8c0,.66-.61,1.49-1.19,1.29a3.71,3.71,0,0,0-1.3-.3c-.83,0-1.54.4-1.54,1.25,0,.69.53,1,2.22,2.32A3,3,0,0,1,439,62.68a4.11,4.11,0,0,1-4.41,3.68,3.42,3.42,0,0,1-2.64-1c-.3-.56-.12-1.89.3-1.71a6,6,0,0,0,2.6.83c1,0,1.58-.51,1.58-1.21,0-.48-.32-.91-2-2.12a3.26,3.26,0,0,1-1.64-2.69,3.93,3.93,0,0,1,4.16-3.75Z"/><path class="cls-5" d="M358.15,180.11c-.24,2-1.72,14.85-2,17.42-.06.48-.15.63-.54.69-.67.06-2.06.19-3,.19.27-1.7,1.2-8,2-14.89a32.9,32.9,0,0,1-4,.87l-.06-.06c.21-.66.46-1.27.64-1.78a33,33,0,0,0,6.88-2.51Z"/><path class="cls-5" d="M367.09,184.57a3.78,3.78,0,0,1,2.78,1c0,.79-.72,1.78-1.42,1.54a4.6,4.6,0,0,0-1.57-.36c-1,0-1.84.48-1.84,1.51,0,.81.63,1.24,2.66,2.78a3.61,3.61,0,0,1,1.78,3.17c0,1.93-1.9,4.41-5.28,4.41a4.13,4.13,0,0,1-3.18-1.24c-.36-.67-.15-2.27.37-2.06a7,7,0,0,0,3.11,1c1.17,0,1.9-.6,1.9-1.45,0-.57-.39-1.09-2.36-2.54-1.35-1-2-2-2-3.23a4.72,4.72,0,0,1,5-4.5Z"/><path class="cls-5" d="M378.18,184.57c3.59,0,4.95,2.45,4.95,5.35,0,5-3.11,8.67-7.52,8.67-3,0-4.86-1.48-4.86-5.14,0-4.59,2.6-8.88,7.4-8.88Zm-.3,1.91c-2.15,0-3.75,3.56-3.75,7.36,0,1.7.64,2.81,1.84,2.81,2.09,0,3.78-3.35,3.78-7.49,0-1.2-.39-2.68-1.84-2.68Z"/><path class="cls-5" d="M389.23,198.59a6.26,6.26,0,0,1-4.74-1.91c.21-1.26,1.63-10.66,2.05-14.1.34-3,.49-3.92.46-4.47a20,20,0,0,1,2.93-.42c.27,0,.39.27.3.78-.18,1.3-.88,6.74-1.51,10.24,1.18-1.9,3.35-4.14,5.92-4.14,2.17,0,3,2.36,3,4.35,0,4.83-2.69,9.67-8.4,9.67Zm4-11.39c-2.14,0-4.62,3.53-5.22,7.31-.1.54-.13.82-.22,1.27a2.51,2.51,0,0,0,1.69.66c3.42,0,4.9-4.32,4.9-7.12,0-1.09-.34-2.12-1.12-2.12Z"/><path class="cls-5" d="M402.92,189.22c1.69-3.77,3.65-4.65,4.71-4.65a1.39,1.39,0,0,1,1.11.49,6.8,6.8,0,0,1-1.2,3.17,3.44,3.44,0,0,0-1.09-.24c-1.06,0-3.32,1.78-4.59,9.09a1.29,1.29,0,0,1-.42.9,11.55,11.55,0,0,1-3,.48c.45-2.35,1.23-7.6,1.54-10.35a11.55,11.55,0,0,0,.06-2.84,8.82,8.82,0,0,1,2.71-.7c.34,0,.67,1,.09,4.65Z"/><path class="cls-5" d="M415.24,184.57c2.41,0,3.2,1.54,3.2,2.75,0,3.44-4.35,5-7.37,5.29a5.78,5.78,0,0,0,0,.72c0,1.84.7,2.81,2.17,2.81a5.83,5.83,0,0,0,4.05-2,1.42,1.42,0,0,1,.45,1,2.4,2.4,0,0,1-.45,1.42,6.48,6.48,0,0,1-5,2c-3.05,0-4.35-2.12-4.35-5,0-4.35,2.63-9,7.31-9Zm-.73,1.79c-1.39,0-2.87,1.75-3.29,4.19,2.15-.21,4.44-1.3,4.44-3a1.08,1.08,0,0,0-1.12-1.2Z"/><path class="cls-7" d="M361.7,94.68c-2.55,1.72-8.45,13.09-27.91,13.09s-27.28-6.84-28.58-15.55h54.22c15.8-9.43,41.16-22.42,86-20.77a1.81,1.81,0,0,1,1.79,1.78v.89a1.77,1.77,0,0,1-1.79,1.79C406.13,74.46,378.27,81.3,361.7,94.68Z"/><path class="cls-5" d="M356.79,90.44a1,1,0,0,1-.65-.24c-5.45-4.75-17.78-14-20.65-16-3-2.11-10.7,4.14-16.29,8.7-3.4,2.77-6.33,5.16-8.31,5.92a6,6,0,0,0-2,1.34,1,1,0,0,1-1.4,0,1,1,0,0,1,0-1.4A8.19,8.19,0,0,1,310.18,87c1.68-.65,4.64-3.06,7.77-5.61,6.76-5.5,14.42-11.75,18.67-8.78,2.89,2,15.32,11.33,20.82,16.12a1,1,0,0,1,.1,1.39A1,1,0,0,1,356.79,90.44Z"/><path class="cls-8" d="M322,88.13a1.51,1.51,0,1,0-1.5-1.51A1.51,1.51,0,0,0,322,88.13Z"/><path class="cls-8" d="M325.33,84.13a.75.75,0,1,0-.74-.74A.74.74,0,0,0,325.33,84.13Z"/><path class="cls-8" d="M327.77,87.85a1.11,1.11,0,1,0-1.1-1.1A1.11,1.11,0,0,0,327.77,87.85Z"/><path class="cls-8" d="M331.18,83.44a1.1,1.1,0,1,0-1.1-1.1A1.11,1.11,0,0,0,331.18,83.44Z"/><path class="cls-8" d="M331.18,86.17a.7.7,0,0,0,.7-.7.7.7,0,1,0-.7.7Z"/><path class="cls-8" d="M328.52,79.68a.7.7,0,1,0-.7-.7A.7.7,0,0,0,328.52,79.68Z"/><circle class="cls-2" cx="630.5" cy="120" r="106.41"/><ellipse class="cls-3" cx="630.5" cy="120" rx="95.11" ry="95.83" transform="translate(498.98 748.2) rotate(-88.95)"/><circle class="cls-9" cx="630.5" cy="119.95" r="95.96"/><path class="cls-5" d="M580.3,162.39c0-.61.35-1.56.87-1.76a19.84,19.84,0,0,1,4.92-.69c3,0,5.94,1,5.94,4.32,0,2.33-1.5,3.51-3.35,4.21,2.42.6,3.58,2.19,3.58,4.2,0,3.78-3.58,5.71-7.81,5.71a18.74,18.74,0,0,1-4.67-.67c.69-4.46,1.44-9.76,1.79-12.36.23-1.55.4-2.76.46-3.22a9,9,0,0,0-1.73.29Zm8.64,10.48c0-2.1-1.61-3.25-3.57-3.25a12.28,12.28,0,0,0-1.35.11c-.26,1.93-.72,5.48-.84,6.54a5.39,5.39,0,0,0,1.9.26,3.68,3.68,0,0,0,3.86-3.63Zm0-8.23a2.68,2.68,0,0,0-3-2.74,5.25,5.25,0,0,0-1,0c-.23,2-.57,4.38-.77,5.93.26,0,1,0,1.58-.06,1.79-.2,3.11-1.18,3.11-3.14Z"/><path class="cls-5" d="M600.44,165.07c2.31,0,3,1.47,3,2.62,0,3.28-4.14,4.72-7,5,0,.2,0,.49,0,.69,0,1.76.66,2.68,2.07,2.68a5.54,5.54,0,0,0,3.86-1.9,1.37,1.37,0,0,1,.43,1,2.26,2.26,0,0,1-.43,1.35,6.15,6.15,0,0,1-4.78,1.9c-2.91,0-4.15-2-4.15-4.78,0-4.15,2.51-8.58,7-8.58Zm-.69,1.7c-1.33,0-2.74,1.67-3.14,4,2-.2,4.23-1.24,4.23-2.85a1,1,0,0,0-1.06-1.15Z"/><path class="cls-5" d="M608.94,178.43a5.94,5.94,0,0,1-4.52-1.81c.2-1.21,1.55-10.17,2-13.45.31-2.89.46-3.75.43-4.27a19.66,19.66,0,0,1,2.79-.4c.26,0,.38.26.29.75-.17,1.24-.83,6.42-1.44,9.76,1.13-1.81,3.2-3.94,5.65-3.94,2.07,0,2.88,2.24,2.88,4.15,0,4.6-2.56,9.21-8,9.21Zm3.8-10.86c-2,0-4.4,3.37-5,7-.09.51-.11.77-.2,1.2a2.34,2.34,0,0,0,1.61.64c3.26,0,4.67-4.12,4.67-6.8,0-1-.32-2-1.07-2Z"/><path class="cls-5" d="M622.17,165.07c.32,0,.37.14.29.8-.52,4-1.24,9.19-1.47,11a1.31,1.31,0,0,1-.44,1,7.79,7.79,0,0,1-2.85.49c.26-1.9.81-4.93,1.13-7.52.4-3.11.6-4.64.57-5.13a16.45,16.45,0,0,1,2.74-.6Zm-.61-5.85c.55,0,1.44.14,1.5,1.58a1.84,1.84,0,0,1-1.7,2,1.45,1.45,0,0,1-1.5-1.59,1.8,1.8,0,0,1,1.67-2Z"/><path class="cls-5" d="M626.23,178.43c-1.76,0-2.85-1.55-2.85-4.29,0-4.64,2.88-9.07,7.72-9.07a4.24,4.24,0,0,1,2.16.6c.2-1.35.81-5.56.89-6.77a17.89,17.89,0,0,1,2.68-.4c.26,0,.38.23.29.86-.75,4.64-1.84,12.71-2.1,15a22.26,22.26,0,0,0-.12,3.66,8.65,8.65,0,0,1-2.73.43c-.21,0-.32-1.49-.21-3.14,0-.37.12-.92.12-1-1.64,2.76-3.46,4.17-5.82,4.17ZM627.7,176c1.7,0,4.38-3.29,5.07-7.41.06-.34.12-.57.17-.89a2.56,2.56,0,0,0-1.75-.6c-3.17,0-4.7,3.71-4.7,6.71,0,1.21.43,2.19,1.18,2.19Z"/><path class="cls-5" d="M637.27,174.37a10.59,10.59,0,0,1,2.71-7,8,8,0,0,1,5.82-2.33,25,25,0,0,1,4.06.63c-.29,1.15-1,5.79-1.27,8.64a23.34,23.34,0,0,0-.2,3.6,8,8,0,0,1-2.62.52c-.23,0-.32-1.32-.15-2.91,0-.31.12-1.06.12-1.21-1.33,2.45-3.66,4.09-5.88,4.09-1.61,0-2.59-1.35-2.59-4Zm4.06,1.64c1.84,0,4.55-3.34,5.3-7.8a7.07,7.07,0,0,1,.17-.87,3.92,3.92,0,0,0-1.32-.26,4.27,4.27,0,0,0-3.55,1.85,8.79,8.79,0,0,0-1.64,5.15c0,1.13.32,1.93,1,1.93Z"/><path class="cls-5" d="M656.14,165.07a3.61,3.61,0,0,1,2.65.92c0,.75-.69,1.7-1.35,1.47a4.35,4.35,0,0,0-1.5-.35c-1,0-1.76.46-1.76,1.44,0,.78.61,1.18,2.54,2.65a3.47,3.47,0,0,1,1.7,3c0,1.84-1.82,4.2-5,4.2a3.88,3.88,0,0,1-3-1.18c-.35-.63-.14-2.16.35-2a6.75,6.75,0,0,0,3,1c1.13,0,1.82-.57,1.82-1.38,0-.55-.38-1-2.25-2.42-1.3-1-1.87-1.87-1.87-3.08a4.5,4.5,0,0,1,4.75-4.29Z"/><path class="cls-5" d="M663.55,183.07a35,35,0,0,0,4.69-4.87,7.87,7.87,0,0,1-.74-2.19c-.55-2.47-1.33-8-1.53-10.34a8.07,8.07,0,0,1,2.79-.6c.32,0,.41.2.43.52.18,2.56.58,6.36.87,8.15a5.88,5.88,0,0,0,.4,1.53,23.68,23.68,0,0,0,3.54-9.83,7,7,0,0,1,2.28-.37c.2,0,.23.43.23.89,0,1.5-.86,5.91-4.26,11-2.36,3.57-5.39,6.79-6.43,7.43A2.33,2.33,0,0,1,663.55,183.07Z"/><path class="cls-5" d="M600.45,199.68a2.76,2.76,0,0,1-.63,2,9.1,9.1,0,0,1-4.15.86c-5.27,0-8.21-3.22-8.21-8.44,0-4.46,3-10.43,10.57-10.43a7.21,7.21,0,0,1,4,1c0,.75-.49,2-1.47,1.59a8.76,8.76,0,0,0-2.56-.46c-3.86,0-7.12,3.17-7.12,8.38,0,3.4,1.87,6.31,5.56,6.31a10.1,10.1,0,0,0,4-.81Z"/><path class="cls-5" d="M608.7,189.08c3.42,0,4.72,2.33,4.72,5.1,0,4.81-3,8.27-7.17,8.27-2.88,0-4.64-1.41-4.64-4.9,0-4.38,2.48-8.47,7.06-8.47Zm-.29,1.82c-2,0-3.57,3.39-3.57,7,0,1.62.6,2.68,1.75,2.68,2,0,3.6-3.2,3.6-7.14,0-1.15-.37-2.56-1.75-2.56Z"/><path class="cls-5" d="M622.24,189.08a3.19,3.19,0,0,1,2.33.75c0,.72-.54,1.7-1,1.64a4.05,4.05,0,0,0-1.55-.32c-2.45,0-4.32,2.48-4.32,6.17,0,1.81.72,2.74,2,2.74a5.69,5.69,0,0,0,3.69-1.76,1.28,1.28,0,0,1,.4,1,1.81,1.81,0,0,1-.6,1.44,5.92,5.92,0,0,1-4.44,1.73c-2.39,0-4.17-1.39-4.17-4.7,0-4.35,2.79-8.67,7.6-8.67Z"/><path class="cls-5" d="M632.09,198.56a2.71,2.71,0,0,1-.43,2.22,4.87,4.87,0,0,1-3.83,1.67c-1.79,0-2.42-1.53-2-4.47.32-2.16.78-4.9,1-6.34H625c0-.54.37-2,1-2h1.13c.34-2.22.92-3,1.35-3.23a6.3,6.3,0,0,1,2.25-.55c-.23,1.27-.43,2.48-.69,3.78,1.5,0,2.85,0,3.31-.06a2.34,2.34,0,0,1-.92,1.78,6.53,6.53,0,0,1-2.74.26c-.37,2.08-.78,5.48-1,6.72s0,1.81.55,1.81c.69,0,1.61-.58,2.71-1.64Z"/><path class="cls-5" d="M640.13,189.08c2.31,0,3.06,1.47,3.06,2.62,0,3.28-4.15,4.73-7,5a5.31,5.31,0,0,0,0,.69c0,1.76.66,2.68,2.07,2.68a5.52,5.52,0,0,0,3.86-1.9,1.39,1.39,0,0,1,.44,1,2.32,2.32,0,0,1-.44,1.36,6.18,6.18,0,0,1-4.78,1.9c-2.91,0-4.15-2-4.15-4.79,0-4.14,2.51-8.58,7-8.58Zm-.69,1.7c-1.32,0-2.74,1.67-3.14,4,2.05-.2,4.24-1.23,4.24-2.85a1,1,0,0,0-1.07-1.15Z"/><path class="cls-5" d="M647.11,200.89c-.09.61-.26.87-.52,1a8.65,8.65,0,0,1-2.77.46c.41-2.76,1.85-12.62,2.16-15.15a38.63,38.63,0,0,0,.49-4.29,13.22,13.22,0,0,1,2.74-.38c.32,0,.43.23.35.89C649.12,187,647.6,197.64,647.11,200.89Z"/><path class="cls-5" d="M656.61,189.08c2.31,0,3.06,1.47,3.06,2.62,0,3.28-4.15,4.73-7,5a5.31,5.31,0,0,0,0,.69c0,1.76.66,2.68,2.07,2.68a5.52,5.52,0,0,0,3.86-1.9,1.35,1.35,0,0,1,.44,1,2.32,2.32,0,0,1-.44,1.36,6.17,6.17,0,0,1-4.78,1.9c-2.91,0-4.15-2-4.15-4.79,0-4.14,2.51-8.58,7-8.58Zm-.69,1.7c-1.32,0-2.73,1.67-3.14,4,2.05-.2,4.24-1.23,4.24-2.85a1,1,0,0,0-1.07-1.15Z"/><path class="cls-5" d="M666,189.08a3.61,3.61,0,0,1,2.65.92c0,.75-.69,1.7-1.35,1.47a4.54,4.54,0,0,0-1.5-.34c-1,0-1.76.46-1.76,1.43,0,.78.61,1.19,2.54,2.66a3.45,3.45,0,0,1,1.7,3c0,1.84-1.82,4.21-5,4.21a3.91,3.91,0,0,1-3-1.18c-.34-.64-.14-2.17.35-2a6.75,6.75,0,0,0,3,.95c1.13,0,1.82-.58,1.82-1.39,0-.54-.38-1-2.25-2.42a3.73,3.73,0,0,1-1.87-3.08,4.5,4.5,0,0,1,4.75-4.29Z"/><line class="cls-5" x1="628.03" y1="106.12" x2="628.03" y2="140.9"/><path class="cls-5" d="M628,143a2.13,2.13,0,0,1-2.13-2.13V106.12a2.13,2.13,0,1,1,4.25,0V140.9A2.13,2.13,0,0,1,628,143Z"/><path class="cls-3" d="M642.25,152.59H613.8c.22-.08,14.23-5.15,14.23-11.69,0,6.54,14,11.61,14.22,11.69Z"/><path class="cls-5" d="M642.25,154.72H613.8a2.12,2.12,0,0,1-1.5-3.63,2.07,2.07,0,0,1,.79-.51,44.89,44.89,0,0,0,6.84-3.25c3.79-2.26,6-4.6,6-6.43a2.13,2.13,0,0,1,4.26,0c0,1.83,2.17,4.17,6,6.43a44.75,44.75,0,0,0,6.85,3.25,2.22,2.22,0,0,1,.78.5,2.13,2.13,0,0,1-1.5,3.64ZM623,150.46H633.1A20.75,20.75,0,0,1,628,146.2,21.13,21.13,0,0,1,623,150.46Z"/><circle class="cls-3" cx="658.54" cy="68.64" r="15.18" transform="translate(440.43 693.8) rotate(-76.72)"/><path class="cls-5" d="M658.54,86a17.31,17.31,0,1,1,17.31-17.31A17.33,17.33,0,0,1,658.54,86Zm0-30.36a13,13,0,1,0,13.05,13A13.07,13.07,0,0,0,658.54,55.59Z"/><path class="cls-5" d="M658.54,86a2.13,2.13,0,0,1-2.13-2.13V53.46a2.13,2.13,0,0,1,4.26,0V83.82A2.13,2.13,0,0,1,658.54,86Z"/><line class="cls-5" x1="645.4" y1="61.05" x2="671.69" y2="76.23"/><path class="cls-5" d="M671.68,78.36a2.16,2.16,0,0,1-1.06-.28L644.33,62.9a2.13,2.13,0,1,1,2.13-3.69l26.29,15.18a2.13,2.13,0,0,1-1.07,4Z"/><line class="cls-5" x1="671.69" y1="61.05" x2="645.4" y2="76.23"/><path class="cls-5" d="M645.4,78.36a2.13,2.13,0,0,1-1.07-4l26.29-15.18a2.13,2.13,0,1,1,2.13,3.69L646.46,78.08A2.16,2.16,0,0,1,645.4,78.36Z"/><path class="cls-3" d="M659.38,68.64h-62.7c0,10,6.06,18.76,15.13,23.59.79,7.8,7.75,13.89,16.22,13.89s15.42-6.09,16.22-13.89C653.32,87.4,659.38,78.64,659.38,68.64Z"/><path class="cls-5" d="M628,108.25a18.91,18.91,0,0,1-12.38-4.54,17.23,17.23,0,0,1-5.81-10.13,31.82,31.82,0,0,1-10.78-10,27.16,27.16,0,0,1-4.51-14.9,2.12,2.12,0,0,1,2.13-2.12h62.7a2.12,2.12,0,0,1,2.12,2.12A27.16,27.16,0,0,1,657,83.54a31.82,31.82,0,0,1-10.78,10,17.27,17.27,0,0,1-5.8,10.13A19,19,0,0,1,628,108.25ZM598.91,70.77a23.11,23.11,0,0,0,3.71,10.44,27.6,27.6,0,0,0,10.19,9.14A2.15,2.15,0,0,1,613.92,92a12.91,12.91,0,0,0,4.51,8.47,14.92,14.92,0,0,0,19.2,0,12.94,12.94,0,0,0,4.5-8.47,2.13,2.13,0,0,1,1.12-1.67,27.64,27.64,0,0,0,10.18-9.14,23.12,23.12,0,0,0,3.72-10.44Z"/><line class="cls-5" x1="598.78" y1="36.25" x2="628.03" y2="98.53"/><path class="cls-5" d="M628,100.65a2.13,2.13,0,0,1-1.93-1.22L596.85,37.15a2.13,2.13,0,0,1,3.86-1.81L630,97.62a2.12,2.12,0,0,1-1,2.83A2.07,2.07,0,0,1,628,100.65Z"/><path class="cls-5" d="M658.17,78.36H597.88a2.13,2.13,0,1,1,0-4.26h60.29a2.13,2.13,0,0,1,0,4.26Z"/><path class="cls-3" d="M383.26,225.89A105.64,105.64,0,0,1,307.48,194a110.08,110.08,0,0,1,0-153.93,106,106,0,0,1,151.56,0A110.08,110.08,0,0,1,459,194,105.64,105.64,0,0,1,383.26,225.89Z"/><path class="cls-2" d="M383.26,225.89A105.64,105.64,0,0,1,307.48,194a110.08,110.08,0,0,1,0-153.93,106,106,0,0,1,151.56,0A110.08,110.08,0,0,1,459,194,105.64,105.64,0,0,1,383.26,225.89Zm0-210.1c-54.94,0-99.64,45.42-99.64,101.25s44.7,101.24,99.64,101.24S482.9,172.86,482.9,117,438.2,15.79,383.26,15.79Z"/><path class="cls-5" d="M337.43,53.69l-7.32,6.37-8.42-9.89L329,43.8l1.54,1.8-5.49,4.78L327,52.66l5.29-4.61,1.48,1.74-5.29,4.61,1.9,2.23,5.49-4.78Z"/><path class="cls-5" d="M346.54,40a7.53,7.53,0,0,1,1.13,4.27l2.08.51-.59,2.38L347,46.64a6.72,6.72,0,0,1-2.65,2.74c-3.94,2.38-7.39.54-9.13-2.36s-1.66-6.94,2.23-9.3S344.78,37.16,346.54,40Zm-9.21,5.81a4.21,4.21,0,0,0,5.89,1.61,4.32,4.32,0,0,0,1.22-6.24c-1.15-1.76-3.23-3.15-5.84-1.57S336.18,44,337.33,45.82Z"/><path class="cls-5" d="M357.88,28.79l2.55,7c1.31,3.62-.21,6.29-3.26,7.42s-6,.21-7.36-3.48l-2.55-7,2.27-.85,2.54,7c.8,2.2,2.47,2.91,4.36,2.21s2.49-2.37,1.73-4.47l-2.54-7Z"/><path class="cls-5" d="M365,40.44l-2.9-12.71,2.35-.55,2.9,12.71Z"/><path class="cls-5" d="M376.94,38.49l-2.51.25-6.64-12.52,2.72-.27,4.88,9.73,2.89-10.52,2.72-.28Z"/><path class="cls-5" d="M393.33,36.19l-6.72-.55L385.31,38l-2.63-.21,6.81-12.53,2.64.21L396.86,39l-2.64-.22Zm-2.74-8.1-2.83,5.35,4.78.39Z"/><path class="cls-5" d="M403.84,27.36,401.2,37.8l6.43,1.66-.55,2.2-8.79-2.27,3.19-12.64Z"/><path class="cls-5" d="M417.84,46.05l-8.9-3.79c1.66-4,3.34-8,5-12l8.9,3.8-.92,2.2-6.67-2.85-1.15,2.76,6.43,2.75L419.66,41l-6.44-2.74L412.09,41l6.68,2.85Z"/><path class="cls-5" d="M435.82,55.42l-5.25-4.3-2.39,1.21-2.05-1.68,12.63-6.45,2.06,1.69-3.63,13.83L435.13,58Zm2.26-8.25L432.76,50,436.49,53Z"/><path class="cls-5" d="M384.2,186.43c-37.67,0-68.32-31.13-68.32-69.39s30.65-69.4,68.32-69.4,68.32,31.13,68.32,69.4S421.87,186.43,384.2,186.43Zm0-136.89c-36.63,0-66.44,30.28-66.44,67.5s29.81,67.49,66.44,67.49,66.44-30.28,66.44-67.49S420.83,49.54,384.2,49.54Z"/><path class="cls-5" d="M353.11,192a4.2,4.2,0,0,0-2.2-3.13c-1.76-1-3-.75-3.55.2-.62,1.11.5,2.16,1.91,3.21,2.45,1.83,4.51,3.92,2.81,7-1.59,2.85-4.76,2.65-7.57,1-2.57-1.48-4.11-3.41-3.74-6.28l2.56.1a4.18,4.18,0,0,0,2.42,4.05c1.49.85,3.19,1.13,4-.26.67-1.2-.3-2.4-1.87-3.54-2.4-1.78-4.39-3.83-2.79-6.69,1.46-2.63,4.62-2.24,6.95-.93,2,1.12,3.69,2.85,3.54,5.36Z"/><path class="cls-5" d="M369.29,202c-1.13,3.6-4.42,6.54-9.28,5s-6-5.74-4.93-9.41,4.56-6.65,9.34-5.17S370.43,198.31,369.29,202Zm-11.65-3.54c-.64,2.32-.15,5.15,3.1,6.16s5.24-1.09,6-3.37.25-5.39-3-6.4S358.29,196,357.64,198.41Z"/><path class="cls-5" d="M383.63,200a3,3,0,0,1-2.09,2.67,3.57,3.57,0,0,1,2.06,3.43c-.25,3.25-2.74,4.11-5.73,3.87l-6.85-.53,1.11-14.6,6.85.54C381.82,195.64,383.85,197.1,383.63,200Zm-9.73,7.09,4.16.32c1.12.09,2.73-.17,2.84-1.54s-1.44-2.13-2.55-2.21l-4.17-.33Zm.47-6.18,4.16.33c1.71.13,2.33-.56,2.39-1.39.05-.67-.4-1.84-2.13-2l-4.17-.33Z"/><path class="cls-5" d="M399.65,208.77l-3.22.4-4.77-4.34-2.61.32.59,4.86-2.71.33-1.76-14.54c2.28-.28,4.56-.54,6.84-.83,3.38-.39,5.44,1.67,5.75,4.18a4.34,4.34,0,0,1-3.08,5l4.95,4.43ZM388.19,198l.56,4.64,4.13-.51a2.34,2.34,0,1,0-.57-4.64Z"/><path class="cls-5" d="M412.57,204.66l-10.29,3.39-4.48-13.92,10.3-3.38.81,2.54-7.72,2.54,1,3.2,7.45-2.45.79,2.44L403,201.48l1,3.14,7.72-2.55Z"/><path class="cls-5" d="M418.94,188.79a4.12,4.12,0,0,0-3.78.29c-1.77,1-2.2,2.24-1.67,3.19.62,1.11,2.09.68,3.71,0,2.81-1.18,5.65-1.89,7.35,1.15,1.58,2.85-.22,5.49-3,7.09-2.57,1.48-5,1.81-7.24,0l1.4-2.17a4.09,4.09,0,0,0,4.68,0c1.49-.85,2.6-2.18,1.83-3.57-.67-1.2-2.19-1-4-.2-2.75,1.16-5.51,1.83-7.11-1-1.47-2.62.49-5.16,2.8-6.5,2-1.12,4.32-1.72,6.37-.3Z"/><path class="cls-5" d="M291.34,136.87a20.63,20.63,0,0,0-.19,9.21q1.92,6.72,10.69,6.72A16.46,16.46,0,0,0,312,149.12a17.35,17.35,0,0,0,6.27-10.59q1.92-9.15-4.87-12.22-3.82-1.73-12.92-1.72l2.75-13q9-.14,12.8-1.73,6.65-2.69,8.38-10.88,1.14-5.3-1.25-8.63t-8-3.33a13.64,13.64,0,0,0-10.36,4.1A21.45,21.45,0,0,0,299.53,102h-17a53.71,53.71,0,0,1,5.18-13.11,40.22,40.22,0,0,1,9.15-10,31.92,31.92,0,0,1,9.56-5,40.14,40.14,0,0,1,12.44-1.73q13.31,0,20,6.88t4.26,18.45a25.58,25.58,0,0,1-7.81,13.82,22.38,22.38,0,0,1-7.42,4.8q2.49,0,6.27,4.28,5.57,6.47,3.2,17.66-2.49,11.78-12.54,20.69t-26,8.93q-19.71,0-24.63-12.86-2.62-6.84-.71-17.91Z"/><path class="cls-3" d="M298.77,179.65c-8.5,0-15.75-1.54-21.57-4.58a29.86,29.86,0,0,1-14.28-16c-2.56-6.68-3-14.62-1.32-24.26a12,12,0,0,1,11.83-10h15.06a12.19,12.19,0,0,1,.25-2.75l1.71-8.1h-7.93a12,12,0,0,1-11.65-14.92,65.64,65.64,0,0,1,6.34-16q.14-.26.3-.51a52.16,52.16,0,0,1,11.84-13.07l.22-.18a44.36,44.36,0,0,1,13.1-6.84,52,52,0,0,1,16.18-2.33c12.2,0,21.82,3.54,28.6,10.52,5.08,5.23,10.49,14.55,7.4,29.29a37.54,37.54,0,0,1-8.45,17.12c2.94,5.28,4.91,12.92,2.69,23.45-2.2,10.38-7.69,19.53-16.31,27.19C323.85,175.62,312.4,179.65,298.77,179.65Zm4.58-43a11.33,11.33,0,0,1-.25,2.65c-.1.5-.18.94-.23,1.33a6.66,6.66,0,0,0,1.83-1,4.65,4.65,0,0,0,1.62-2.72C305.57,136.79,304.59,136.7,303.35,136.65Zm5.22.65Zm4.21-41.6Z"/><path class="cls-5" d="M414.55,119.85q-4.92,23-14.68,35.38t-27.48,12.41q-17.72,0-22.22-12.41t.41-35.38q4.86-23,14.65-35.44t27.51-12.47q17.72,0,22.19,12.47T414.55,119.85Zm-39,33q8.12,0,12.44-8.48t7.77-24.47q3.52-16.75,2.72-24.82T389.54,87q-8.13,0-12.48,8.06t-7.86,24.82q-3.46,16-2.63,24.47T375.53,152.8Z"/><path class="cls-3" d="M372.39,179.65c-7.95,0-14.77-1.56-20.27-4.63a29,29,0,0,1-13.24-15.69c-3.83-10.53-3.84-24.26-.05-42C342.49,100.07,348,86.87,355.78,77A43.31,43.31,0,0,1,372,64.12a49.81,49.81,0,0,1,20.7-4.19c8,0,14.79,1.57,20.29,4.66a29.1,29.1,0,0,1,13.21,15.77c3.78,10.55,3.8,24.28.06,42v0c-3.71,17.28-9.26,30.46-17,40.28a43.11,43.11,0,0,1-16.24,12.83A50,50,0,0,1,372.39,179.65Zm13.89-76.05c-1.49,3.57-3.37,9.37-5.33,18.72l0,.07a122.91,122.91,0,0,0-2.23,13.34,113.69,113.69,0,0,0,5.3-18.38A137.88,137.88,0,0,0,386.28,103.6Zm28.27,16.25Z"/><path class="cls-5" d="M487.41,119.85q-4.92,23-14.68,35.38t-27.47,12.41q-17.73,0-22.23-12.41t.41-35.38q4.86-23,14.65-35.44T465.6,71.94q17.72,0,22.2,12.47T487.41,119.85Zm-39,33q8.13,0,12.44-8.48t7.78-24.47q3.51-16.75,2.71-24.82T462.4,87q-8.13,0-12.47,8.06t-7.87,24.82q-3.45,16-2.62,24.47T448.39,152.8Z"/><path class="cls-3" d="M445.26,179.65c-8,0-14.78-1.56-20.27-4.63a29.07,29.07,0,0,1-13.25-15.69c-3.83-10.53-3.84-24.26,0-42,3.66-17.29,9.2-30.49,16.95-40.36A43.35,43.35,0,0,1,444.9,64.12a49.81,49.81,0,0,1,20.7-4.19c8,0,14.79,1.57,20.29,4.66A29.06,29.06,0,0,1,499.1,80.36c3.79,10.55,3.81,24.28.06,42v0c-3.7,17.28-9.26,30.46-17,40.28a43.11,43.11,0,0,1-16.24,12.83A50,50,0,0,1,445.26,179.65Zm2.95-38.87Zm10.93-37.18c-1.49,3.57-3.37,9.37-5.33,18.72v.07a123.4,123.4,0,0,0-2.24,13.34,112.68,112.68,0,0,0,5.3-18.38A135,135,0,0,0,459.14,103.6Zm28.27,16.25h0ZM462.66,99Z"/><path class="cls-5" d="M291.34,136.87a20.63,20.63,0,0,0-.19,9.21q1.92,6.72,10.69,6.72A16.46,16.46,0,0,0,312,149.12a17.35,17.35,0,0,0,6.27-10.59q1.92-9.15-4.87-12.22-3.82-1.73-12.92-1.72l2.75-13q9-.14,12.8-1.73,6.65-2.69,8.38-10.88,1.14-5.3-1.25-8.63t-8-3.33a13.64,13.64,0,0,0-10.36,4.1A21.45,21.45,0,0,0,299.53,102h-17a53.71,53.71,0,0,1,5.18-13.11,40.22,40.22,0,0,1,9.15-10,31.92,31.92,0,0,1,9.56-5,40.14,40.14,0,0,1,12.44-1.73q13.31,0,20,6.88t4.26,18.45a25.58,25.58,0,0,1-7.81,13.82,22.38,22.38,0,0,1-7.42,4.8q2.49,0,6.27,4.28,5.57,6.47,3.2,17.66-2.49,11.78-12.54,20.69t-26,8.93q-19.71,0-24.63-12.86-2.62-6.84-.71-17.91Z"/><path class="cls-5" d="M414.55,119.85q-4.92,23-14.68,35.38t-27.48,12.41q-17.72,0-22.22-12.41t.41-35.38q4.86-23,14.65-35.44t27.51-12.47q17.72,0,22.19,12.47T414.55,119.85Zm-39,33q8.12,0,12.44-8.48t7.77-24.47q3.52-16.75,2.72-24.82T389.54,87q-8.13,0-12.48,8.06t-7.86,24.82q-3.46,16-2.63,24.47T375.53,152.8Z"/><path class="cls-5" d="M487.41,119.85q-4.92,23-14.68,35.38t-27.47,12.41q-17.73,0-22.23-12.41t.41-35.38q4.86-23,14.65-35.44T465.6,71.94q17.72,0,22.2,12.47T487.41,119.85Zm-39,33q8.13,0,12.44-8.48t7.78-24.47q3.51-16.75,2.71-24.82T462.4,87q-8.13,0-12.47,8.06t-7.87,24.82q-3.45,16-2.62,24.47T448.39,152.8Z"/></svg>