<svg id="Capa_1" data-name="Capa 1" xmlns="http://www.w3.org/2000/svg" viewBox="0 0 939 193"><defs><style>.cls-1{fill:#fff;}</style></defs><path class="cls-1" d="M129.43,46.83c9.72,0,17.33,3.56,21.37,7.77-.81,6.15-4.37,8.58-6.8,8.09a29.25,29.25,0,0,0-14.57-4.37c-11.33,0-14.89,7.13-14.89,14.25,0,7,4.21,11.82,15.22,20.72,11,8.75,19.59,16.68,19.59,29.63,0,19.59-14.74,30-33.52,30-12.14,0-19.43-4.21-23.64-8.26-1.78-1.62-2.59-3.24-2.59-4.37-.32-3.56,1.46-7.29,4.05-8.75,4.53,4.21,13.76,9.56,23.31,9.56,10.37,0,15.71-5.67,15.71-13.76,0-8.42-7.45-14.09-14.9-20.41-11-9.39-19.91-17.81-19.91-31.73,0-16.35,11.66-28.33,31.41-28.33Z"/><path class="cls-1" d="M196.79,130.53c1.13,3.57,0,9.88-2.43,12.47-5.34,6.15-12.63,9.39-21.53,9.39-10,0-13.6-8.58-11.17-25.09,1.78-12.15,4.37-27.53,5.5-35.63H157c0-3.07,2.1-11.17,5.83-11.17h6.31c2-12.46,5.18-16.67,7.61-18.13,2.27-1.3,8.91-3.08,12.63-3.08-1.29,7.13-2.43,13.93-3.88,21.21,8.42,0,16,0,18.62-.32-.65,4.69-2.27,8.26-5.19,10-2.42,1.62-8.09,1.45-15.38,1.45-2.1,11.66-4.37,30.77-5.34,37.73-1.13,6.64.16,10.2,3.08,10.2,3.88,0,9.06-3.24,15.22-9.23Z"/><path class="cls-1" d="M245.36,77.27c13,0,17.16,8.25,17.16,14.73,0,18.46-23.31,26.55-39.5,28.33a31.64,31.64,0,0,0-.16,3.89c0,9.88,3.72,15.06,11.65,15.06,9.07,0,16.52-5.35,21.7-10.69a7.67,7.67,0,0,1,2.43,5.51,12.88,12.88,0,0,1-2.43,7.6c-5.67,6.48-14.89,10.69-26.88,10.69C213,152.39,206,141.06,206,125.51c0-23.31,14.08-48.24,39.18-48.24Zm-3.88,9.55c-7.45,0-15.38,9.39-17.65,22.5,11.49-1.13,23.8-7,23.8-16,0-3.07-1.46-6.47-6-6.47Z"/><path class="cls-1" d="M333.44,84.71c0,9.72-5.5,22.83-10.85,31.25-8.9,13.93-18.94,24.61-26.23,30.76a26.6,26.6,0,0,1-5,2.92,31.27,31.27,0,0,1-8.9,2.75c-2.27-1.78-3.89-12.3-4.53-18.94-1.14-13.93-2.43-42.75-2.43-54.24,2.43-.81,13.27-1.94,15.7-1.94,1.3,0,1.62,1,1.62,3.72-.16,15.87,0,25.26,1,41.45.17,3.72.49,6.64,1.3,8.09,10.52-9.39,24.77-31.57,24.77-47.92a38.67,38.67,0,0,0-.16-4,117.58,117.58,0,0,1,12-1.29c1.3,0,1.78,4.37,1.78,7.28Z"/><path class="cls-1" d="M362.1,77.27c1.78,0,2.11.8,1.62,4.53-2.91,22.34-7,51.65-8.26,61.85C355,146.89,354,148.34,353,149c-1.3,1.13-9.07,2.59-16,2.75,1.45-10.68,4.53-27.68,6.31-42.26,2.27-17.48,3.4-26.06,3.24-28.81,1.94-1,13.6-3.4,15.38-3.4ZM358.7,44.4c3.08,0,8.1.81,8.42,8.9.33,7.61-5.34,11.5-9.55,11.5-3.56,0-8.1-1.78-8.42-8.91-.32-8.74,6.15-11.49,9.39-11.49Z"/><path class="cls-1" d="M372.79,129.56c0-8.42,2.75-26.23,15.22-39.18,11-11.33,24.77-13.11,32.7-13.11,6.32,0,16.52,2.26,22.83,3.56-1.62,6.47-5.5,32.54-7.12,48.57-.49,4.37-1.62,15.22-1.13,20.24-4.7,2.1-12.31,2.91-14.74,2.91-1.29,0-1.78-7.45-.81-16.35.16-1.78.65-6,.65-6.8-7.45,13.76-20.56,23-33,23-9.07,0-14.57-7.61-14.57-22.67Zm22.83,9.23c10.36,0,25.58-18.78,29.79-43.88a32.13,32.13,0,0,1,1-4.85,21.75,21.75,0,0,0-7.45-1.46c-7.28,0-14.41,2.91-19.91,10.36-6.64,8.91-9.23,19.92-9.23,29,0,6.32,1.78,10.85,5.67,10.85Z"/><path class="cls-1" d="M494.55,62.69c-.65-2.75,1.13-8.09,3.88-9.87a133.17,133.17,0,0,1,31.09-4.38c33.35,0,52.46,14.9,52.46,48.09,0,35.62-25.74,55.54-59.1,55.54a123.23,123.23,0,0,1-31.73-4.21c4.05-26.23,7.28-50.84,9.55-67.19,1.3-8.59,2.27-14.9,2.92-19.11-3.24.32-7,1-8.75,1.29Zm34-2.91c-3.08,0-6.15.16-7.45.32-2.91,20.73-6.64,49.06-10.52,79.82,2.43.81,7.77,1.46,12.63,1.46,20.07,0,39.83-12.95,39.83-44.52C563,74.67,552.67,59.78,528.55,59.78Z"/><path class="cls-1" d="M613.88,102.2C623,82,633.47,77.27,639.14,77.27a7.45,7.45,0,0,1,6,2.59c0,4.53-3.4,13.11-6.48,17a17.84,17.84,0,0,0-5.83-1.3c-5.66,0-17.81,9.55-24.61,48.74-.48,3.07-1.45,4.2-2.26,4.85-1.46,1.14-11.66,2.43-16,2.59,2.43-12.63,6.64-40.8,8.25-55.53A61.77,61.77,0,0,0,598.5,81c3.07-1.62,11.33-3.72,14.57-3.72,1.78,0,3.56,5.18.49,24.93Z"/><path class="cls-1" d="M684.15,77.27c19.27,0,26.55,13.11,26.55,28.65,0,27-16.67,46.47-40.31,46.47-16.19,0-26.07-7.93-26.07-27.52,0-24.61,13.93-47.6,39.67-47.6Zm-1.62,10.2c-11.49,0-20.07,19.1-20.07,39.5,0,9.07,3.39,15.06,9.87,15.06,11.17,0,20.24-18,20.24-40.16,0-6.47-2.1-14.4-9.88-14.4Z"/><path class="cls-1" d="M744.87,98.31c7.77-11.82,18.94-21,30.6-21,13.44,0,17.65,13,17.65,23.79,0,25.1-14.09,51.33-41,51.33-7.6,0-12.3-2.43-15.38-5.18-1.45,8.9-3.56,22.18-4.37,28.5-.65,4.37-1.46,6.63-3.88,7.28a53.59,53.59,0,0,1-13.93,2.11c4.21-25.75,8.42-52.95,12.31-80.47,1.29-8.58,2.91-21.21,3.4-24.94,2.91-2.26,13.92-5.34,17.65-4.53-.33,3.56-2.76,18.3-3.4,23.15Zm23.48-6.64C758,91.67,743.57,108.51,740,131a28.88,28.88,0,0,1-.81,3.88,15,15,0,0,0,11,4.7c16.35,0,25.26-18,25.26-36.43,0-6.64-2.27-11.5-7-11.5Z"/><path class="cls-1" d="M831,77.27c7.77,0,13,2.91,14.9,5.18.16,4.21-3.89,9.55-7.61,8.25-2.43-.81-5-1.94-8.42-1.94-5.35,0-9.88,2.59-9.88,8.1,0,4.37,3.4,6.63,14.25,14.89,6.47,4.86,9.55,9.39,9.55,17,0,10.36-10.2,23.64-28.33,23.64-7.61,0-14.58-3.07-17-6.64-2-3.56-.81-12.14,1.94-11,4.53,2.59,11.33,5.35,16.68,5.35,6.31,0,10.2-3.24,10.2-7.78,0-3.07-2.11-5.82-12.63-13.6-7.29-5.5-10.53-10.52-10.53-17.32,0-13,11.17-24.12,26.72-24.12Z"/><path class="cls-1" d="M896.27,52.27c3-.14,8.57-.94,14.06-.55,7.34.53,12.27,5,15.16,11.7,3.79,8.8.34,16.8-9.14,20.33a23.43,23.43,0,0,1-9.85,1.52,88.86,88.86,0,0,1-32.28-8.62c-5.06-2.53-5.76-5.37-1.72-9.21C878.72,61.51,885.48,56.21,896.27,52.27Z"/><path class="cls-1" d="M890.17,17.92a13.49,13.49,0,0,1-1.59,12.84,71.36,71.36,0,0,1-10,11.39c-4.64,4.3-9.79,8-14.71,12-2.74,2.21-4.34,1.85-4.54-1.65a56.6,56.6,0,0,1,.54-14.08,196.45,196.45,0,0,1,5.74-21.54,12.94,12.94,0,0,1,8.21-8.17C880.3,6.39,887.68,10.56,890.17,17.92Z"/><path class="cls-1" d="M42.73,52.09c-3-.14-8.57-.94-14.06-.55-7.34.53-12.27,5-15.16,11.7C9.72,72,13.17,80,22.65,83.57a23.27,23.27,0,0,0,9.85,1.51,88.85,88.85,0,0,0,32.28-8.61c5.06-2.53,5.76-5.37,1.72-9.21C60.28,61.33,53.52,56,42.73,52.09Z"/><path class="cls-1" d="M48.83,17.74a13.49,13.49,0,0,0,1.59,12.84A71.36,71.36,0,0,0,60.43,42c4.64,4.29,9.79,8,14.71,12,2.74,2.21,4.34,1.85,4.54-1.65a56.6,56.6,0,0,0-.54-14.08A196.45,196.45,0,0,0,73.4,16.73a12.92,12.92,0,0,0-8.21-8.17C58.7,6.2,51.32,10.38,48.83,17.74Z"/></svg>