<svg id="Capa_1" data-name="Capa 1" xmlns="http://www.w3.org/2000/svg" viewBox="0 0 1054 176"><defs><style>.cls-1{fill:#fff;}</style></defs><path class="cls-1" d="M25.64,142.44c-8.59,0-13.25-5.52-13.25-11.77,0-7,4.13-10.7,10.17-14.31,5.41-3.28,7.21-5.08,7.21-8,0-2.54-2.44-5-7.1-5-1.17,0-1.91-.1-2.44-.1a6.35,6.35,0,0,1,.85-3.4c.85-1.69,3-2.75,5.83-2.75,7.73,0,13.56,4.45,13.56,12,0,5.51-4.24,9.75-10.17,13.56-4.88,3.18-7.42,5.2-7.42,8.16,0,2.12,2.23,3.71,5.19,3.71a18.31,18.31,0,0,0,6.79-1.69c1.69-.74,3.71-.64,3.92,2.86a5.78,5.78,0,0,1-.21,2.33,20,20,0,0,1-12.83,4.35ZM32,90.71c-3.7,0-5.82-2.75-5.82-6.36,0-4.34,2.86-7.41,7-7.41s6,3.07,6,6.25c0,3.92-2.44,7.52-7.1,7.52Z"/><path class="cls-1" d="M86.26,86.69c-1.7,6.67-4.13,7-8,7H64.53l-3.07,23.53c2,.53,5.93.64,12.51.64,6.14,0,10.91-.22,13.35-.43l.11.21a10.93,10.93,0,0,1-5.3,6.58c-1.59.42-4.77.63-13.15.63-10.17,0-15.79-.53-18.33-1.06l-1.38-2.12L56.16,72.8c.74-5,1.06-8.69,1.59-13.35A56.81,56.81,0,0,1,68,58c5.41-.1,16.32,0,22.79,0a9,9,0,0,1-3.39,6.36C85.73,65,83,65,78.52,65h-10l-3,21.73Z"/><path class="cls-1" d="M108.94,91.46c5.83-9.86,12.4-15.16,20.56-15.16,7.1,0,9.54,6.25,8.27,15.9-.53,3.6-1.8,10.6-2.86,18.23a82.34,82.34,0,0,0-1.27,13.25c-1.8,1.16-8.8,1.8-10.39,1.8-.64,0-1.06-4.45.11-11.87.84-4.88,2.65-15,3.6-21,.32-2.65.74-6.89-3-6.89-5.19,0-15.15,8.38-19.39,33.39-.32,2-.85,3.5-2.33,4.45-1.28.64-4.35,1.38-9.65,1.48,1.17-6.46,3.07-20.66,4.66-30.31,1.06-7.21,1.49-13.57,1.17-16.21a76.47,76.47,0,0,1,10.39-2.23c.84,0,1.48,2.76.31,11.87a21.79,21.79,0,0,1-.53,3.29Z"/><path class="cls-1" d="M169,110.43c0-13.57,8-34.13,31.37-34.13a63.48,63.48,0,0,1,16.22,2.54c-2.12,10.5-6.26,40.28-9.44,62.85-.31,2.12-.74,3.08-2.22,3.71-2.23,1-7,1.49-9.65,1.49,1.17-5.62,3.71-23.32,5.62-35.83-4.13,7.32-12.5,14.42-21.62,14.42-6.47,0-10.28-5.41-10.28-15Zm11.34-1.91c0,5.72,1.91,7.84,4.24,7.84,5,0,16.53-8.69,19.61-28.3a25.06,25.06,0,0,0,.42-3.49,18.94,18.94,0,0,0-6-1c-12.82,0-18.23,15.48-18.23,24.8Z"/><path class="cls-1" d="M251.71,111.59c-4.77,8-10.92,13.89-19.92,13.89-9.23,0-9.75-8.59-8.48-16.85.95-6.26,2-11.56,2.75-16,1.49-9.54,1.7-12.29,1.91-14a56.54,56.54,0,0,1,10.49-2.33c.85,0,1.27,1,.75,3.82-1.06,6.57-3.18,19.29-4.77,28.93-1,6.36.74,7.21,3,7.21,4.45,0,14.84-9.12,18.55-34,.43-2.87.95-3.82,2.33-4.35a30.08,30.08,0,0,1,9.54-1.59c-2.12,8.27-4.24,25.54-5.3,34.13a96.25,96.25,0,0,0-.74,13.25c-3.07,1.37-8.16,1.8-9.86,1.8-.63,0-.95-3.18,0-13.78Z"/><path class="cls-1" d="M299.51,76.3c8.48,0,11.24,5.41,11.24,9.64,0,12.09-15.27,17.39-25.86,18.55a19.7,19.7,0,0,0-.11,2.55c0,6.46,2.44,9.85,7.63,9.85,5.94,0,10.81-3.49,14.2-7a5,5,0,0,1,1.59,3.6,8.44,8.44,0,0,1-1.59,5c-3.71,4.24-9.75,7-17.59,7-10.71,0-15.26-7.42-15.26-17.6,0-15.26,9.22-31.58,25.65-31.58ZM297,82.55c-4.88,0-10.07,6.15-11.55,14.74,7.52-.75,15.58-4.56,15.58-10.5,0-2-1-4.24-3.93-4.24ZM308.73,55c.64.53.64,1-.21,2-4,4.66-8.16,10.49-10.7,13.88a7.51,7.51,0,0,1-3.61-1.59c-.53-.42-.84-1.16-.31-2.75,1.48-4.13,5.19-14.31,7.84-14.42S307.14,53.62,308.73,55Z"/><path class="cls-1" d="M352.29,119.75c-.31,2.23-1,3.18-1.9,3.61a32,32,0,0,1-10.18,1.69c1.49-10.17,6.79-46.42,8-55.75,1.49-11,1.8-13.67,1.8-15.79A50.65,50.65,0,0,1,360,52.13c1.17,0,1.59.85,1.27,3.29C359.71,68.77,354.1,107.78,352.29,119.75Z"/><path class="cls-1" d="M363.64,110.53c0-5.51,1.8-17.17,10-25.65,7.21-7.41,16.21-8.58,21.41-8.58,4.13,0,10.81,1.48,14.94,2.33-1.06,4.24-3.6,21.3-4.66,31.8-.32,2.86-1.06,10-.74,13.25a30.2,30.2,0,0,1-9.65,1.9c-.85,0-1.16-4.87-.53-10.7.11-1.17.43-3.92.43-4.45-4.88,9-13.46,15-21.63,15-5.93,0-9.53-5-9.53-14.84Zm14.94,6c6.78,0,16.75-12.3,19.5-28.73a20.7,20.7,0,0,1,.64-3.18,14.27,14.27,0,0,0-4.88-1,15.66,15.66,0,0,0-13,6.78,32.37,32.37,0,0,0-6.05,19c0,4.14,1.17,7.11,3.71,7.11Z"/><path class="cls-1" d="M456.38,90.08c5.08-7.74,12.4-13.78,20-13.78,8.8,0,11.55,8.48,11.55,15.58,0,16.43-9.22,33.6-26.81,33.6-5,0-8.06-1.59-10.07-3.39-1,5.83-2.33,14.52-2.86,18.65-.43,2.86-1,4.35-2.55,4.77a35,35,0,0,1-9.11,1.38c2.75-16.85,5.51-34.66,8.05-52.68.85-5.62,1.91-13.88,2.23-16.32,1.91-1.48,9.11-3.5,11.55-3-.21,2.33-1.8,12-2.23,15.16Zm15.36-4.35c-6.78,0-16.21,11-18.54,25.76a22.29,22.29,0,0,1-.53,2.54,9.8,9.8,0,0,0,7.2,3.07c10.71,0,16.54-11.76,16.54-23.84,0-4.35-1.49-7.53-4.56-7.53Z"/><path class="cls-1" d="M523.68,111.59c-4.77,8-10.92,13.89-19.93,13.89-9.22,0-9.75-8.59-8.47-16.85,1-6.26,2-11.56,2.75-16,1.49-9.54,1.7-12.29,1.91-14a56.36,56.36,0,0,1,10.49-2.33c.85,0,1.27,1,.74,3.82-1.06,6.57-3.18,19.29-4.77,28.93-.95,6.36.75,7.21,3,7.21,4.45,0,14.84-9.12,18.55-34,.42-2.87,1-3.82,2.33-4.35a30,30,0,0,1,9.54-1.59c-2.12,8.27-4.24,25.54-5.3,34.13a96.25,96.25,0,0,0-.74,13.25c-3.07,1.37-8.16,1.8-9.86,1.8-.63,0-.95-3.18,0-13.78Z"/><path class="cls-1" d="M571.48,76.3c8.48,0,11.23,5.41,11.23,9.64,0,12.09-15.26,17.39-25.86,18.55a21.66,21.66,0,0,0-.1,2.55c0,6.46,2.44,9.85,7.63,9.85,5.93,0,10.81-3.49,14.2-7a5,5,0,0,1,1.59,3.6,8.44,8.44,0,0,1-1.59,5c-3.71,4.24-9.75,7-17.59,7-10.71,0-15.26-7.42-15.26-17.6,0-15.26,9.22-31.58,25.65-31.58Zm-2.54,6.25c-4.88,0-10.07,6.15-11.56,14.74,7.53-.75,15.58-4.56,15.58-10.5,0-2-1-4.24-3.92-4.24Z"/><path class="cls-1" d="M597.66,125.48c-6.46,0-10.49-5.73-10.49-15.79,0-17.07,10.6-33.39,28.4-33.39a15.61,15.61,0,0,1,7.95,2.23c.74-5,3-20.46,3.29-24.91a63.17,63.17,0,0,1,9.86-1.49c1,0,1.37.85,1.05,3.18-2.75,17.07-6.78,46.74-7.73,55.12a85.44,85.44,0,0,0-.43,13.46c-3,1.27-8.37,1.59-10.07,1.59-.74,0-1.16-5.51-.74-11.56.11-1.37.43-3.39.43-3.81-6,10.17-12.72,15.37-21.41,15.37Zm5.41-9.12c6.25,0,16.11-12.08,18.65-27.24.21-1.27.42-2.12.64-3.28a9.39,9.39,0,0,0-6.47-2.23c-11.66,0-17.27,13.68-17.27,24.7,0,4.45,1.59,8,4.34,8Z"/><path class="cls-1" d="M666.87,76.3c12.61,0,17.38,8.58,17.38,18.76,0,17.7-10.91,30.42-26.39,30.42-10.6,0-17.06-5.2-17.06-18,0-16.11,9.11-31.16,26-31.16ZM665.81,83c-7.52,0-13.14,12.5-13.14,25.86,0,5.93,2.23,9.85,6.46,9.85,7.32,0,13.25-11.76,13.25-26.28,0-4.24-1.38-9.43-6.46-9.43Z"/><path class="cls-1" d="M744.88,111.59c-4.77,8-10.92,13.89-19.93,13.89-9.22,0-9.75-8.59-8.47-16.85.95-6.26,2-11.56,2.75-16,1.48-9.54,1.7-12.29,1.91-14a56.36,56.36,0,0,1,10.49-2.33c.85,0,1.27,1,.74,3.82-1.06,6.57-3.18,19.29-4.77,28.93-1,6.36.75,7.21,3,7.21,4.45,0,14.84-9.12,18.55-34,.42-2.87,1-3.82,2.33-4.35A30.08,30.08,0,0,1,761,76.3c-2.12,8.27-4.24,25.54-5.3,34.13a96.25,96.25,0,0,0-.74,13.25c-3.07,1.37-8.16,1.8-9.86,1.8-.63,0-1-3.18,0-13.78Z"/><path class="cls-1" d="M793,111.17c.74,2.33,0,6.46-1.59,8.16a17.91,17.91,0,0,1-14.1,6.15c-6.57,0-8.9-5.62-7.31-16.43,1.17-8,2.86-18,3.6-23.32h-6.67c0-2,1.37-7.31,3.81-7.31h4.13c1.28-8.16,3.4-10.92,5-11.87a23,23,0,0,1,8.26-2c-.84,4.66-1.59,9.11-2.54,13.88,5.51,0,10.49,0,12.19-.21-.43,3.07-1.49,5.4-3.39,6.57-1.59,1.06-5.3,1-10.07,1-1.38,7.63-2.86,20.14-3.5,24.7-.74,4.34.11,6.67,2,6.67,2.55,0,5.94-2.11,10-6Z"/><path class="cls-1" d="M813.56,76.3c1.17,0,1.38.53,1.06,3-1.91,14.62-4.56,33.81-5.4,40.48-.32,2.12-1,3.08-1.59,3.5-.85.74-5.94,1.7-10.5,1.8,1-7,3-18.12,4.14-27.66,1.48-11.45,2.22-17.06,2.12-18.86a58.88,58.88,0,0,1,10.07-2.23Zm-2.23-21.52c2,0,5.3.53,5.52,5.83.21,5-3.5,7.53-6.26,7.53-2.33,0-5.3-1.17-5.51-5.83-.21-5.72,4-7.53,6.15-7.53Z"/><path class="cls-1" d="M833,119.75c-.32,2.23-1,3.18-1.91,3.61a32,32,0,0,1-10.18,1.69c1.49-10.17,6.79-46.42,8-55.75,1.49-11,1.8-13.67,1.8-15.79a50.75,50.75,0,0,1,10.07-1.38c1.17,0,1.59.85,1.28,3.29C840.38,68.77,834.76,107.78,833,119.75Z"/><path class="cls-1" d="M860.83,76.3c1.17,0,1.38.53,1.06,3-1.91,14.62-4.56,33.81-5.4,40.48-.32,2.12-1,3.08-1.59,3.5-.85.74-5.94,1.7-10.5,1.8,1-7,3-18.12,4.14-27.66,1.48-11.45,2.22-17.06,2.12-18.86a58.88,58.88,0,0,1,10.07-2.23Zm-2.22-21.52c2,0,5.3.53,5.51,5.83.21,5-3.5,7.53-6.25,7.53-2.34,0-5.3-1.17-5.52-5.83-.21-5.72,4-7.53,6.15-7.53Z"/><path class="cls-1" d="M890,77.57c10.81,0,13.46-.1,14.52-.21a16.93,16.93,0,0,1-2.33,6c-2.23,4.35-14.95,23.53-22,32.86.75.53,3.71.74,9.22.74,8.16,0,12.51-.21,13.68-.64.21,2.55-2.55,6.68-4.24,7.53s-5.09,1-14.95,1c-14.84,0-18.23-.74-19.5-2.22-.21-.64-.42-1.17-.63-1.7,5.08-5.72,21.83-28.51,25.64-35.61-3.39.11-4.34.11-9.54.11-6.88,0-12.08.21-11.23-2.44a16.45,16.45,0,0,1,4.24-6.47c1.17.85,2,1.06,17.06,1.06Z"/><path class="cls-1" d="M907.26,110.53c0-5.51,1.8-17.17,10-25.65,7.21-7.41,16.21-8.58,21.41-8.58,4.13,0,10.81,1.48,14.94,2.33-1.06,4.24-3.6,21.3-4.66,31.8-.32,2.86-1.06,10-.74,13.25a30.2,30.2,0,0,1-9.65,1.9c-.85,0-1.16-4.87-.53-10.7.11-1.17.43-3.92.43-4.45-4.88,9-13.46,15-21.63,15-5.93,0-9.53-5-9.53-14.84Zm14.94,6c6.78,0,16.75-12.3,19.5-28.73a20.7,20.7,0,0,1,.64-3.18,14.27,14.27,0,0,0-4.88-1,15.66,15.66,0,0,0-13,6.78,32.37,32.37,0,0,0-6,19c0,4.14,1.17,7.11,3.71,7.11Z"/><path class="cls-1" d="M974,92.62C980,79.37,986.85,76.3,990.56,76.3a4.89,4.89,0,0,1,3.93,1.7c0,3-2.23,8.58-4.24,11.12a11.89,11.89,0,0,0-3.82-.84c-3.71,0-11.66,6.25-16.11,31.9-.32,2-1,2.75-1.48,3.18-1,.74-7.63,1.59-10.5,1.69,1.59-8.26,4.35-26.71,5.41-36.35a40.09,40.09,0,0,0,.21-10,30.85,30.85,0,0,1,9.54-2.44c1.17,0,2.33,3.39.32,16.32Z"/><path class="cls-1" d="M1014.94,59.87c7.63,0,13.36,4.56,13.36,12.4,0,6.57-4.24,10.18-10.18,13.78-5.19,3.18-7.1,5-7,8,.1,2.54,2.22,4.88,6.89,4.88a16.6,16.6,0,0,0,2.54-.11c.21,4.24-2.86,6.36-6.68,6.36-7.63,0-13-4.45-13.35-11.77-.32-5.61,4.24-9.85,10.17-13.88,4.88-3.29,7.1-5.09,7.1-8,0-2.44-2.12-3.82-5-3.82a19.43,19.43,0,0,0-6.89,1.7c-1.59.74-3.71.64-3.92-2.86a5.89,5.89,0,0,1,0-2.33c3.39-3,8.37-4.35,12.83-4.35ZM1009,111.59c3.81,0,5.72,2.87,5.72,6.58a6.73,6.73,0,0,1-6.78,7.2c-4,0-6.26-2.22-6.26-6.15,0-4.34,3-7.63,7.21-7.63Z"/></svg>