<svg id="Capa_1" data-name="Capa 1" xmlns="http://www.w3.org/2000/svg" viewBox="0 0 640 208"><defs><style>.cls-1{fill:#fff;}</style></defs><path class="cls-1" d="M34.48,109.88c-8.59,0-13.25-5.51-13.25-11.76,0-7,4.13-10.7,10.17-14.31,5.41-3.28,7.21-5.09,7.21-8,0-2.54-2.44-5-7.1-5-1.16,0-1.91-.11-2.44-.11a6.53,6.53,0,0,1,.85-3.39c.85-1.69,3-2.75,5.83-2.75,7.74,0,13.57,4.45,13.57,12,0,5.52-4.24,9.75-10.18,13.57-4.87,3.18-7.42,5.19-7.42,8.16,0,2.12,2.23,3.71,5.2,3.71a18.25,18.25,0,0,0,6.78-1.69c1.7-.75,3.71-.64,3.92,2.86a5.63,5.63,0,0,1-.21,2.33c-3.29,2.86-8.16,4.34-12.83,4.34Zm6.36-51.72c-3.71,0-5.83-2.75-5.83-6.36,0-4.34,2.86-7.42,7-7.42s6,3.08,6,6.26c0,3.92-2.44,7.52-7.11,7.52Z"/><path class="cls-1" d="M95.1,54.13c-1.69,6.68-4.13,7-7.95,7H73.38L70.3,84.66c2,.53,5.94.64,12.51.64,6.15,0,10.92-.22,13.35-.43l.11.21A10.85,10.85,0,0,1,91,91.65c-1.59.43-4.77.64-13.14.64-10.18,0-15.79-.53-18.34-1.06l-1.38-2.12L65,40.25c.75-5,1.06-8.69,1.59-13.35a56.81,56.81,0,0,1,10.28-1.49c5.41-.1,16.33,0,22.79,0-.42,3.82-2.12,5.09-3.39,6.36-1.7.64-4.45.64-8.9.64h-10l-3,21.72Z"/><path class="cls-1" d="M117.79,58.9c5.82-9.85,12.4-15.15,20.56-15.15,7.1,0,9.54,6.25,8.26,15.9-.53,3.6-1.8,10.6-2.86,18.23a82.34,82.34,0,0,0-1.27,13.24c-1.8,1.17-8.8,1.81-10.39,1.81-.63,0-1.06-4.46.11-11.87.85-4.88,2.65-15,3.6-21,.32-2.65.75-6.89-3-6.89-5.2,0-15.16,8.37-19.4,33.39-.32,2-.85,3.49-2.33,4.45-1.27.63-4.35,1.38-9.65,1.48,1.17-6.46,3.08-20.66,4.67-30.31,1.06-7.21,1.48-13.57,1.16-16.22a77.87,77.87,0,0,1,10.39-2.22c.85,0,1.48,2.75.32,11.87a24.49,24.49,0,0,1-.53,3.28Z"/><path class="cls-1" d="M177.88,77.88c0-13.57,8-34.13,31.38-34.13a63.47,63.47,0,0,1,16.21,2.54c-2.12,10.49-6.25,40.28-9.43,62.85-.32,2.12-.74,3.08-2.23,3.71-2.22,1-7,1.49-9.64,1.49,1.16-5.62,3.71-23.32,5.62-35.83-4.14,7.32-12.51,14.42-21.63,14.42-6.46,0-10.28-5.41-10.28-15ZM189.22,76c0,5.72,1.91,7.84,4.24,7.84,5,0,16.54-8.69,19.61-28.3a23.6,23.6,0,0,0,.42-3.5,19.2,19.2,0,0,0-6-.95c-12.82,0-18.23,15.48-18.23,24.8Z"/><path class="cls-1" d="M260.55,79c-4.76,7.95-10.91,13.89-19.92,13.89-9.22,0-9.75-8.59-8.48-16.86.95-6.25,2-11.55,2.76-16,1.48-9.54,1.69-12.29,1.9-14,1.17-.64,9-2.33,10.5-2.33.84,0,1.27,1,.74,3.81-1.06,6.57-3.18,19.29-4.77,28.94-.95,6.36.74,7.21,3,7.21,4.45,0,14.84-9.12,18.54-34,.43-2.86,1-3.81,2.34-4.34a29.76,29.76,0,0,1,9.54-1.59c-2.12,8.26-4.24,25.54-5.3,34.13a97.87,97.87,0,0,0-.75,13.24c-3.07,1.38-8.16,1.81-9.85,1.81-.64,0-1-3.18,0-13.78Z"/><path class="cls-1" d="M308.36,43.75c8.47,0,11.23,5.4,11.23,9.64,0,12.09-15.26,17.38-25.86,18.55a19.63,19.63,0,0,0-.11,2.54c0,6.47,2.44,9.86,7.63,9.86,5.94,0,10.82-3.5,14.21-7a5,5,0,0,1,1.59,3.6,8.44,8.44,0,0,1-1.59,5c-3.71,4.24-9.75,7-17.6,7-10.7,0-15.26-7.42-15.26-17.6,0-15.26,9.22-31.58,25.65-31.58ZM305.81,50c-4.87,0-10.07,6.15-11.55,14.73,7.52-.74,15.58-4.55,15.58-10.49,0-2-.95-4.24-3.92-4.24Zm11.77-27.56c.63.53.63,1-.22,2-4,4.66-8.16,10.49-10.7,13.88a7.56,7.56,0,0,1-3.6-1.59c-.53-.42-.85-1.16-.32-2.75,1.48-4.14,5.19-14.31,7.84-14.42S316,21.07,317.58,22.44Z"/><path class="cls-1" d="M365.48,57.53c5.09-7.74,12.4-13.78,20-13.78,8.79,0,11.55,8.48,11.55,15.58,0,16.43-9.22,33.6-26.82,33.6-5,0-8.05-1.59-10.07-3.4-.95,5.83-2.33,14.52-2.86,18.66-.42,2.86-.95,4.34-2.54,4.77a35,35,0,0,1-9.12,1.38c2.76-16.86,5.52-34.66,8.06-52.68.85-5.62,1.91-13.88,2.23-16.32,1.9-1.49,9.11-3.5,11.55-3-.21,2.33-1.8,12-2.23,15.16Zm15.37-4.35c-6.78,0-16.21,11-18.55,25.76a18.61,18.61,0,0,1-.53,2.54A9.84,9.84,0,0,0,369,84.55c10.71,0,16.54-11.76,16.54-23.84,0-4.35-1.49-7.53-4.56-7.53Z"/><path class="cls-1" d="M432.79,79C428,87,421.87,92.93,412.86,92.93c-9.22,0-9.75-8.59-8.48-16.86,1-6.25,2-11.55,2.76-16,1.48-9.54,1.7-12.29,1.91-14,1.16-.64,9-2.33,10.49-2.33.85,0,1.27,1,.74,3.81-1.06,6.57-3.18,19.29-4.77,28.94-.95,6.36.74,7.21,3,7.21,4.45,0,14.84-9.12,18.55-34,.42-2.86,1-3.81,2.33-4.34a29.76,29.76,0,0,1,9.54-1.59c-2.12,8.26-4.24,25.54-5.3,34.13a96.2,96.2,0,0,0-.74,13.24c-3.08,1.38-8.16,1.81-9.86,1.81-.64,0-.95-3.18,0-13.78Z"/><path class="cls-1" d="M480.59,43.75c8.48,0,11.23,5.4,11.23,9.64,0,12.09-15.26,17.38-25.86,18.55a21.57,21.57,0,0,0-.1,2.54c0,6.47,2.43,9.86,7.63,9.86,5.93,0,10.81-3.5,14.2-7a5,5,0,0,1,1.59,3.6,8.44,8.44,0,0,1-1.59,5c-3.71,4.24-9.75,7-17.59,7-10.71,0-15.27-7.42-15.27-17.6,0-15.26,9.22-31.58,25.65-31.58ZM478.05,50c-4.88,0-10.07,6.15-11.56,14.73,7.53-.74,15.58-4.55,15.58-10.49,0-2-.95-4.24-3.92-4.24Z"/><path class="cls-1" d="M506.77,92.93c-6.47,0-10.49-5.73-10.49-15.8,0-17.06,10.6-33.38,28.4-33.38a15.74,15.74,0,0,1,8,2.22c.74-5,3-20.45,3.29-24.9a63.22,63.22,0,0,1,9.85-1.49c1,0,1.38.85,1.06,3.18-2.75,17.07-6.78,46.74-7.74,55.12a85.34,85.34,0,0,0-.42,13.46c-3,1.27-8.37,1.59-10.07,1.59-.74,0-1.16-5.51-.74-11.56.11-1.37.42-3.39.42-3.81-6,10.17-12.71,15.37-21.4,15.37Zm5.4-9.12c6.26,0,16.11-12.08,18.66-27.24.21-1.27.42-2.12.63-3.28A9.36,9.36,0,0,0,525,51.06c-11.66,0-17.28,13.67-17.28,24.7,0,4.45,1.59,8,4.35,8Z"/><path class="cls-1" d="M575.45,43.75c8.48,0,11.23,5.4,11.23,9.64,0,12.09-15.26,17.38-25.86,18.55a21.57,21.57,0,0,0-.1,2.54c0,6.47,2.44,9.86,7.63,9.86,5.93,0,10.81-3.5,14.2-7a5,5,0,0,1,1.59,3.6,8.44,8.44,0,0,1-1.59,5c-3.71,4.24-9.75,7-17.59,7-10.71,0-15.27-7.42-15.27-17.6,0-15.26,9.23-31.58,25.65-31.58ZM572.91,50c-4.88,0-10.07,6.15-11.56,14.73,7.53-.74,15.58-4.55,15.58-10.49,0-2-.95-4.24-3.92-4.24Z"/><path class="cls-1" d="M612,43.75c5.08,0,8.48,1.91,9.75,3.39.1,2.76-2.55,6.25-5,5.41a16,16,0,0,0-5.52-1.28c-3.49,0-6.46,1.7-6.46,5.3,0,2.86,2.23,4.35,9.33,9.75,4.24,3.18,6.25,6.15,6.25,11.13,0,6.79-6.68,15.48-18.55,15.48-5,0-9.54-2-11.13-4.35-1.27-2.33-.53-8,1.27-7.21,3,1.7,7.42,3.5,10.92,3.5,4.14,0,6.68-2.12,6.68-5.09,0-2-1.38-3.81-8.27-8.9-4.77-3.6-6.89-6.89-6.89-11.34,0-8.48,7.32-15.79,17.49-15.79Z"/><path class="cls-1" d="M162.78,174.43c-4.77,7.95-10.92,13.89-19.93,13.89-9.22,0-9.75-8.59-8.47-16.86,1-6.25,2-11.55,2.75-16,1.48-9.54,1.7-12.29,1.91-14,1.16-.64,9-2.33,10.49-2.33.85,0,1.27,1,.74,3.81-1.06,6.57-3.18,19.29-4.77,28.94-.95,6.36.75,7.2,3,7.2,4.45,0,14.84-9.11,18.55-34,.42-2.86.95-3.81,2.33-4.34a29.76,29.76,0,0,1,9.54-1.59c-2.12,8.26-4.24,25.54-5.3,34.13a96.2,96.2,0,0,0-.74,13.24c-3.08,1.38-8.16,1.81-9.86,1.81-.63,0-1-3.18,0-13.78Z"/><path class="cls-1" d="M210.9,174c.74,2.33,0,6.46-1.59,8.16a17.91,17.91,0,0,1-14.1,6.15c-6.57,0-8.9-5.62-7.31-16.43,1.16-7.95,2.86-18,3.6-23.32h-6.68c0-2,1.38-7.31,3.82-7.31h4.13c1.28-8.16,3.4-10.92,5-11.87a23,23,0,0,1,8.26-2c-.85,4.67-1.59,9.12-2.54,13.89,5.51,0,10.49,0,12.19-.21-.43,3.07-1.49,5.4-3.39,6.57-1.59,1.06-5.3.95-10.07.95-1.38,7.63-2.87,20.14-3.5,24.7-.74,4.34.1,6.67,2,6.67,2.55,0,5.94-2.12,10-6Z"/><path class="cls-1" d="M231.46,139.14c1.17,0,1.38.53,1.06,3-1.91,14.62-4.56,33.81-5.41,40.48-.31,2.12-1,3.08-1.59,3.5-.84.74-5.93,1.7-10.49,1.8,1-7,3-18.12,4.14-27.66,1.48-11.45,2.22-17.06,2.12-18.87a59.9,59.9,0,0,1,10.06-2.22Zm-2.23-21.52c2,0,5.3.53,5.52,5.83.21,5-3.5,7.53-6.26,7.53-2.33,0-5.3-1.17-5.51-5.83-.21-5.73,4-7.53,6.15-7.53Z"/><path class="cls-1" d="M250.86,182.59c-.32,2.23-1,3.18-1.91,3.61a32,32,0,0,1-10.18,1.69c1.49-10.17,6.79-46.42,7.95-55.75,1.49-11,1.8-13.67,1.8-15.79A49.93,49.93,0,0,1,258.59,115c1.17,0,1.59.85,1.28,3.29C258.28,131.61,252.66,170.62,250.86,182.59Z"/><path class="cls-1" d="M278.73,139.14c1.17,0,1.38.53,1.06,3-1.91,14.62-4.56,33.81-5.4,40.48-.32,2.12-1,3.08-1.59,3.5-.85.74-5.94,1.7-10.5,1.8,1-7,3-18.12,4.14-27.66,1.48-11.45,2.22-17.06,2.12-18.87a59.8,59.8,0,0,1,10.07-2.22Zm-2.22-21.52c2,0,5.3.53,5.51,5.83.21,5-3.5,7.53-6.26,7.53-2.33,0-5.29-1.17-5.51-5.83-.21-5.73,4-7.53,6.15-7.53Z"/><path class="cls-1" d="M307.88,140.41c10.81,0,13.46-.11,14.52-.21a16.93,16.93,0,0,1-2.33,6c-2.23,4.34-14.95,23.53-22.05,32.85.74.54,3.71.75,9.22.75,8.16,0,12.51-.21,13.68-.64.21,2.54-2.55,6.68-4.24,7.53s-5.09,1-14.95,1c-14.84,0-18.23-.74-19.5-2.23-.21-.63-.42-1.16-.64-1.69,5.09-5.72,21.84-28.51,25.65-35.61-3.39.1-4.34.1-9.54.1-6.88,0-12.08.21-11.23-2.44a16.48,16.48,0,0,1,4.24-6.46c1.17.85,2,1.06,17.06,1.06Z"/><path class="cls-1" d="M325.16,173.37c0-5.51,1.8-17.17,10-25.65,7.21-7.42,16.21-8.58,21.41-8.58,4.13,0,10.81,1.48,14.94,2.33-1.06,4.24-3.6,21.3-4.66,31.8-.32,2.86-1.06,10-.74,13.24a30,30,0,0,1-9.65,1.91c-.85,0-1.16-4.87-.53-10.7.11-1.17.43-3.92.43-4.45-4.88,9-13.46,15-21.63,15-5.93,0-9.53-5-9.53-14.84Zm14.94,6c6.78,0,16.75-12.29,19.5-28.72a20.45,20.45,0,0,1,.64-3.18,14.27,14.27,0,0,0-4.88-.95,15.63,15.63,0,0,0-13,6.78,32.37,32.37,0,0,0-6.05,19c0,4.14,1.17,7.1,3.71,7.1Z"/><path class="cls-1" d="M391.93,155.46c5.93-13.25,12.82-16.32,16.53-16.32a4.85,4.85,0,0,1,3.92,1.69c0,3-2.22,8.59-4.24,11.13a11.79,11.79,0,0,0-3.81-.85c-3.71,0-11.66,6.26-16.11,31.91-.32,2-1,2.75-1.48,3.18-1,.74-7.64,1.59-10.5,1.69,1.59-8.26,4.35-26.71,5.41-36.35a40.09,40.09,0,0,0,.21-10,30.85,30.85,0,0,1,9.54-2.44c1.16,0,2.33,3.39.32,16.32Z"/><path class="cls-1" d="M424.36,182.59c-.32,2.23-.95,3.18-1.91,3.61a31.94,31.94,0,0,1-10.17,1.69c1.48-10.17,6.78-46.42,8-55.75,1.48-11,1.8-13.67,1.8-15.79A49.93,49.93,0,0,1,432.1,115c1.16,0,1.59.85,1.27,3.29C431.78,131.61,426.16,170.62,424.36,182.59Z"/><path class="cls-1" d="M435.7,173.37c0-5.51,1.81-17.17,10-25.65,7.2-7.42,16.21-8.58,21.41-8.58,4.13,0,10.81,1.48,14.94,2.33-1.06,4.24-3.6,21.3-4.66,31.8-.32,2.86-1.06,10-.75,13.24a29.88,29.88,0,0,1-9.64,1.91c-.85,0-1.17-4.87-.53-10.7.11-1.17.42-3.92.42-4.45-4.87,9-13.46,15-21.62,15-5.93,0-9.54-5-9.54-14.84Zm14.95,6c6.78,0,16.74-12.29,19.5-28.72a20.45,20.45,0,0,1,.64-3.18,14.31,14.31,0,0,0-4.88-.95,15.66,15.66,0,0,0-13,6.78,32.43,32.43,0,0,0-6,19c0,4.14,1.17,7.1,3.71,7.1Z"/><path class="cls-1" d="M504.81,122.71c7.63,0,13.35,4.56,13.35,12.4,0,6.57-4.24,10.18-10.17,13.78-5.2,3.18-7.1,5-7,8,.11,2.54,2.23,4.87,6.89,4.87a18.17,18.17,0,0,0,2.54-.1c.22,4.24-2.86,6.36-6.67,6.36-7.63,0-13-4.46-13.36-11.77-.31-5.62,4.24-9.86,10.18-13.88,4.87-3.29,7.1-5.09,7.1-7.95,0-2.44-2.12-3.82-5-3.82a19.38,19.38,0,0,0-6.89,1.7c-1.59.74-3.71.63-3.92-2.86a5.76,5.76,0,0,1,0-2.34c3.39-3,8.37-4.34,12.82-4.34Zm-5.94,51.72c3.82,0,5.73,2.86,5.73,6.57a6.75,6.75,0,0,1-6.79,7.21c-4,0-6.25-2.23-6.25-6.15,0-4.34,3-7.63,7.21-7.63Z"/></svg>