<svg id="Capa_1" data-name="Capa 1" xmlns="http://www.w3.org/2000/svg" viewBox="0 0 939 193"><defs><style>.cls-1{fill:#fff;}</style></defs><path class="cls-1" d="M139.48,51.94c8.47,0,15.1,3.1,18.63,6.77-.71,5.36-3.81,7.47-5.93,7.05A25.53,25.53,0,0,0,139.48,62c-9.87,0-13,6.21-13,12.42,0,6.06,3.66,10.29,13.26,18s17.07,14.53,17.07,25.82c0,17.07-12.84,26.09-29.2,26.09-10.58,0-16.93-3.66-20.6-7.19-1.55-1.41-2.26-2.82-2.26-3.81-.28-3.1,1.27-6.35,3.53-7.62,4,3.67,12,8.33,20.31,8.33,9,0,13.69-4.94,13.69-12,0-7.34-6.49-12.28-13-17.78C119.74,96.09,112,88.75,112,76.62c0-14.25,10.15-24.68,27.36-24.68Z"/><path class="cls-1" d="M198.17,124.87c1,3.1,0,8.6-2.12,10.86-4.65,5.36-11,8.18-18.76,8.18-8.75,0-11.85-7.47-9.73-21.86,1.55-10.58,3.81-24,4.79-31h-8.88c0-2.68,1.83-9.73,5.07-9.73h5.51c1.69-10.86,4.51-14.53,6.63-15.8a30.69,30.69,0,0,1,11-2.68c-1.13,6.2-2.12,12.13-3.39,18.48,7.34,0,14,0,16.23-.28-.57,4.09-2,7.19-4.52,8.74C197.89,91.15,193,91,186.6,91c-1.83,10.16-3.81,26.8-4.65,32.87-1,5.78.14,8.89,2.68,8.89,3.38,0,7.9-2.82,13.26-8Z"/><path class="cls-1" d="M240.49,78.46c11.28,0,14.95,7.19,14.95,12.83,0,16.09-20.31,23.14-34.42,24.69a27.46,27.46,0,0,0-.14,3.39c0,8.6,3.24,13.11,10.16,13.11,7.9,0,14.38-4.65,18.9-9.31a6.68,6.68,0,0,1,2.11,4.8,11.22,11.22,0,0,1-2.11,6.63c-4.94,5.64-13,9.31-23.42,9.31-14.25,0-20.31-9.87-20.31-23.42,0-20.31,12.27-42,34.14-42Zm-3.39,8.32c-6.49,0-13.4,8.18-15.38,19.61,10-1,20.74-6.07,20.74-14,0-2.68-1.27-5.64-5.22-5.64Z"/><path class="cls-1" d="M317.22,85c0,8.46-4.79,19.89-9.45,27.22A123.12,123.12,0,0,1,284.92,139a23,23,0,0,1-4.37,2.54,27.22,27.22,0,0,1-7.76,2.4c-2-1.55-3.39-10.72-4-16.5-1-12.14-2.12-37.24-2.12-47.26,2.12-.71,11.57-1.69,13.68-1.69,1.13,0,1.42.84,1.42,3.24-.15,13.83,0,22,.84,36.11.14,3.25.42,5.79,1.13,7.06,9.17-8.18,21.58-27.51,21.58-41.76a33.6,33.6,0,0,0-.14-3.53,104.17,104.17,0,0,1,10.44-1.12c1.13,0,1.55,3.81,1.55,6.34Z"/><path class="cls-1" d="M342.19,78.46c1.55,0,1.84.7,1.41,4-2.54,19.46-6.06,45-7.19,53.88-.43,2.83-1.27,4.09-2.12,4.66-1.13,1-7.9,2.26-14,2.4,1.27-9.31,3.95-24.13,5.5-36.82,2-15.24,3-22.71,2.82-25.11,1.69-.85,11.85-3,13.4-3Zm-3-28.64c2.68,0,7,.7,7.33,7.76.29,6.63-4.65,10-8.32,10-3.1,0-7.05-1.55-7.33-7.75-.29-7.62,5.36-10,8.18-10Z"/><path class="cls-1" d="M351.5,124c0-7.33,2.4-22.85,13.26-34.14,9.59-9.87,21.58-11.42,28.5-11.42,5.5,0,14.39,2,19.89,3.1-1.41,5.64-4.8,28.35-6.21,42.32-.42,3.81-1.41,13.26-1,17.63-4.09,1.84-10.72,2.54-12.83,2.54-1.13,0-1.56-6.49-.71-14.25.14-1.55.56-5.21.56-5.92-6.48,12-17.91,20-28.77,20-7.9,0-12.7-6.63-12.7-19.75Zm19.89,8c9,0,22.29-16.36,26-38.23a28.21,28.21,0,0,1,.84-4.23,19.06,19.06,0,0,0-6.48-1.27c-6.35,0-12.56,2.54-17.36,9a43.13,43.13,0,0,0-8,25.25c0,5.5,1.55,9.45,4.94,9.45Z"/><path class="cls-1" d="M457.44,64.77c.14-2.25,1.69-6.35,3.39-7.9,3.95-1.41,16.22-3.52,24.26-3.52,20.17,0,32.3,8.18,32.3,27.36s-15.23,28.64-28.77,28.64c-2,0-6.07-.28-7.9-1.27-1.7-.7-3.11-5.64-3.25-8.18l.28-.28a34.5,34.5,0,0,0,5.79.7c11.14,0,17.77-6.77,17.77-19.47,0-10.15-5.08-17.91-16.64-17.91-1,0-3,0-4.09.14-3.53,26.24-7.34,52.62-10.44,78.86-2.26.7-9.88,1.12-13,1.12-2,0-2.82-.42-2.54-2.68,3.24-22.42,6.77-51.2,10.72-76.17-2.54.28-6.07.7-7.62,1Z"/><path class="cls-1" d="M554.78,78.46c16.78,0,23.13,11.42,23.13,25,0,23.55-14.53,40.48-35.12,40.48-14.11,0-22.72-6.91-22.72-24,0-21.44,12.14-41.47,34.57-41.47Zm-1.41,8.88c-10,0-17.5,16.65-17.5,34.42,0,7.9,3,13.12,8.61,13.12,9.73,0,17.63-15.66,17.63-35,0-5.64-1.83-12.56-8.6-12.56Z"/><path class="cls-1" d="M639.7,82c1,0,1.55.85,1.55,3.25,0,10.72.14,35.69,2.11,41.33,8.61-9.73,18.91-27.93,18.91-43.17A21.51,21.51,0,0,0,662,79c.85-.42,8.61-.56,9.6-.56,1.55,0,2.68,4.23,2.54,7.47-.29,18.48-16.79,41.19-28.5,52.76a18.39,18.39,0,0,1-5.92,3.81,46.42,46.42,0,0,1-9.17,1.55c-2.12-9.31-2.4-27.79-2.4-37.8-5.08,10.86-14.25,25-19.33,32a10.75,10.75,0,0,1-5.78,4.09,80.21,80.21,0,0,1-9.45,1.55c-1.41-2.68-2-13.4-2.12-20.88-.28-14.53.14-29.9,0-42.88,2.26-.71,11.85-1.69,14-1.69,1.27,0,1.69.84,1.55,3.24-.42,8.61-1.13,20.6-.85,35.55a40.42,40.42,0,0,0,.71,7.9c3.95-5.78,16.22-25.82,21-37.38,0,0,.28-2.26.42-3.11,2.12-.7,9-2.68,11.29-2.68Z"/><path class="cls-1" d="M691,143.91c-8.6,0-14-7.62-14-21,0-22.71,14.1-44.43,37.8-44.43a20.85,20.85,0,0,1,10.58,3c1-6.63,3.95-27.23,4.38-33.15,3.1-.71,10-2,13.12-2,1.27,0,1.83,1.13,1.41,4.23-3.67,22.72-9,62.22-10.3,73.36a113.16,113.16,0,0,0-.57,17.92c-4,1.69-11.14,2.11-13.4,2.11-1,0-1.55-7.33-1-15.37.14-1.84.56-4.52.56-5.08-8,13.54-16.93,20.45-28.5,20.45Zm7.2-12.13c8.32,0,21.44-16.08,24.83-36.25.28-1.7.56-2.83.84-4.38a12.53,12.53,0,0,0-8.6-3c-15.52,0-23,18.2-23,32.87,0,5.92,2.12,10.72,5.79,10.72Z"/><path class="cls-1" d="M782.45,78.46c11.29,0,15,7.19,15,12.83,0,16.09-20.32,23.14-34.42,24.69a25.64,25.64,0,0,0-.15,3.39c0,8.6,3.25,13.11,10.16,13.11,7.9,0,14.39-4.65,18.9-9.31A6.68,6.68,0,0,1,794,128a11.23,11.23,0,0,1-2.12,6.63c-4.93,5.64-13,9.31-23.41,9.31-14.25,0-20.32-9.87-20.32-23.42,0-20.31,12.28-42,34.14-42Zm-3.38,8.32c-6.49,0-13.4,8.18-15.38,19.61,10-1,20.74-6.07,20.74-14,0-2.68-1.27-5.64-5.22-5.64Z"/><path class="cls-1" d="M823.36,100.18c7.9-17.63,17.07-21.72,22-21.72a6.5,6.5,0,0,1,5.22,2.25c0,4-3,11.43-5.65,14.82a15.44,15.44,0,0,0-5.07-1.13c-4.94,0-15.52,8.32-21.45,42.46-.42,2.68-1.27,3.67-2,4.23-1.27,1-10.16,2.12-14,2.26,2.12-11,5.79-35.55,7.2-48.39A54,54,0,0,0,810,81.7a41.06,41.06,0,0,1,12.7-3.24c1.55,0,3.1,4.51.42,21.72Z"/><path class="cls-1" d="M914.86,93.14a7.7,7.7,0,0,1-10.22,8.33,7.21,7.21,0,0,1-1.8-1c-3.47-2.41-4.48-9.08-2-12.84a7.57,7.57,0,0,1,10.33-2.26C913.8,87,914.86,89.21,914.86,93.14Z"/><path class="cls-1" d="M883.92,96.87c0,4.74-1.8,7.44-5.59,8.38a7.42,7.42,0,0,1-9.27-5.53c-1.21-4.66.34-9,3.9-10.91A7.5,7.5,0,0,1,883.91,95C883.94,95.63,883.92,96.25,883.92,96.87Z"/><path class="cls-1" d="M863.08,116.45c-.16,3.33-1.85,5.6-4.66,6.24a5.86,5.86,0,0,1-6.4-3,8.36,8.36,0,0,1,.84-8.17,5.54,5.54,0,0,1,6.15-1.72C861.68,110.66,863.24,113.21,863.08,116.45Z"/><path class="cls-1" d="M867.42,121.48a6,6,0,0,1,6.06-6.56c3.24-.09,5.88,3,5.89,6.58,0,3.83-2.37,6.42-5.91,6.43C869.75,127.94,867.43,125.46,867.42,121.48Z"/><path class="cls-1" d="M862.88,98.36c0,2.62-1.52,4.32-3.86,4.33s-3.89-1.94-3.84-4.45A4.07,4.07,0,0,1,859.05,94,3.9,3.9,0,0,1,862.88,98.36Z"/><path class="cls-1" d="M899.27,109.7c0,2.78-1.36,4.4-3.69,4.43s-3.74-1.72-3.74-4.41,1.42-4.41,3.72-4.39S899.28,107,899.27,109.7Z"/><path class="cls-1" d="M895,78.76c0,2.66-1.49,4.29-3.92,4.25-2.2,0-3.69-1.74-3.72-4.28a4.12,4.12,0,0,1,3.75-4.35C893.35,74.32,895,76.19,895,78.76Z"/><path class="cls-1" d="M35.38,93.14a7.7,7.7,0,0,0,10.22,8.33,7.21,7.21,0,0,0,1.8-1c3.47-2.41,4.48-9.08,2-12.84A7.57,7.57,0,0,0,39,85.42C36.44,87,35.38,89.21,35.38,93.14Z"/><path class="cls-1" d="M66.33,96.87c0,4.74,1.79,7.44,5.59,8.38a7.43,7.43,0,0,0,9.27-5.53c1.2-4.66-.35-9-3.91-10.91a7.51,7.51,0,0,0-11,6.21C66.3,95.63,66.33,96.25,66.33,96.87Z"/><path class="cls-1" d="M87.16,116.45c.16,3.33,1.85,5.6,4.66,6.24a5.85,5.85,0,0,0,6.4-3,8.36,8.36,0,0,0-.84-8.17,5.54,5.54,0,0,0-6.15-1.72C88.56,110.66,87,113.21,87.16,116.45Z"/><path class="cls-1" d="M82.82,121.48a6,6,0,0,0-6.06-6.56c-3.24-.09-5.88,3-5.88,6.58,0,3.83,2.37,6.42,5.9,6.43C80.49,127.94,82.81,125.46,82.82,121.48Z"/><path class="cls-1" d="M87.36,98.36c0,2.62,1.52,4.32,3.86,4.33s3.89-1.94,3.84-4.45A4.07,4.07,0,0,0,91.19,94,3.9,3.9,0,0,0,87.36,98.36Z"/><path class="cls-1" d="M51,109.7c0,2.78,1.36,4.4,3.69,4.43s3.74-1.72,3.74-4.41-1.42-4.41-3.72-4.39S51,107,51,109.7Z"/><path class="cls-1" d="M55.23,78.76c0,2.66,1.5,4.29,3.92,4.25,2.21,0,3.69-1.74,3.72-4.28a4.11,4.11,0,0,0-3.74-4.35C56.89,74.32,55.24,76.19,55.23,78.76Z"/></svg>