<svg xmlns="http://www.w3.org/2000/svg" version="1.1" xmlns:xlink="http://www.w3.org/1999/xlink" xmlns:svgjs="http://svgjs.com/svgjs" width="1080" height="1080"><svg version="1.1" id="SvgjsSvg1001" xmlns="http://www.w3.org/2000/svg" xmlns:xlink="http://www.w3.org/1999/xlink" x="0px" y="0px" viewBox="0 0 1080 1080" style="enable-background:new 0 0 1080 1080;" xml:space="preserve">
<style type="text/css">
	.st0{fill:#008DCE;}
	.st1{fill:#FFFFFF;}
</style>
<rect class="st0" width="1080" height="1080"></rect>
<g>
	<path id="SvgjsPath1000" class="st1" d="M550.99,108.48
		c-22.3,5.66-43.46,13.77-63.49,24.31c-20.01,10.56-38.5,23.24-55.47,38.07c-16.95,14.83-31.62,31.42-44.02,49.77
		c-12.36,18.34-21.98,38.27-28.87,59.83c-6.85,21.55-10.32,44.13-10.32,67.66c0,25.98,4.14,49.31,12.4,69.93
		c8.24,20.64,19.18,39.51,32.77,56.66c13.57,17.11,29.02,32.92,46.3,47.42c17.25,14.55,34.9,28.77,52.95,42.67
		c18.03,13.92,35.66,27.91,52.93,41.96c17.28,14.07,32.71,29.12,46.3,45.17c13.61,16.05,24.56,33.57,32.8,52.52
		c8.24,18.95,12.38,40.38,12.38,64.21c0,25.98-4.6,49.22-13.77,69.72c-9.17,20.47-21.7,37.82-37.59,52.04
		c-15.91,14.23-34.55,25.07-55.93,32.57c-21.41,7.48-44.46,11.23-69.23,11.23c-21.4,0-39.34-2.45-53.84-7.33
		c-14.54-4.9-26.68-11.02-36.48-18.34c-9.78-7.37-17.86-15.2-24.28-23.61c-6.42-8.41-12.07-16.31-16.97-23.62
		c-4.9-7.37-9.56-13.47-13.96-18.37c-4.46-4.88-9.73-7.35-15.82-7.35c-13.46,0-22.48,3.6-27.07,10.78
		c-4.57,7.2-6.85,18.91-6.85,35.09c0,12.86,2.73,24.24,8.24,34.19c5.51,9.91,12.77,18.56,21.78,25.89
		c9.02,7.35,19.4,13.53,31.17,18.56c11.77,5.05,23.89,9.11,36.44,12.16c12.55,3.04,24.88,5.27,37.15,6.66
		c12.2,1.39,23.37,2.06,33.47,2.06c22.91,0,45.82-2.75,68.76-8.24c22.91-5.51,45-13.47,66.24-23.85
		c21.22-10.41,41.1-22.94,59.61-37.6c18.47-14.7,34.53-31.36,48.12-49.98c13.59-18.67,24.28-39.01,32.08-61.02
		c7.8-22.01,11.7-45.41,11.7-70.15c0-24.16-4.31-45.86-12.86-65.14c-8.54-19.28-19.85-36.91-33.92-52.97
		c-14.05-16.05-30.09-31.03-48.12-44.95c-18.03-13.9-36.39-27.5-55.01-40.81c-18.66-13.29-37-26.97-54.99-41.03
		c-18.08-14.07-34.1-29.21-48.14-45.41c-14.07-16.22-25.38-34.09-33.92-53.67c-8.59-19.56-12.85-41.74-12.85-66.48
		c0-25.09,4.05-48.16,12.14-69.26c8.1-21.1,19.48-39.38,34.16-54.82c14.68-15.42,32.41-27.43,53.17-36
		c20.79-8.54,44.02-12.84,69.69-12.84c24.45,0,46.32,4.44,65.55,13.29c19.27,8.87,35.55,20.73,48.84,35.54
		c13.31,14.85,23.45,31.88,30.5,51.15c7.02,19.26,10.53,39.27,10.53,60.09c0,15.87-2.15,31.25-6.42,46.08
		c-4.29,14.83-10.95,28.06-19.94,39.66c-9.02,11.62-20.4,21.08-34.14,28.45c-13.77,7.31-30.13,11.45-49.07,12.38
		c-1.24-0.3-4.12-1.08-8.69-2.3c-4.62-1.24-9.49-2.52-14.68-3.9c-5.2-1.37-10.08-2.67-14.68-3.9c-4.57-1.22-7.48-1.98-8.71-2.28
		c-7.35,0-12.53,0.82-15.59,2.52c-3.08,1.67-4.59,4.18-4.59,7.57c0,4.57,2.47,9.63,7.35,15.11c4.9,5.51,10.38,9.17,16.52,11.04
		c2.12,0.28,4.79,0.59,8,0.89c3.21,0.33,6.57,0.54,10.1,0.69c3.49,0.17,6.87,0.3,10.08,0.46c3.19,0.17,5.72,0.24,7.57,0.24
		c24.75,0,48.36-4.51,70.84-13.53c22.46-9,42.16-21.55,59.13-37.62c16.97-16.03,30.48-35.13,40.58-57.31
		c10.08-22.16,15.11-46.38,15.11-72.69c0-26.59-5.42-50.91-16.28-72.92c-10.84-22.01-25.28-40.83-43.31-56.42
		c-18.03-15.57-38.82-27.65-62.36-36.22c-23.52-8.54-47.97-12.83-73.33-12.83C595.92,100,573.32,102.82,550.99,108.48"></path>
</g>
</svg><style>@media (prefers-color-scheme: light) { :root { filter: none; } }
</style></svg>