<svg id="Capa_1" data-name="Capa 1" xmlns="http://www.w3.org/2000/svg" xmlns:xlink="http://www.w3.org/1999/xlink" viewBox="0 0 1080 612"><defs><style>.cls-1{fill:#fff;}.cls-2{clip-path:url(#clip-path);}</style><clipPath id="clip-path"><path id="SVGID" class="cls-1" d="M1037.9,545.74a14,14,0,0,0-3-4.48,14.07,14.07,0,0,0-19.83,20,14.08,14.08,0,0,0,4.46,3,14,14,0,0,0,10.92,0,14,14,0,0,0,4.45-3,14.21,14.21,0,0,0,3-15.48ZM1025,563.58a12.34,12.34,0,1,1,12.26-12.34A12.32,12.32,0,0,1,1025,563.58Zm5.25-9.65a5.85,5.85,0,0,0-1.6-2.26,4.28,4.28,0,0,0,2.3-4,4.13,4.13,0,0,0-1.76-3.49,7.69,7.69,0,0,0-4.6-1.26,24.09,24.09,0,0,0-4.28.44l-.24,0v16.1h2.65v-6.88H1025c1.94,0,3.21,2.23,3.77,6.62l0,.26h2.66l0-.34A23.18,23.18,0,0,0,1030.23,553.93Zm-2.7-4.24a4.29,4.29,0,0,1-2.6.64h-2.23v-4.89c.51,0,1.14-.07,1.87-.07,2.54,0,3.77.81,3.77,2.47A2.14,2.14,0,0,1,1027.53,549.69Z"/></clipPath></defs><path id="SVGID-2" data-name="SVGID" class="cls-1" d="M1037.9,545.74a14,14,0,0,0-3-4.48,14.07,14.07,0,0,0-19.83,20,14.08,14.08,0,0,0,4.46,3,14,14,0,0,0,10.92,0,14,14,0,0,0,4.45-3,14.21,14.21,0,0,0,3-15.48ZM1025,563.58a12.34,12.34,0,1,1,12.26-12.34A12.32,12.32,0,0,1,1025,563.58Zm5.25-9.65a5.85,5.85,0,0,0-1.6-2.26,4.28,4.28,0,0,0,2.3-4,4.13,4.13,0,0,0-1.76-3.49,7.69,7.69,0,0,0-4.6-1.26,24.09,24.09,0,0,0-4.28.44l-.24,0v16.1h2.65v-6.88H1025c1.94,0,3.21,2.23,3.77,6.62l0,.26h2.66l0-.34A23.18,23.18,0,0,0,1030.23,553.93Zm-2.7-4.24a4.29,4.29,0,0,1-2.6.64h-2.23v-4.89c.51,0,1.14-.07,1.87-.07,2.54,0,3.77.81,3.77,2.47A2.14,2.14,0,0,1,1027.53,549.69Z"/><g class="cls-2"><rect class="cls-1" x="1010.86" y="417.98" width="28.27" height="29.51"/></g><path id="SVGID-3" data-name="SVGID" class="cls-1" d="M186.9,26.47A147.06,147.06,0,0,0,126,58.39,131.42,131.42,0,0,0,103.5,83.86a119.65,119.65,0,0,0-14.77,30.61,113.53,113.53,0,0,0-5.28,34.62q0,19.93,6.34,35.79a115.49,115.49,0,0,0,16.77,29,168.46,168.46,0,0,0,23.69,24.27Q143.5,249.3,157.35,260t27.08,21.47a179.07,179.07,0,0,1,23.69,23.11,107.83,107.83,0,0,1,16.79,26.88q6.32,14.54,6.33,32.85,0,19.94-7,35.67A78.06,78.06,0,0,1,205,426.58a84.3,84.3,0,0,1-28.61,16.67A106.58,106.58,0,0,1,140.92,449q-16.41,0-27.55-3.75a66.51,66.51,0,0,1-18.67-9.39,63.85,63.85,0,0,1-12.42-12.08q-4.92-6.46-8.68-12.09a81.05,81.05,0,0,0-7.15-9.39,10.63,10.63,0,0,0-8.09-3.77q-10.33,0-13.85,5.52T41,422a35.6,35.6,0,0,0,4.21,17.5,45.45,45.45,0,0,0,11.15,13.25,66.68,66.68,0,0,0,16,9.5A117.62,117.62,0,0,0,91,468.47a155.15,155.15,0,0,0,19,3.41,152.23,152.23,0,0,0,17.12,1.05,150.51,150.51,0,0,0,35.18-4.22,164.17,164.17,0,0,0,33.9-12.2,168.7,168.7,0,0,0,30.5-19.24,132.1,132.1,0,0,0,24.62-25.58,121.76,121.76,0,0,0,16.42-31.22,106.69,106.69,0,0,0,6-35.89q0-18.54-6.58-33.34a106.27,106.27,0,0,0-17.36-27.1,172.67,172.67,0,0,0-24.62-23Q211.3,250.46,197,240.25t-28.14-21A173,173,0,0,1,144.22,196a106.92,106.92,0,0,1-17.36-27.47q-6.58-15-6.58-34a98.35,98.35,0,0,1,6.21-35.44,83.83,83.83,0,0,1,17.48-28,78.16,78.16,0,0,1,27.21-18.42,93.07,93.07,0,0,1,35.66-6.57q18.76,0,33.54,6.8a75.56,75.56,0,0,1,25,18.19A79.77,79.77,0,0,1,281,97.23,88.87,88.87,0,0,1,286.36,128a84.68,84.68,0,0,1-3.28,23.58,59.93,59.93,0,0,1-10.2,20.29,54.3,54.3,0,0,1-17.47,14.56q-10.57,5.61-25.11,6.33c-.64-.15-2.11-.55-4.45-1.17s-4.86-1.29-7.51-2l-7.51-2c-2.34-.62-3.83-1-4.46-1.16-3.76,0-6.41.42-8,1.28a4.13,4.13,0,0,0-2.35,3.88c0,2.34,1.26,4.92,3.76,7.73a18.44,18.44,0,0,0,8.45,5.65c1.09.14,2.45.3,4.09.45s3.36.28,5.17.36,3.52.15,5.16.23,2.92.12,3.87.12a96.5,96.5,0,0,0,36.24-6.92,94.88,94.88,0,0,0,30.26-19.25,92.42,92.42,0,0,0,20.76-29.33,88.71,88.71,0,0,0,7.74-37.19,83.35,83.35,0,0,0-8.33-37.32,90.75,90.75,0,0,0-22.17-28.87,101.56,101.56,0,0,0-31.9-18.53,109.16,109.16,0,0,0-37.53-6.56,141,141,0,0,0-34.72,4.33"/><path id="SVGID-4" data-name="SVGID" class="cls-1" d="M386.29,108.85c-3.13,1.33-5.09,4-5.87,7.85q-2.32,5.16-6.68,17.14T364,162.23q-5.37,16.43-11.49,36.26T340.31,239q-6.1-1.4-12.2-3.17t-12.19-3.63a32.7,32.7,0,0,0-6.22,6.57,13.24,13.24,0,0,0-2.46,7.75,13,13,0,0,0,1.88,6.21,35.28,35.28,0,0,0,5.16,6.91,62.5,62.5,0,0,0,7.51,6.82,61,61,0,0,0,9.14,5.87q-4.92,17.37-9,33.56t-7.28,29.92q-3.15,13.73-4.92,24.41a109.37,109.37,0,0,0-1.76,17,71.09,71.09,0,0,0,1.88,16.89,36.66,36.66,0,0,0,6.1,13.39,28.6,28.6,0,0,0,11,8.8q6.81,3.17,16.9,3.16A45.74,45.74,0,0,0,358.15,417a74,74,0,0,0,13.84-6.1,56,56,0,0,0,10.55-7.63c2.82-2.65,4.22-5.08,4.22-7.27q-2.6-10.8-11.25-10.8a15.63,15.63,0,0,0-5.39.95c-4.86,0-8.81-.84-11.86-2.47a18.62,18.62,0,0,1-7.14-6.58,25.67,25.67,0,0,1-3.54-9.49,67.35,67.35,0,0,1-.92-11.28,73.16,73.16,0,0,1,1.41-12.3c.93-5.26,2.22-11.35,3.85-18.31s3.61-14.59,5.87-22.88,4.73-17.05,7.39-26.29a90.13,90.13,0,0,0,14-5.52,95.92,95.92,0,0,0,12.54-7.27,55.27,55.27,0,0,0,9.16-7.62c2.34-2.5,3.51-4.7,3.51-6.58L403,238.73a100.39,100.39,0,0,1-13.86,2.81,103.72,103.72,0,0,1-13.84.94q6.35-21.12,12.91-41.77t12.2-38.13Q406,145.11,410,132.43t5.4-17.6c-2.34-3.61-4.81-5.83-7.39-6.69s-6.44-1.29-11.61-1.29a25.45,25.45,0,0,0-10.09,2"/><path id="SVGID-5" data-name="SVGID" class="cls-1" d="M448.34,323.22a140.37,140.37,0,0,1,6.1-19.14A160.54,160.54,0,0,1,463.59,285a108.85,108.85,0,0,1,11.26-16.54,58.38,58.38,0,0,1,12.78-11.61,24.56,24.56,0,0,1,13.61-4.47c3.9,0,5.86,1.73,5.86,5.17a33.19,33.19,0,0,1-3.17,13.13,96.15,96.15,0,0,1-8.44,15.14,197.05,197.05,0,0,1-11.86,15.84q-6.56,8-13.24,15.26t-13.13,13.25q-6.45,6-11.15,10a74.15,74.15,0,0,1,2.23-16.88m40.35-89.77a116.64,116.64,0,0,0-27.22,14.32,132.45,132.45,0,0,0-23.57,21.47,147.34,147.34,0,0,0-30.62,56.91A116.84,116.84,0,0,0,403,357.48a114.1,114.1,0,0,0,2.8,26.63,50.12,50.12,0,0,0,9.29,19.71,40.15,40.15,0,0,0,17.11,12.32q10.66,4.23,26.62,4.23a49.66,49.66,0,0,0,16.77-3.06,90.93,90.93,0,0,0,16.55-7.86,120,120,0,0,0,15-10.67,116.56,116.56,0,0,0,12.2-11.62,76.85,76.85,0,0,0,8.2-10.67q3-4.94,3-7.75a14.1,14.1,0,0,0-1.17-6.34c-.79-1.56-2.24-2.35-4.44-2.35q-4.94,0-10.93,4.82c-4,3.2-8.24,6.72-12.77,10.56A135.3,135.3,0,0,1,486.93,386a28,28,0,0,1-15.25,4.81,22.26,22.26,0,0,1-10.55-2.35,21.83,21.83,0,0,1-7.4-6.22,31.75,31.75,0,0,1-4.69-9,56,56,0,0,1-2.46-10.8q8.22-6.09,18.88-14.43t22.06-18.06q11.36-9.74,22.28-20.19A262.09,262.09,0,0,0,529.38,289a123.15,123.15,0,0,0,14-19.95q5.28-9.6,5.29-17.36a22,22,0,0,0-3.31-11.85q-3.26-5.29-13.11-8.33a28.69,28.69,0,0,0-13.85-3.29,85.66,85.66,0,0,0-29.67,5.28"/><path id="SVGID-6" data-name="SVGID" class="cls-1" d="M704.73,228.17a12.35,12.35,0,0,0-4.1,3.52q-6.36,15.26-14,30.75t-15.82,31q-8.21,15.48-17,30.52T636.57,353q-1.64-9.84-2.69-22.88c-.71-8.68-1.55-17.63-2.58-26.87S629,285,627.45,276a121.17,121.17,0,0,0-6.58-23.92,50.82,50.82,0,0,0-10.56-17,21.42,21.42,0,0,0-16-6.44,44.2,44.2,0,0,0-11.85,1.87,66.93,66.93,0,0,0-12.77,5,40.6,40.6,0,0,0-10.33,7.51,13.37,13.37,0,0,0-4.21,9.51,5.47,5.47,0,0,0,2.81,4.68,10.71,10.71,0,0,0,6.09,1.89q9.61,0,15.15,6.1a39.89,39.89,0,0,1,8.32,15.84,100,100,0,0,1,3.52,21.82q.69,12.1.7,24.06,0,13.38-.7,27.21t-.7,26.52a167.29,167.29,0,0,0,.81,17.38,62.22,62.22,0,0,0,2.94,14.07l8,7.28q7,0,15.71-7.16a134.92,134.92,0,0,0,18.3-18.9,314.83,314.83,0,0,0,19.6-26.87q9.94-15.13,19.22-31t17.49-31.33q8.22-15.48,14.31-28t9.61-20.76q3.51-8.22,3.52-9.87a25.87,25.87,0,0,0-.82-6.32,24.52,24.52,0,0,0-2.35-6,14.43,14.43,0,0,0-3.63-4.35,7.2,7.2,0,0,0-4.46-1.63,9.29,9.29,0,0,0-3.87.93"/><path id="SVGID-7" data-name="SVGID" class="cls-1" d="M766.07,230.29a62.6,62.6,0,0,0-15,4.93A31.09,31.09,0,0,0,739.91,244c-2.9,3.68-4.33,8.33-4.33,14,0,.95.86,1.5,2.57,1.63a10.58,10.58,0,0,1,5.62,2.84c2.05,1.71,3.92,4.69,5.65,8.9s2.57,10.88,2.57,20a95.49,95.49,0,0,1-4.1,26.75q-4.1,14.07-9,28.4t-9,28.16a92.75,92.75,0,0,0-4.1,26.51q0,8.47,5.85,13.49a19.27,19.27,0,0,0,12.91,5.05,18.69,18.69,0,0,0,9-2.35,17.6,17.6,0,0,0,7.16-7.74A216.5,216.5,0,0,1,768.89,373q5.86-18.76,11.84-37.66T791.28,298a146.72,146.72,0,0,0,4.58-35.54c-.31-2.84-.56-6.22-.7-10.21a67,67,0,0,0-1.41-11.39,24.89,24.89,0,0,0-3.87-9.15A9.09,9.09,0,0,0,782,228a144.71,144.71,0,0,0-16,2.34M784,152.14a37.65,37.65,0,0,0-16.3,17.25,25.48,25.48,0,0,0-2.6,10.91,18.17,18.17,0,0,0,4.36,12.44q4.31,4.94,11.84,4.93a25.44,25.44,0,0,0,11-2.58,31.27,31.27,0,0,0,9.51-7,37,37,0,0,0,6.56-10,28.31,28.31,0,0,0,2.46-11.62q0-7.5-4.22-12.31t-11.74-4.81A22.91,22.91,0,0,0,784,152.14"/><path id="SVGID-8" data-name="SVGID" class="cls-1" d="M912.45,230.4a126.37,126.37,0,0,0-29,14.44,161.51,161.51,0,0,0-27.1,22.76,153.47,153.47,0,0,0-22.51,30,164.83,164.83,0,0,0-15.37,36.25,145.28,145.28,0,0,0-5.74,41.19,66,66,0,0,0,2,16.19,45.61,45.61,0,0,0,6.1,14.2,33,33,0,0,0,10.44,10.09,28.35,28.35,0,0,0,15,3.87q10.79,0,21.71-7.63a118.49,118.49,0,0,0,21.58-20.07,298,298,0,0,0,21.22-28.27q10.55-15.84,20.64-32.51-3.29,12.21-5.27,23.93a132.51,132.51,0,0,0-2,22.31,72.14,72.14,0,0,0,1.88,16.89,36.32,36.32,0,0,0,6.09,13.39,28.82,28.82,0,0,0,11,8.8q6.79,3.17,16.87,3.16A45.64,45.64,0,0,0,974.37,417a74,74,0,0,0,13.85-6.1,56.2,56.2,0,0,0,10.57-7.63c2.8-2.65,4.21-5.08,4.21-7.27-1.72-7.2-5.49-10.8-11.27-10.8a15.85,15.85,0,0,0-5.39.95c-4.84,0-8.78-.84-11.83-2.47a18.47,18.47,0,0,1-7.16-6.58,25.48,25.48,0,0,1-3.52-9.49,64.29,64.29,0,0,1-1-11.28A81.83,81.83,0,0,1,965,338.58q2.13-9.49,5.41-19.59t7.26-20.18q4-10.1,7.75-19.6c2.49-6.33,4.85-12.23,7-17.71A117.59,117.59,0,0,0,997.36,247c-2.34-3.61-4.8-5.82-7.38-6.7S983.52,239,978.35,239a29.31,29.31,0,0,0-8,1.06,11.35,11.35,0,0,0-6.11,4.12q-8.22,11.48-17.6,26T927.82,300.1q-9.5,15.38-18.89,30.15T891.1,356.54a173.55,173.55,0,0,1-15.36,18.54c-4.62,4.69-8.5,7-11.6,7-2.68,0-4.31-1.79-4.93-5.4s-1-10-1-19.24a113.23,113.23,0,0,1,6.34-38.37,104.19,104.19,0,0,1,44.68-54.91,118.18,118.18,0,0,1,34.14-14,38.58,38.58,0,0,0,10.78-8c2.49-2.82,3.77-5.47,3.77-8s-1.39-4.6-4.13-6.31-7.06-2.59-13-2.59a87.8,87.8,0,0,0-28.38,5"/><path class="cls-1" d="M294.75,564.3l17.4-81.72h30.23a28.06,28.06,0,0,1,11.5,2.16,16.66,16.66,0,0,1,7.47,6.25,17.44,17.44,0,0,1,2.63,9.69,20.72,20.72,0,0,1-4.9,13.77,24.5,24.5,0,0,1-13,7.94,19.79,19.79,0,0,1,9.86,6.13A15.71,15.71,0,0,1,359.54,539a23.44,23.44,0,0,1-3.73,13,25.54,25.54,0,0,1-10.27,9,33,33,0,0,1-15,3.27Zm10.39-7.71h25.34a23.12,23.12,0,0,0,10.5-2.27,17.64,17.64,0,0,0,7.12-6.25,16.52,16.52,0,0,0,2.57-9.22,12,12,0,0,0-4.2-9.69q-4.2-3.49-11.67-3.5H311.68Zm8.18-38.29H336.9q8.06,0,13.07-4.49a14.87,14.87,0,0,0,5-11.62,10.87,10.87,0,0,0-3.73-8.69q-3.75-3.21-10.39-3.21h-21.6Z"/><path class="cls-1" d="M366.9,589.86a14.4,14.4,0,0,1-2.8-.29c-1-.19-2.22-.48-3.62-.87l1.52-7.59c1.09.23,2,.41,2.8.52a13.37,13.37,0,0,0,2,.18,11.22,11.22,0,0,0,5.9-1.52,14,14,0,0,0,4.61-5.13l6.07-10.28-9.81-57.55h8.87l7.36,47.16,27.78-47.16H427L385,578q-3.86,6.42-8.11,9.16A18,18,0,0,1,366.9,589.86Z"/><path class="cls-1" d="M495.89,565.47a37.33,37.33,0,0,1-14.77-2.92,36.16,36.16,0,0,1-11.9-8.17,38.16,38.16,0,0,1-7.94-12.32,40.15,40.15,0,0,1-2.86-15.23,45.12,45.12,0,0,1,3.44-17.57,46.9,46.9,0,0,1,9.52-14.54,44.45,44.45,0,0,1,14-9.86,40.64,40.64,0,0,1,16.81-3.56,42.22,42.22,0,0,1,18.38,3.91,35.56,35.56,0,0,1,13.72,11.5l-6.89,5.83a26.87,26.87,0,0,0-10.86-9.63,33,33,0,0,0-14.94-3.44,31.3,31.3,0,0,0-13.31,2.86,34.24,34.24,0,0,0-10.91,8,38.43,38.43,0,0,0-10.1,26.26,32.44,32.44,0,0,0,3.8,15.82,29.08,29.08,0,0,0,39.39,11.44A33,33,0,0,0,521.4,544a36,36,0,0,0,6-14.48h-27l1.28-7.94h35.95l-1,6.07a48.82,48.82,0,0,1-7.7,19.56,42.9,42.9,0,0,1-14.36,13.42A37.15,37.15,0,0,1,495.89,565.47Z"/><path class="cls-1" d="M544.92,564.3l12.49-57h8.41l-2.34,10.39a25.83,25.83,0,0,1,7.71-8.46,16.59,16.59,0,0,1,9.45-3,15.7,15.7,0,0,1,6,1.05L584.84,515a9.65,9.65,0,0,0-2.86-.94,18.89,18.89,0,0,0-3.55-.35,16,16,0,0,0-8.88,2.74,25.68,25.68,0,0,0-7.47,7.88l-8.75,39.93Z"/><path class="cls-1" d="M613.56,565.35A26.92,26.92,0,0,1,600.08,562a23.3,23.3,0,0,1-9.16-9.28,27.91,27.91,0,0,1-3.27-13.66,35,35,0,0,1,2.27-12.66A33.38,33.38,0,0,1,596.23,516a29.88,29.88,0,0,1,9.34-7.07A25.81,25.81,0,0,1,617,506.4a21.81,21.81,0,0,1,11.79,3.21,22.6,22.6,0,0,1,8.11,8.87,27.48,27.48,0,0,1,3,13q0,1.51-.06,3c0,1-.14,2.06-.29,3.15H595.82a20.7,20.7,0,0,0,2,10.22,18.31,18.31,0,0,0,6.48,7.35,17.1,17.1,0,0,0,9.57,2.74,25.4,25.4,0,0,0,8.12-1.34A22.07,22.07,0,0,0,629,553l4.44,6.08a40.54,40.54,0,0,1-9.81,4.78A33,33,0,0,1,613.56,565.35Zm-16.92-33.74h35.25a18.31,18.31,0,0,0-1.93-9,16.94,16.94,0,0,0-5.54-6.36,14,14,0,0,0-8.06-2.39,17.43,17.43,0,0,0-8.69,2.27,21.44,21.44,0,0,0-6.89,6.25A26.12,26.12,0,0,0,596.64,531.61Z"/><path class="cls-1" d="M677.18,565.35A26.92,26.92,0,0,1,663.7,562a23.36,23.36,0,0,1-9.16-9.28,27.91,27.91,0,0,1-3.27-13.66,35,35,0,0,1,2.27-12.66A33.38,33.38,0,0,1,659.85,516a30,30,0,0,1,9.34-7.07,25.81,25.81,0,0,1,11.38-2.56,21.76,21.76,0,0,1,11.79,3.21,22.6,22.6,0,0,1,8.11,8.87,27.48,27.48,0,0,1,3,13q0,1.51-.06,3a29.75,29.75,0,0,1-.29,3.15H659.44a20.81,20.81,0,0,0,2,10.22,18.31,18.31,0,0,0,6.48,7.35,17.11,17.11,0,0,0,9.58,2.74,25.39,25.39,0,0,0,8.11-1.34,22.07,22.07,0,0,0,6.94-3.68l4.44,6.08a40.54,40.54,0,0,1-9.81,4.78A33,33,0,0,1,677.18,565.35Zm-16.92-33.74h35.25a18.42,18.42,0,0,0-1.92-9,17.05,17.05,0,0,0-5.55-6.36,14,14,0,0,0-8-2.39,17.43,17.43,0,0,0-8.7,2.27,21.44,21.44,0,0,0-6.89,6.25A26.12,26.12,0,0,0,660.26,531.61Z"/><path class="cls-1" d="M711.39,564.3l12.49-57h8.29l-1.75,8.29a25.5,25.5,0,0,1,8.29-6.83,21.07,21.07,0,0,1,9.57-2.28A18.8,18.8,0,0,1,759,509.43a15.16,15.16,0,0,1,6,8.06,21.83,21.83,0,0,1,.18,11.79l-7.48,35h-8.4L756.57,531q1.74-7.93-1.52-12.73t-10.39-4.78a17.92,17.92,0,0,0-8.29,2,23.87,23.87,0,0,0-7.24,5.9l-9.34,42.84Z"/><path class="cls-1" d="M803.38,564.3l17.39-81.72h8.76l-15.76,73.78h45.17l-1.63,7.94Z"/><path class="cls-1" d="M871.32,564.3l12.49-57h8.29l-12.38,57Zm19.61-71a5.1,5.1,0,0,1-3.85-1.57,5.42,5.42,0,0,1-1.52-3.92,6.44,6.44,0,0,1,.93-3.32,7.19,7.19,0,0,1,2.45-2.51,6.2,6.2,0,0,1,3.27-.94,5.15,5.15,0,0,1,3.86,1.58,5.43,5.43,0,0,1,1.51,3.91,6.59,6.59,0,0,1-2,4.73A6.32,6.32,0,0,1,890.93,493.32Z"/><path class="cls-1" d="M903.89,564.3l10.62-50H902.25l1.64-7H916l2.91-13.66q1.75-7.94,6.54-12.14a17.57,17.57,0,0,1,12-4.2,26.6,26.6,0,0,1,4.78.41,18.76,18.76,0,0,1,4.09,1.22l-1.52,7.59a20,20,0,0,0-7.59-1.52q-4.32,0-6.65,2.16c-1.56,1.44-2.69,3.84-3.39,7.18l-2.8,13h16.23l-1.64,7H922.91l-10.62,50Z"/><path class="cls-1" d="M967.51,565.35A27,27,0,0,1,954,562a23.36,23.36,0,0,1-9.16-9.28,27.91,27.91,0,0,1-3.27-13.66,34.79,34.79,0,0,1,2.28-12.66,33.54,33.54,0,0,1,6.3-10.39,30.11,30.11,0,0,1,9.34-7.07,25.84,25.84,0,0,1,11.38-2.56,21.76,21.76,0,0,1,11.79,3.21,22.62,22.62,0,0,1,8.12,8.87,27.59,27.59,0,0,1,3,13c0,1,0,2,0,3a29.84,29.84,0,0,1-.3,3.15H949.76a20.82,20.82,0,0,0,2,10.22,18.16,18.16,0,0,0,6.48,7.35,17.1,17.1,0,0,0,9.57,2.74,25.34,25.34,0,0,0,8.11-1.34,22.12,22.12,0,0,0,6.95-3.68l4.43,6.08a40.31,40.31,0,0,1-9.8,4.78A33.08,33.08,0,0,1,967.51,565.35Zm-16.93-33.74h35.26a18.54,18.54,0,0,0-1.93-9,17,17,0,0,0-5.54-6.36,14,14,0,0,0-8.06-2.39,17.49,17.49,0,0,0-8.7,2.27,21.41,21.41,0,0,0-6.88,6.25A26.31,26.31,0,0,0,950.58,531.61Z"/></svg>