<svg id="Capa_1" data-name="Capa 1" xmlns="http://www.w3.org/2000/svg" viewBox="0 0 410 415"><defs><style>.cls-1{fill:#fff;}.cls-2{fill:#d73832;}</style></defs><path id="SVGID" class="cls-1" d="M65.9,40.94A61.26,61.26,0,0,0,40.64,54.19a54.78,54.78,0,0,0-9.35,10.57,49.8,49.8,0,0,0-6.14,12.71A47.33,47.33,0,0,0,23,91.84a39.74,39.74,0,0,0,2.63,14.85,47.78,47.78,0,0,0,7,12,69.7,69.7,0,0,0,9.83,10.07q5.49,4.63,11.25,9.06t11.24,8.92a73.9,73.9,0,0,1,9.83,9.59,44.79,44.79,0,0,1,7,11.16,33.85,33.85,0,0,1,2.63,13.63A35.85,35.85,0,0,1,81.38,196a32.18,32.18,0,0,1-8,11.05,35,35,0,0,1-11.88,6.92,44.17,44.17,0,0,1-14.7,2.39,36.12,36.12,0,0,1-11.44-1.56,27.53,27.53,0,0,1-7.75-3.9,26.16,26.16,0,0,1-5.15-5c-1.36-1.79-2.57-3.46-3.61-5a35.09,35.09,0,0,0-3-3.9,4.45,4.45,0,0,0-3.36-1.56q-4.29,0-5.75,2.29c-1,1.53-1.46,4-1.46,7.45a14.72,14.72,0,0,0,1.75,7.26,18.61,18.61,0,0,0,4.63,5.5,27.19,27.19,0,0,0,6.62,4,49.15,49.15,0,0,0,7.74,2.58A63.83,63.83,0,0,0,34,225.82a60.38,60.38,0,0,0,21.71-1.31,68.51,68.51,0,0,0,14.07-5.06,70.53,70.53,0,0,0,12.66-8,54.62,54.62,0,0,0,10.22-10.62,50.48,50.48,0,0,0,6.82-13,44.42,44.42,0,0,0,2.48-14.9,33.67,33.67,0,0,0-2.73-13.83A44.06,44.06,0,0,0,92,147.9a71.85,71.85,0,0,0-10.22-9.55q-5.75-4.42-11.69-8.67T58.41,121a71.92,71.92,0,0,1-10.22-9.65A44.41,44.41,0,0,1,41,99.92,34.84,34.84,0,0,1,38.25,85.8a40.7,40.7,0,0,1,2.58-14.71,34.88,34.88,0,0,1,7.25-11.64,32.48,32.48,0,0,1,11.3-7.65,38.67,38.67,0,0,1,14.8-2.72A32.94,32.94,0,0,1,88.1,51.9a31.24,31.24,0,0,1,10.37,7.55A33,33,0,0,1,105,70.31a37,37,0,0,1,2.24,12.77,35.43,35.43,0,0,1-1.36,9.78,25,25,0,0,1-4.24,8.43,22.56,22.56,0,0,1-7.25,6A24.63,24.63,0,0,1,83.92,110l-1.85-.49L79,108.64l-3.11-.83L74,107.33a7.34,7.34,0,0,0-3.31.53,1.72,1.72,0,0,0-1,1.61,5.08,5.08,0,0,0,1.56,3.21A7.62,7.62,0,0,0,74.77,115c.45.06,1,.13,1.7.19s1.39.12,2.14.15l2.14.1c.68,0,1.22.05,1.61.05a40,40,0,0,0,15-2.88,39.3,39.3,0,0,0,12.56-8,38.38,38.38,0,0,0,8.61-12.17A36.71,36.71,0,0,0,121.79,77a34.66,34.66,0,0,0-3.45-15.49,37.77,37.77,0,0,0-9.2-12,42,42,0,0,0-13.25-7.69,45.13,45.13,0,0,0-15.57-2.73,58.55,58.55,0,0,0-14.42,1.8"/><path id="SVGID-2" data-name="SVGID" class="cls-1" d="M148.67,75.13a4.19,4.19,0,0,0-2.44,3.27c-.64,1.42-1.57,3.8-2.77,7.11s-2.55,7.24-4,11.78-3.09,9.57-4.77,15-3.38,11.09-5.07,16.8c-1.69-.38-3.37-.82-5.06-1.31s-3.38-1-5.06-1.51a13.46,13.46,0,0,0-2.58,2.73,5.41,5.41,0,0,0-1,3.21,5.33,5.33,0,0,0,.79,2.58,14.13,14.13,0,0,0,2.14,2.87,26.06,26.06,0,0,0,6.91,5.27c-1.36,4.81-2.62,9.45-3.75,13.93s-2.14,8.62-3,12.42-1.55,7.18-2,10.13a45.52,45.52,0,0,0-.74,7.06,29.16,29.16,0,0,0,.79,7,15.09,15.09,0,0,0,2.53,5.56,11.81,11.81,0,0,0,4.57,3.65,16.57,16.57,0,0,0,7,1.31,19.12,19.12,0,0,0,5.94-1,30.5,30.5,0,0,0,5.74-2.53,23.15,23.15,0,0,0,4.38-3.17,4.49,4.49,0,0,0,1.75-3q-1.06-4.49-4.67-4.48a6.48,6.48,0,0,0-2.24.39,10.39,10.39,0,0,1-4.92-1,7.73,7.73,0,0,1-3-2.73,10.68,10.68,0,0,1-1.47-3.94,28.34,28.34,0,0,1-.38-4.68,30.74,30.74,0,0,1,.58-5.11c.39-2.18.93-4.71,1.6-7.6s1.5-6.06,2.44-9.5,2-7.08,3.07-10.91a37.83,37.83,0,0,0,5.79-2.29,41.12,41.12,0,0,0,5.2-3,23,23,0,0,0,3.81-3.16,4.38,4.38,0,0,0,1.46-2.73l-.58-4.48a44.89,44.89,0,0,1-11.5,1.56q2.63-8.78,5.36-17.34t5.06-15.83q2.34-7.26,4-12.52c1.11-3.5,1.85-5.94,2.24-7.3a6.37,6.37,0,0,0-3.06-2.78,16.57,16.57,0,0,0-4.82-.53,10.58,10.58,0,0,0-4.19.82"/><path id="SVGID-3" data-name="SVGID" class="cls-1" d="M174.43,164.12a56.5,56.5,0,0,1,2.53-8,63.88,63.88,0,0,1,3.8-7.93,44.79,44.79,0,0,1,4.67-6.87,24.47,24.47,0,0,1,5.3-4.82,10.22,10.22,0,0,1,5.65-1.85c1.62,0,2.44.71,2.44,2.14a13.79,13.79,0,0,1-1.32,5.45,39.46,39.46,0,0,1-3.5,6.29c-1.46,2.18-3.11,4.36-4.93,6.57s-3.64,4.32-5.49,6.34-3.67,3.84-5.45,5.5-3.33,3-4.63,4.14a30.43,30.43,0,0,1,.93-7m16.74-37.26a48.22,48.22,0,0,0-11.29,5.94,55,55,0,0,0-9.79,8.91,61.36,61.36,0,0,0-12.71,23.62,48.36,48.36,0,0,0-1.79,13,47.16,47.16,0,0,0,1.16,11,20.75,20.75,0,0,0,3.85,8.18,16.62,16.62,0,0,0,7.11,5.12,30.19,30.19,0,0,0,11,1.75,20.53,20.53,0,0,0,7-1.27,37.45,37.45,0,0,0,6.87-3.26,49.8,49.8,0,0,0,6.23-4.43,49.3,49.3,0,0,0,5.06-4.82,31.59,31.59,0,0,0,3.4-4.43,6.79,6.79,0,0,0,1.27-3.22,5.74,5.74,0,0,0-.49-2.63,1.86,1.86,0,0,0-1.84-1,7.56,7.56,0,0,0-4.54,2c-1.64,1.32-3.42,2.79-5.3,4.38a55.42,55.42,0,0,1-5.94,4.38,11.56,11.56,0,0,1-6.33,2,9.16,9.16,0,0,1-4.38-1,8.94,8.94,0,0,1-3.07-2.58,13,13,0,0,1-1.94-3.74,22.91,22.91,0,0,1-1-4.49q3.42-2.53,7.84-6c2.95-2.31,6-4.8,9.16-7.5s6.23-5.49,9.25-8.37a110.34,110.34,0,0,0,8.12-8.63,50.48,50.48,0,0,0,5.8-8.28,15.24,15.24,0,0,0,2.19-7.2,9.11,9.11,0,0,0-1.37-4.92q-1.35-2.2-5.44-3.46a12,12,0,0,0-5.75-1.37,35.65,35.65,0,0,0-12.32,2.2"/><path id="SVGID-4" data-name="SVGID" class="cls-1" d="M280.85,124.66a5.11,5.11,0,0,0-1.7,1.46q-2.64,6.34-5.8,12.77t-6.57,12.86q-3.4,6.42-7.06,12.66t-7.16,12.07c-.46-2.72-.83-5.89-1.12-9.49s-.65-7.32-1.07-11.16-1-7.59-1.6-11.3A50,50,0,0,0,246,134.6a21.27,21.27,0,0,0-4.38-7.06,8.88,8.88,0,0,0-6.63-2.68,18.57,18.57,0,0,0-4.92.78,28.23,28.23,0,0,0-5.3,2.09,17.05,17.05,0,0,0-4.29,3.12,5.54,5.54,0,0,0-1.75,4,2.28,2.28,0,0,0,1.17,1.94,4.47,4.47,0,0,0,2.53.78,8.07,8.07,0,0,1,6.29,2.54,16.36,16.36,0,0,1,3.45,6.57,40.88,40.88,0,0,1,1.46,9.06c.2,3.35.29,6.67.29,10,0,3.71-.09,7.47-.29,11.3s-.29,7.5-.29,11a69.93,69.93,0,0,0,.34,7.21,25.22,25.22,0,0,0,1.22,5.84l3.31,3q2.92,0,6.52-3a56.23,56.23,0,0,0,7.6-7.84,131,131,0,0,0,8.13-11.16q4.13-6.27,8-12.85t7.26-13q3.4-6.42,5.94-11.64c1.68-3.46,3-6.34,4-8.61a18.32,18.32,0,0,0,1.46-4.1,10.59,10.59,0,0,0-.34-2.62,10,10,0,0,0-1-2.49,6,6,0,0,0-1.5-1.81,3,3,0,0,0-1.85-.67,3.9,3.9,0,0,0-1.61.38"/><path id="SVGID-5" data-name="SVGID" class="cls-1" d="M306.31,125.54a26.19,26.19,0,0,0-6.23,2,12.93,12.93,0,0,0-4.63,3.65,9.11,9.11,0,0,0-1.8,5.8c0,.39.36.62,1.07.67a4.47,4.47,0,0,1,2.34,1.18,9.49,9.49,0,0,1,2.34,3.69q1.07,2.64,1.07,8.29a39.54,39.54,0,0,1-1.71,11.1q-1.69,5.85-3.74,11.79t-3.75,11.69a38.56,38.56,0,0,0-1.71,11,7,7,0,0,0,2.44,5.6,8,8,0,0,0,5.35,2.1,7.67,7.67,0,0,0,3.75-1,7.23,7.23,0,0,0,3-3.21,90.29,90.29,0,0,1,3.41-15.2q2.43-7.78,4.92-15.63c1.65-5.22,3.12-10.39,4.37-15.49a60.87,60.87,0,0,0,1.9-14.75c-.12-1.18-.23-2.58-.29-4.24a27.32,27.32,0,0,0-.58-4.73,10.42,10.42,0,0,0-1.61-3.8,3.78,3.78,0,0,0-3.26-1.55,62.61,62.61,0,0,0-6.62,1m7.45-32.43a15.45,15.45,0,0,0-3.95,3,15.62,15.62,0,0,0-2.81,4.14,10.58,10.58,0,0,0-1.08,4.53,7.56,7.56,0,0,0,1.81,5.17,6.19,6.19,0,0,0,4.91,2,10.59,10.59,0,0,0,4.58-1.07,12.92,12.92,0,0,0,3.94-2.92,15.41,15.41,0,0,0,2.73-4.14,11.89,11.89,0,0,0,1-4.83,7.44,7.44,0,0,0-1.76-5.1,6.1,6.1,0,0,0-4.87-2,9.49,9.49,0,0,0-4.52,1.17"/><path id="SVGID-6" data-name="SVGID" class="cls-1" d="M367.07,125.59a52.48,52.48,0,0,0-12,6A67.18,67.18,0,0,0,343.8,141a63.79,63.79,0,0,0-9.35,12.47,68.68,68.68,0,0,0-6.38,15.05,60.42,60.42,0,0,0-2.38,17.09,27.19,27.19,0,0,0,.83,6.72,18.81,18.81,0,0,0,2.53,5.9,13.75,13.75,0,0,0,4.33,4.19,11.86,11.86,0,0,0,6.23,1.6,15.66,15.66,0,0,0,9-3.16,49.57,49.57,0,0,0,9-8.33,122,122,0,0,0,8.81-11.74q4.38-6.57,8.57-13.49-1.36,5.07-2.19,9.93a54.59,54.59,0,0,0-.83,9.26,29.68,29.68,0,0,0,.78,7,15.09,15.09,0,0,0,2.53,5.56,11.91,11.91,0,0,0,4.58,3.65,16.52,16.52,0,0,0,7,1.31,19.12,19.12,0,0,0,5.94-1,30.5,30.5,0,0,0,5.74-2.53,23.24,23.24,0,0,0,4.39-3.17,4.53,4.53,0,0,0,1.75-3q-1.08-4.49-4.68-4.48a6.56,6.56,0,0,0-2.24.39,10.37,10.37,0,0,1-4.91-1,7.62,7.62,0,0,1-3-2.73,10.5,10.5,0,0,1-1.46-3.94,26.31,26.31,0,0,1-.39-4.68,34.25,34.25,0,0,1,.87-7.35q.89-3.94,2.25-8.14c.9-2.79,1.91-5.58,3-8.38s2.18-5.5,3.22-8.13,2-5.07,2.91-7.35a49.12,49.12,0,0,0,2.05-6,6.3,6.3,0,0,0-3.07-2.78,16.46,16.46,0,0,0-4.82-.54,12.13,12.13,0,0,0-3.3.44,4.73,4.73,0,0,0-2.54,1.71q-3.4,4.77-7.31,10.81t-7.83,12.42q-3.94,6.38-7.84,12.52T358.21,178a71.5,71.5,0,0,1-6.38,7.69c-1.91,2-3.52,2.93-4.81,2.93-1.11,0-1.79-.75-2-2.24a54.53,54.53,0,0,1-.39-8,47,47,0,0,1,2.63-15.93,43.43,43.43,0,0,1,7.35-13.1,43.94,43.94,0,0,1,11.19-9.69,49.12,49.12,0,0,1,14.18-5.8,16.11,16.11,0,0,0,4.47-3.31,5.16,5.16,0,0,0,1.57-3.32,3.09,3.09,0,0,0-1.72-2.62,10.37,10.37,0,0,0-5.4-1.07,36.33,36.33,0,0,0-11.78,2.09"/><path class="cls-2" d="M219.94,331.53a7.17,7.17,0,0,0-2.58,1c-.77-.28-1.67-.54-2.52-.91-10.72-4.58-14.39-10-20.05-20a380.22,380.22,0,0,1-18.68-36.93c-3.62-8.35-8.31-17.17-9.09-26.52-1-11.81,8.13-20.2,20.11-18.59a26.45,26.45,0,0,1,17.67,10.49c.26.38.61.79,1.06.73s.61-.43.79-.77c2.6-4.85,4.79-8.67,8.65-12.54a15.81,15.81,0,0,1,15.59-1.79c2.42,1.07,7.1,5,8.32,7.37,1.76,3.4,2.24,7.43,2.44,11.2a135.11,135.11,0,0,1-2.49,31.21c-3.09,15.84-8.58,31.05-13,46.54a24.06,24.06,0,0,1-2.8,7.05A5,5,0,0,1,219.94,331.53ZM208.45,269c-.17,0-.33,0-.48.05s-.5.15-.75.18a2.36,2.36,0,0,1-1.08.06c-2.28-.85-4.79-1.32-6.3-3.67s-1-7.4-1.67-10.17c-1.32-5.59-3.56-11.08-7.56-15.29a4.12,4.12,0,0,0-1.56-1.16,3,3,0,0,0-3.05.88c-4.58,4.61-1.52,13.26.54,18.36,3,7.47,6.37,15.36,9.88,22.69,4.44,9.28,9.13,18.85,14.67,27.52,3.3,5.16,4.33,8.81,7,1.27q2.91-8.14,5.12-16.53a206.25,206.25,0,0,0,5.92-33.08c.74-7.69,1-15.56-1-23-.41-1.49-1.34-3.27-2.88-3.13-1,.08-1.7,1-2.26,1.81-5.78,8.57-10,19.53-12.62,29.28C210,266.46,209.92,268,208.45,269Z"/><path class="cls-1" d="M84.44,336.48a43,43,0,0,1-1.52-5.1C79.78,318,76,304.81,75.31,291c-.68-13.12-1.3-30.9,4.56-43.09,2.63-5.48,3.71-13.51,10.12-16,3.87-1.5,11.36-1.46,12.08,3.86.29,2.17-.51,4.32-1.29,6.37-5,13.26-6.52,27.66-6,41.76.48,13.22,3.63,27.18,6.72,40l1.32,5.48c1.53,6.35,0,12,7.59,8.76,11.69-5.05,23.2-6.4,35.78-6.51,1.65,0,3.44,0,4.77,1,7.67,5.68-9.71,10.37-12.26,10.64-9.24,1-16.35,4.26-24.54,8.4a25.75,25.75,0,0,1-6.49,2.59C95.77,356.72,88.07,346.51,84.44,336.48Z"/><path class="cls-1" d="M132.46,263.09a25.2,25.2,0,0,1,6.6-4.1,7.53,7.53,0,0,1,3.13-.39c9.21.36,13.48,5.48,19.32,11.53A22.19,22.19,0,0,1,164,273a20.76,20.76,0,0,1,2.51,6.18c3.29,11.83,4.32,25.19-3.44,35.63-3.43,4.62-8.19,6.1-13.65,6.33a1.37,1.37,0,0,1-.45,0c-8.83-2.4-17.56-7.06-22-15.78-4.65-9.22-7-21.7-2.77-31.42A30.87,30.87,0,0,1,132.46,263.09Zm22.72,39.56c.13-.45.25-.94.38-1.45,2.62-11.14.32-23.09-8.39-30.89a1.64,1.64,0,0,0-1.23-.57c-5.49.85-5.4,19.36-4.67,23C142.7,299.87,151,317.24,155.18,302.65Z"/><path class="cls-1" d="M269.26,246.63q8.73-.6,14.87,3.7a11.5,11.5,0,0,1,5.12,11,36.25,36.25,0,0,1-5.19,16.27,21.34,21.34,0,0,1-11,9.07,7.28,7.28,0,0,0-2,1.17,6,6,0,0,0,.2,2.23,34.86,34.86,0,0,0,1.39,4.55,44.79,44.79,0,0,0,1.9,4.14c1,1.94,1.92,3.09,2.73,3.43s2.2.14,4.17-.64a22,22,0,0,0,7.88-5.19,34.3,34.3,0,0,0,5.51-7.68,27.22,27.22,0,0,0,2.24-5c.36-1.35.83-2.17,1.4-2.46a3.26,3.26,0,0,1,2.33,0c1.71.33,2.42,1.64,2.15,3.94-.23,1.46-.52,2.92-.86,4.39a25.25,25.25,0,0,1-1.42,4.25c-.59,1.38-1.2,2.66-1.81,3.85s-1.29,2.36-2,3.5a14.72,14.72,0,0,1-4.13,5,20.88,20.88,0,0,1-6.16,3.42,23.38,23.38,0,0,1-7.06,1.35,18.2,18.2,0,0,1-7.2-1.15c-1.24-.48-2.45-.95-3.62-1.38s-2.39-.89-3.63-1.38a22.51,22.51,0,0,1-9.49-6.69,27.61,27.61,0,0,1-5.13-10.14,44.8,44.8,0,0,1,.17-26.24A25.08,25.08,0,0,1,263,248.81,14,14,0,0,1,269.26,246.63Zm.08,33a20.1,20.1,0,0,0,5.47-5.07,26,26,0,0,0,3.71-6.71,22.53,22.53,0,0,0,1.44-6.95,11,11,0,0,0-1.15-5.83,11.91,11.91,0,0,0-5.54,6.25,64.59,64.59,0,0,0-1.95,6.28q-.81,3.12-1.42,6.23c-.16,1-.31,1.91-.47,2.83A11.15,11.15,0,0,0,269.34,279.67Z"/><path class="cls-1" d="M314.37,257.14c.72-1.38,1.38-2.67,2-3.86s1.23-2.35,1.85-3.49a15.22,15.22,0,0,1,7.63-7,16.64,16.64,0,0,1,10.32-1,8.14,8.14,0,0,1,2.59.85c1.37.59,2.11,1.16,2.22,1.68s-.46,1.21-1.7,2a22.56,22.56,0,0,0-6.52,6.42,56.61,56.61,0,0,0-4.4,8,70.4,70.4,0,0,0-4.75,14.16,127.68,127.68,0,0,0-2.36,14.85c-.17,2.05-.36,4-.55,5.89s-.43,3.84-.73,5.9a6.06,6.06,0,0,0,.05,2.51c.19.82.38,1.64.58,2.46a3.36,3.36,0,0,1-1.3,3.53,9.78,9.78,0,0,1-3.61,1.85,7.46,7.46,0,0,1-4-.27c-.74-.18-1.5-.38-2.3-.61a21.78,21.78,0,0,1-2.32-.78,12.51,12.51,0,0,1-8.5-8.75,41.2,41.2,0,0,1-1.85-9.63q-.35-4.91-.44-9.92-.27-7-.18-14.09t.53-14.14a26.8,26.8,0,0,1,.23-3.43c.14-1.09.34-2.25.59-3.47a2.4,2.4,0,0,1,2.69-2Q307,244.7,311,251c.56.91,1.09,1.85,1.6,2.82S313.66,255.89,314.37,257.14Z"/><path class="cls-1" d="M357.51,239.45a14.91,14.91,0,0,1,9.21,2.59q3.07,2.24.85,5.49t-4.29,6.22c-1.38,2-2.81,4.06-4.29,6.22a52.2,52.2,0,0,0-3.74,7.43,27.19,27.19,0,0,0-1.89,8,6.57,6.57,0,0,0,.39,3.38,5.83,5.83,0,0,0,2.76,1.73,44.31,44.31,0,0,1,5.43,2.39,28.44,28.44,0,0,1,5,3.32,2.18,2.18,0,0,0,2.88.11,37,37,0,0,0,6.06-3.6,50.92,50.92,0,0,0,5.42-4.62,8.38,8.38,0,0,1,1.05-1.35c.38-.39.8-.79,1.24-1.18a3.42,3.42,0,0,1,2.54-.68,4.77,4.77,0,0,1,2.71,1.1c.76.54,1.05,1.11.87,1.72a13,13,0,0,1-.73,1.86,13.72,13.72,0,0,1-3.35,4.79,26.43,26.43,0,0,1-4.71,3.48q-1.53,1-3.06,2a22.08,22.08,0,0,1-3.26,1.64,7.88,7.88,0,0,0-1.37.84q-.49.4,0,1.62a11.74,11.74,0,0,1,.51,5.7,14.86,14.86,0,0,1-2,5.48,15.13,15.13,0,0,1-4.09,4.4,14.53,14.53,0,0,1-5.88,2.5,16.11,16.11,0,0,1-12.42-2.3,7.93,7.93,0,0,1-3.93-5.75,4.4,4.4,0,0,1,.32-3.44,10.87,10.87,0,0,1,2.18-2.71q2.19-1.64,4.49-3A51.8,51.8,0,0,1,357,292.3a4.7,4.7,0,0,1,1-.63,4,4,0,0,0,1-.64c.58-.28.81-.63.72-1a1.31,1.31,0,0,0-.89-.9,7.92,7.92,0,0,0-3.32-1,16.61,16.61,0,0,1-5.92-1.9,41.23,41.23,0,0,1-5.15-3.4l-1.84-1.54-1.85-1.54a16.29,16.29,0,0,1-5.51-7.41,19,19,0,0,1-.65-9.28A27.18,27.18,0,0,1,342,247.4,28,28,0,0,1,357.51,239.45Zm2.56,58.68a9.81,9.81,0,0,0-3.54.59,11.63,11.63,0,0,0-2.91,1.6,4.39,4.39,0,0,0-1.87,2.15,3.31,3.31,0,0,0-.05,2.51c.53,1.87,1.52,2.32,3,1.35a14,14,0,0,0,3.38-3.35A13.37,13.37,0,0,0,360.07,298.13Z"/><path class="cls-1" d="M165.19,367.92l5.4-25.36H180a8.71,8.71,0,0,1,3.57.67,5.21,5.21,0,0,1,2.32,1.93,5.49,5.49,0,0,1,.81,3,6.46,6.46,0,0,1-1.52,4.28,7.59,7.59,0,0,1-4,2.46,6.14,6.14,0,0,1,3.06,1.91,4.86,4.86,0,0,1,1.1,3.24,7.23,7.23,0,0,1-1.16,4,7.9,7.9,0,0,1-3.18,2.81,10.34,10.34,0,0,1-4.64,1Zm3.23-2.39h7.86a7.08,7.08,0,0,0,3.26-.71,5.48,5.48,0,0,0,2.21-1.93,5.2,5.2,0,0,0,.8-2.87,3.71,3.71,0,0,0-1.3-3,5.53,5.53,0,0,0-3.63-1.08h-7.17ZM171,353.64h7.32a5.85,5.85,0,0,0,4.06-1.39,4.61,4.61,0,0,0,1.56-3.61,3.4,3.4,0,0,0-1.16-2.7,4.81,4.81,0,0,0-3.22-1H172.8Z"/><path class="cls-1" d="M187.59,375.86a4.59,4.59,0,0,1-.87-.09c-.32-.06-.69-.15-1.13-.27l.48-2.36c.33.07.62.13.86.16a4,4,0,0,0,.62.06,3.51,3.51,0,0,0,1.83-.47,4.37,4.37,0,0,0,1.43-1.6l1.89-3.19-3-17.86h2.76l2.28,14.64,8.62-14.64h2.94L193.2,372.16a8.46,8.46,0,0,1-2.51,2.85A5.69,5.69,0,0,1,187.59,375.86Z"/><path class="cls-1" d="M227.63,368.28a11.59,11.59,0,0,1-4.58-.9,11.06,11.06,0,0,1-3.7-2.54,11.72,11.72,0,0,1-2.46-3.82,12.33,12.33,0,0,1-.89-4.73,13.83,13.83,0,0,1,1.07-5.45,14.42,14.42,0,0,1,3-4.52,14.06,14.06,0,0,1,4.35-3.06,12.7,12.7,0,0,1,5.22-1.1,13.08,13.08,0,0,1,5.7,1.21,11,11,0,0,1,4.26,3.57l-2.14,1.81a8.37,8.37,0,0,0-3.37-3,10.23,10.23,0,0,0-4.63-1.07,9.77,9.77,0,0,0-4.14.89,10.52,10.52,0,0,0-3.38,2.48,12,12,0,0,0-3.14,8.16,10,10,0,0,0,1.18,4.91,9,9,0,0,0,12.23,3.55,10.29,10.29,0,0,0,3.39-3.06,11.14,11.14,0,0,0,1.86-4.5H229l.4-2.46H240.6l-.32,1.88a15.31,15.31,0,0,1-2.39,6.07,13.32,13.32,0,0,1-4.46,4.17A11.58,11.58,0,0,1,227.63,368.28Z"/><path class="cls-1" d="M242.85,367.92l3.88-17.68h2.61l-.73,3.22a8,8,0,0,1,2.39-2.62,5.17,5.17,0,0,1,2.94-.93,4.81,4.81,0,0,1,1.85.33l-.55,2.39a2.92,2.92,0,0,0-.88-.29,6.14,6.14,0,0,0-1.11-.11,5,5,0,0,0-2.75.85,7.94,7.94,0,0,0-2.32,2.45l-2.72,12.39Z"/><path class="cls-1" d="M264.16,368.25a8.47,8.47,0,0,1-4.19-1,7.18,7.18,0,0,1-2.84-2.89,8.61,8.61,0,0,1-1-4.24,10.84,10.84,0,0,1,.71-3.93,10.23,10.23,0,0,1,2-3.22,9.22,9.22,0,0,1,2.9-2.19,7.84,7.84,0,0,1,3.53-.8,6.78,6.78,0,0,1,3.66,1,7.16,7.16,0,0,1,2.52,2.76,8.62,8.62,0,0,1,.92,4c0,.31,0,.63,0,.94a8.5,8.5,0,0,1-.09,1H258.65a6.42,6.42,0,0,0,.63,3.17,5.58,5.58,0,0,0,2,2.28,5.3,5.3,0,0,0,3,.86,7.93,7.93,0,0,0,2.52-.42,7,7,0,0,0,2.15-1.14l1.38,1.88a12.77,12.77,0,0,1-3.05,1.49A10.32,10.32,0,0,1,264.16,368.25Zm-5.26-10.47h11a5.78,5.78,0,0,0-.6-2.79,5.26,5.26,0,0,0-1.72-2,4.38,4.38,0,0,0-2.5-.74,5.38,5.38,0,0,0-2.7.7,6.7,6.7,0,0,0-2.14,1.94A8.27,8.27,0,0,0,258.9,357.78Z"/><path class="cls-1" d="M283.91,368.25a8.47,8.47,0,0,1-4.19-1,7.18,7.18,0,0,1-2.84-2.89,8.61,8.61,0,0,1-1-4.24,10.84,10.84,0,0,1,.71-3.93,10.23,10.23,0,0,1,2-3.22,9.22,9.22,0,0,1,2.9-2.19A7.84,7.84,0,0,1,285,350a6.78,6.78,0,0,1,3.66,1,7.16,7.16,0,0,1,2.52,2.76,8.62,8.62,0,0,1,.92,4c0,.31,0,.63,0,.94a8.5,8.5,0,0,1-.09,1H278.4a6.42,6.42,0,0,0,.63,3.17,5.58,5.58,0,0,0,2,2.28,5.26,5.26,0,0,0,3,.86,7.93,7.93,0,0,0,2.52-.42,7,7,0,0,0,2.15-1.14l1.38,1.88a12.77,12.77,0,0,1-3.05,1.49A10.32,10.32,0,0,1,283.91,368.25Zm-5.26-10.47h11A5.78,5.78,0,0,0,289,355a5.26,5.26,0,0,0-1.72-2,4.38,4.38,0,0,0-2.5-.74,5.38,5.38,0,0,0-2.7.7,6.7,6.7,0,0,0-2.14,1.94A8.27,8.27,0,0,0,278.65,357.78Z"/><path class="cls-1" d="M294.53,367.92l3.87-17.68H301l-.55,2.57a8,8,0,0,1,2.58-2.12,6.56,6.56,0,0,1,3-.71,5.83,5.83,0,0,1,3.33.91,4.72,4.72,0,0,1,1.87,2.5,6.72,6.72,0,0,1,.05,3.66l-2.32,10.87H306.3l2.25-10.33a4.93,4.93,0,0,0-.47-3.95,3.63,3.63,0,0,0-3.23-1.48,5.58,5.58,0,0,0-2.57.63,7.69,7.69,0,0,0-2.25,1.83l-2.89,13.3Z"/><path class="cls-1" d="M323.08,367.92l5.4-25.36h2.72l-4.89,22.9h14l-.51,2.46Z"/><path class="cls-1" d="M344.17,367.92l3.88-17.68h2.57l-3.84,17.68Zm6.09-22a1.6,1.6,0,0,1-1.2-.49,1.7,1.7,0,0,1-.47-1.21,2,2,0,0,1,.29-1,2.46,2.46,0,0,1,.76-.78,2,2,0,0,1,1-.29,1.6,1.6,0,0,1,1.19.49,1.67,1.67,0,0,1,.48,1.22,2.08,2.08,0,0,1-.62,1.47A2,2,0,0,1,350.26,345.89Z"/><path class="cls-1" d="M354.28,367.92l3.3-15.51h-3.81l.51-2.17h3.77L359,346a6.73,6.73,0,0,1,2-3.77,5.44,5.44,0,0,1,3.73-1.31,8.58,8.58,0,0,1,1.48.13,5.9,5.9,0,0,1,1.27.38l-.47,2.36a6.08,6.08,0,0,0-2.35-.47,2.91,2.91,0,0,0-2.07.67,4.15,4.15,0,0,0-1.05,2.23l-.87,4h5l-.51,2.17h-5l-3.3,15.51Z"/><path class="cls-1" d="M374,368.25a8.44,8.44,0,0,1-4.18-1,7.27,7.27,0,0,1-2.85-2.89,8.6,8.6,0,0,1-1-4.24,10.84,10.84,0,0,1,.7-3.93,10.42,10.42,0,0,1,2-3.22,9.22,9.22,0,0,1,2.9-2.19,7.91,7.91,0,0,1,3.53-.8,6.78,6.78,0,0,1,3.66,1,7,7,0,0,1,2.52,2.76,8.51,8.51,0,0,1,.93,4c0,.31,0,.63,0,.94s-.05.64-.09,1H368.52a6.42,6.42,0,0,0,.64,3.17,5.56,5.56,0,0,0,2,2.28,5.3,5.3,0,0,0,3,.86,7.84,7.84,0,0,0,2.52-.42,7.16,7.16,0,0,0,2.16-1.14l1.37,1.88a12.71,12.71,0,0,1-3,1.49A10.38,10.38,0,0,1,374,368.25Zm-5.25-10.47h10.94a5.56,5.56,0,0,0-.6-2.79,5.17,5.17,0,0,0-1.72-2,4.35,4.35,0,0,0-2.5-.74,5.44,5.44,0,0,0-2.7.7,6.92,6.92,0,0,0-2.14,1.94A8.07,8.07,0,0,0,368.78,357.78Z"/></svg>