<svg id="Capa_1" data-name="Capa 1" xmlns="http://www.w3.org/2000/svg" viewBox="0 0 719 761"><defs><style>.cls-1{fill:#00b5b1;}.cls-2{fill:#fff;}</style></defs><circle class="cls-1" cx="359.5" cy="380.5" r="344.5"/><path class="cls-2" d="M358.82,627.54c-61.28,0-122.56-.2-183.84.19-9.81.06-13.21-2.6-13.08-12.76.52-39.29,0-78.59.26-117.88.36-59.31,46.39-111.29,105.34-118.53,4.06-.5,10.51,2.71,12.86,6.21,39.52,59,118.94,58.82,158.51-.27,2.31-3.44,8.84-6.42,13-5.93,58.2,6.92,104.56,59,105,117.71.29,39.29-.23,78.59.28,117.88.13,10.24-2.75,13.69-13.35,13.61C482.11,627.33,420.47,627.55,358.82,627.54Z"/><path class="cls-2" d="M360.33,133.23a104.25,104.25,0,0,1-1.13,208.49c-57.85-.08-104.11-46.74-104-104.9C255.34,179,301.83,133.13,360.33,133.23Z"/><path class="cls-1" d="M362.19,492.09c4.25-7.14,8.08-14,12.27-20.54,7-10.93,15.23-20.7,26.6-27.36,10.44-6.11,21.51-8.79,33.32-4.81,12.14,4.09,17.38,14.1,20.1,25.59,4.12,17.31.91,33.88-6.39,49.76-9.61,20.89-23.35,38.94-39.33,55.28-12.72,13-25.9,25.53-38.88,38.26-.32.31-.69.55-1.2,1-15.23-10.94-30.5-21.78-45.62-32.81a200.49,200.49,0,0,1-31.74-28.33c-13.53-15.17-23-32.38-26-52.7-1.86-12.34-1.27-24.49,3.94-36.09,6.64-14.79,20.62-21.59,36.42-17.77,12.55,3,22.7,10.12,31.92,18.79A131.54,131.54,0,0,1,362.19,492.09Z"/></svg>